<svg width="314" height="99" viewBox="0 0 314 99" fill="none" xmlns="http://www.w3.org/2000/svg">
<path d="M164.971 25.211C164.971 28.7272 162.135 31.5598 158.615 31.5598C155.095 31.5598 152.259 28.7272 152.259 25.211C152.259 21.6947 154.997 18.8622 158.615 18.8622C162.233 18.9599 164.971 21.7924 164.971 25.211ZM138.765 38.0063C138.765 38.5923 138.765 39.5691 138.765 39.5691C138.765 39.5691 135.733 35.6621 129.279 35.6621C118.621 35.6621 110.309 43.769 110.309 55.0015C110.309 66.1364 118.523 74.341 129.279 74.341C135.831 74.341 138.765 70.3363 138.765 70.3363V71.9968C138.765 72.7782 139.351 73.3642 140.134 73.3642H148.054V36.6388C148.054 36.6388 140.818 36.6388 140.134 36.6388C139.351 36.6388 138.765 37.3226 138.765 38.0063ZM138.765 61.5457C137.298 63.6945 134.364 65.5503 130.844 65.5503C124.586 65.5503 119.794 61.6434 119.794 55.0015C119.794 48.3597 124.586 44.4527 130.844 44.4527C134.267 44.4527 137.396 46.4062 138.765 48.4574V61.5457ZM153.921 36.6388H163.309V73.3642H153.921V36.6388ZM294.144 35.6621C287.691 35.6621 284.659 39.5691 284.659 39.5691V18.9599H275.272V73.3642C275.272 73.3642 282.508 73.3642 283.193 73.3642C283.975 73.3642 284.562 72.6805 284.562 71.9968V70.3363C284.562 70.3363 287.593 74.341 294.047 74.341C304.705 74.341 313.017 66.1364 313.017 55.0015C313.017 43.8667 304.705 35.6621 294.144 35.6621ZM292.58 65.4527C288.962 65.4527 286.126 63.5968 284.659 61.448V48.3597C286.126 46.4062 289.255 44.3551 292.58 44.3551C298.838 44.3551 303.63 48.262 303.63 54.9039C303.63 61.5457 298.838 65.4527 292.58 65.4527ZM270.383 51.5829V73.4619H260.995V52.6574C260.995 46.6016 259.04 44.1597 253.759 44.1597C250.924 44.1597 247.99 45.6248 246.132 47.7737V73.3642H236.745V36.6388H244.176C244.959 36.6388 245.546 37.3226 245.546 38.0063V39.5691C248.283 36.7365 251.901 35.6621 255.52 35.6621C259.626 35.6621 263.049 36.8342 265.787 39.1784C269.112 41.9132 270.383 45.4295 270.383 51.5829ZM213.961 35.6621C207.507 35.6621 204.476 39.5691 204.476 39.5691V18.9599H195.089V73.3642C195.089 73.3642 202.325 73.3642 203.009 73.3642C203.791 73.3642 204.378 72.6805 204.378 71.9968V70.3363C204.378 70.3363 207.409 74.341 213.863 74.341C224.522 74.341 232.833 66.1364 232.833 55.0015C232.931 43.8667 224.62 35.6621 213.961 35.6621ZM212.396 65.4527C208.778 65.4527 205.943 63.5968 204.476 61.448V48.3597C205.943 46.4062 209.072 44.3551 212.396 44.3551C218.655 44.3551 223.446 48.262 223.446 54.9039C223.446 61.5457 218.655 65.4527 212.396 65.4527ZM186.972 35.6621C189.808 35.6621 191.275 36.1505 191.275 36.1505V44.8434C191.275 44.8434 183.452 42.2062 178.563 47.7737V73.4619H169.176V36.6388C169.176 36.6388 176.412 36.6388 177.096 36.6388C177.878 36.6388 178.465 37.3226 178.465 38.0063V39.5691C180.225 37.5179 184.039 35.6621 186.972 35.6621ZM89.4811 70.0433C88.9922 68.8712 88.5033 67.6015 88.0144 66.5271C87.2321 64.7689 86.4498 63.1085 85.7653 61.5457L85.6675 61.448C78.9204 46.7969 71.6843 31.9505 64.0571 17.2994L63.7638 16.7134C62.9815 15.2482 62.1992 13.6855 61.4169 12.1227C60.4391 10.3645 59.4612 8.50874 57.8967 6.75061C54.7676 2.84365 50.2695 0.694824 45.478 0.694824C40.5888 0.694824 36.1885 2.84365 32.9616 6.55526C31.4948 8.31339 30.4192 10.1692 29.4413 11.9273C28.6591 13.4901 27.8768 15.0529 27.0945 16.518L26.8012 17.104C19.2717 31.7551 11.9379 46.6016 5.19074 61.2527L5.09295 61.448C4.40846 63.0108 3.62618 64.6713 2.8439 66.4294C2.35498 67.5038 1.86606 68.6759 1.37713 69.9456C0.105933 73.5596 -0.285205 76.9782 0.203718 80.4944C1.27935 87.82 6.16858 93.9734 12.9157 96.7083C15.4581 97.7827 18.0983 98.2711 20.8363 98.2711C21.6186 98.2711 22.5964 98.1734 23.3787 98.0757C26.6056 97.685 29.9303 96.6106 33.1572 94.7548C37.1663 92.5083 40.9799 89.2851 45.2825 84.5967C49.585 89.2851 53.4964 92.5083 57.4078 94.7548C60.6347 96.6106 63.9593 97.685 67.1862 98.0757C67.9685 98.1734 68.9464 98.2711 69.7286 98.2711C72.4666 98.2711 75.2046 97.7827 77.6492 96.7083C84.4941 93.9734 89.2856 87.7223 90.3612 80.4944C91.1435 77.0758 90.7523 73.6573 89.4811 70.0433ZM45.3802 75.1224C40.0999 68.4805 36.6774 62.2294 35.504 56.955C35.0151 54.7085 34.9173 52.755 35.2106 50.9969C35.4062 49.4341 35.9929 48.0667 36.7752 46.8946C38.6331 44.2574 41.7622 42.5969 45.3802 42.5969C48.9983 42.5969 52.2252 44.1597 53.9853 46.8946C54.7676 48.0667 55.3543 49.4341 55.5499 50.9969C55.8432 52.755 55.7454 54.8062 55.2565 56.955C54.0831 62.1317 50.6606 68.3829 45.3802 75.1224ZM84.3963 79.713C83.7118 84.7921 80.2894 89.1874 75.4979 91.1409C73.1511 92.1176 70.6087 92.4107 68.0663 92.1176C65.6217 91.8246 63.1771 91.0432 60.6347 89.5781C57.1144 87.6246 53.5942 84.5967 49.4872 80.1037C55.941 72.1922 59.8524 64.9643 61.3191 58.5178C62.0036 55.4899 62.1014 52.755 61.8081 50.2155C61.4169 47.7737 60.5369 45.5272 59.1679 43.5737C56.1366 39.1784 51.0518 36.6388 45.3802 36.6388C39.7087 36.6388 34.6239 39.276 31.5926 43.5737C30.2236 45.5272 29.3436 47.7737 28.9524 50.2155C28.5613 52.755 28.6591 55.5876 29.4413 58.5178C30.9081 64.9643 34.9173 72.2898 41.2733 80.2014C37.2641 84.6944 33.6461 87.7223 30.1258 89.6758C27.5834 91.1409 25.1388 91.9223 22.6942 92.2153C20.054 92.5083 17.5116 92.1176 15.2626 91.2386C10.4711 89.2851 7.04865 84.8898 6.36415 79.8107C6.0708 77.3689 6.26637 74.927 7.24422 72.1921C7.53757 71.2154 8.02649 70.2387 8.51542 69.0666C9.19991 67.5038 9.98219 65.8433 10.7645 64.1829L10.8622 63.9875C17.6094 49.4341 24.8455 34.5877 32.3749 20.1319L32.6682 19.5459C33.4505 18.0808 34.2328 16.518 35.0151 15.0529C35.7973 13.4901 36.6774 12.025 37.753 10.7552C39.8065 8.41107 42.5445 7.1413 45.5758 7.1413C48.6071 7.1413 51.3451 8.41107 53.3986 10.7552C54.4742 12.025 55.3543 13.4901 56.1366 15.0529C56.9188 16.518 57.7011 18.0808 58.4834 19.5459L58.7767 20.1319C66.2084 34.6854 73.4444 49.5318 80.1916 64.0852V64.1829C80.9739 65.7457 81.6584 67.5038 82.4406 69.0666C82.9296 70.2387 83.4185 71.2154 83.7118 72.1921C84.4941 74.7317 84.7875 77.1735 84.3963 79.713Z" fill="#FF5A5F"/>
</svg>
