<svg width="274" height="83" viewBox="0 0 274 83" fill="none" xmlns="http://www.w3.org/2000/svg">
<path fill-rule="evenodd" clip-rule="evenodd" d="M169.983 64.7443C154.06 76.4666 130.982 82.7208 111.112 82.7208C83.2504 82.7208 58.1681 72.4281 39.1925 55.3093C37.7016 53.9632 39.0374 52.1286 40.8265 53.1769C61.3049 65.0779 86.6257 72.2375 112.781 72.2375C130.421 72.2375 149.826 68.5921 167.669 61.0275C170.364 59.8838 172.618 62.7906 169.983 64.7443Z" fill="#FF9900"/>
<path fill-rule="evenodd" clip-rule="evenodd" d="M176.6 57.1795C174.573 54.5825 163.147 55.9525 158.018 56.56C156.456 56.7507 156.217 55.3926 157.625 54.4157C166.725 48.0185 181.657 49.865 183.399 52.0093C185.14 54.1656 182.945 69.1162 174.394 76.252C173.082 77.348 171.83 76.7643 172.414 75.3109C174.334 70.5219 178.64 59.7884 176.6 57.1795Z" fill="#FF9900"/>
<path fill-rule="evenodd" clip-rule="evenodd" d="M158.377 9.25377V3.03526C158.377 2.09415 159.093 1.46277 159.952 1.46277H187.825C188.719 1.46277 189.435 2.10606 189.435 3.03526V8.36031C189.423 9.25378 188.672 10.4212 187.336 12.2677L172.892 32.8651C178.259 32.734 183.925 33.5322 188.791 36.2721C189.888 36.8916 190.186 37.797 190.27 38.6905V45.3259C190.27 46.2313 189.268 47.2915 188.218 46.7435C179.643 42.2524 168.253 41.764 158.771 46.7912C157.805 47.3154 156.791 46.267 156.791 45.3616V39.0597C156.791 38.0472 156.803 36.3198 157.817 34.783L174.55 10.8144H159.987C159.093 10.8144 158.377 10.183 158.377 9.25377Z" fill="black"/>
<path fill-rule="evenodd" clip-rule="evenodd" d="M56.7008 48.0548H48.2208C47.4097 47.9953 46.7657 47.3877 46.7061 46.6134V3.14341C46.7061 2.27377 47.4336 1.58282 48.34 1.58282H56.2476C57.0705 1.61853 57.7265 2.24994 57.7861 3.03618V8.71862H57.9412C60.0045 3.22679 63.8807 0.665527 69.1047 0.665527C74.4122 0.665527 77.7278 3.22679 80.1132 8.71862C82.1646 3.22679 86.828 0.665527 91.8254 0.665527C95.3796 0.665527 99.2678 2.13081 101.641 5.41876C104.325 9.076 103.776 14.3891 103.776 19.0471L103.764 46.4824C103.764 47.352 103.037 48.0548 102.13 48.0548H93.6621C92.8153 47.9953 92.1355 47.3163 92.1355 46.4824V23.4429C92.1355 21.6083 92.3025 17.0338 91.897 15.2945C91.2649 12.3759 89.3685 11.5539 86.9115 11.5539C84.8601 11.5539 82.7133 12.9239 81.8426 15.1158C80.972 17.3078 81.0554 20.9769 81.0554 23.4429V46.4824C81.0554 47.352 80.3279 48.0548 79.4215 48.0548H70.9534C70.0947 47.9953 69.4268 47.3163 69.4268 46.4824L69.4148 23.4429C69.4148 18.5944 70.2139 11.4586 64.1909 11.4586C58.0962 11.4586 58.3348 18.4157 58.3348 23.4429V46.4824C58.3348 47.352 57.6072 48.0548 56.7008 48.0548" fill="black"/>
<path fill-rule="evenodd" clip-rule="evenodd" d="M213.433 0.665527C226.015 0.665527 232.826 11.4586 232.826 25.1822C232.826 38.4412 225.3 48.9602 213.433 48.9602C201.076 48.9602 194.35 38.1672 194.35 24.7176C194.35 11.1846 201.16 0.665527 213.433 0.665527ZM213.504 9.54061C207.254 9.54061 206.861 18.0464 206.861 23.3476C206.861 28.6607 206.777 40.0018 213.433 40.0018C220.004 40.0018 220.314 30.8527 220.314 25.2775C220.314 21.6083 220.159 17.2244 219.05 13.7458C218.096 10.72 216.2 9.54061 213.504 9.54061Z" fill="black"/>
<path fill-rule="evenodd" clip-rule="evenodd" d="M249.141 48.0548H240.697C239.85 47.9953 239.17 47.3163 239.17 46.4824L239.158 3.00045C239.23 2.20228 239.933 1.58282 240.792 1.58282H248.652C249.391 1.61853 250 2.1189 250.167 2.79793V9.4453H250.322C252.695 3.50079 256.023 0.665527 261.879 0.665527C265.684 0.665527 269.393 2.03551 271.778 5.78805C273.997 9.26661 273.997 15.1158 273.997 19.321V46.6849C273.901 47.4473 273.197 48.0548 272.363 48.0548H263.859C263.083 47.9953 262.439 47.4235 262.356 46.6849V23.0736C262.356 18.3204 262.905 11.3633 257.048 11.3633C254.985 11.3633 253.089 12.7452 252.147 14.8418C250.954 17.4984 250.799 20.143 250.799 23.0736V46.4824C250.787 47.352 250.047 48.0548 249.141 48.0548" fill="black"/>
<path fill-rule="evenodd" clip-rule="evenodd" d="M136.158 27.2898C136.158 30.5896 136.241 33.3415 134.571 36.272C133.224 38.6546 131.077 40.1199 128.703 40.1199C125.447 40.1199 123.539 37.642 123.539 33.9848C123.539 26.7656 130.015 25.4552 136.158 25.4552V27.2898ZM144.709 47.9347C144.149 48.4351 143.338 48.4708 142.706 48.1373C139.891 45.8023 139.378 44.7183 137.839 42.4906C133.188 47.2319 129.884 48.6495 123.861 48.6495C116.717 48.6495 111.171 44.2537 111.171 35.4501C111.171 28.5763 114.892 23.8946 120.211 21.6073C124.815 19.5821 131.244 19.2247 136.158 18.6648V17.5689C136.158 15.5556 136.313 13.173 135.12 11.4337C134.094 9.87315 132.114 9.22985 130.361 9.22985C127.129 9.22985 124.255 10.8857 123.551 14.3166C123.408 15.0791 122.847 15.8296 122.072 15.8653L113.854 14.9838C113.163 14.8289 112.387 14.269 112.59 13.2088C114.475 3.24961 123.491 0.247559 131.554 0.247559C135.681 0.247559 141.072 1.34354 144.328 4.46471C148.454 8.31256 148.061 13.447 148.061 19.0341V32.2336C148.061 36.2006 149.707 37.9398 151.257 40.0842C151.794 40.8466 151.913 41.7639 151.221 42.3357C149.492 43.7772 146.415 46.4575 144.721 47.9586L144.709 47.9347" fill="black"/>
<path fill-rule="evenodd" clip-rule="evenodd" d="M24.9868 27.2898C24.9868 30.5896 25.0703 33.3415 23.4005 36.272C22.0528 38.6546 19.9179 40.1199 17.5325 40.1199C14.2765 40.1199 12.3801 37.642 12.3801 33.9848C12.3801 26.7656 18.8564 25.4552 24.9868 25.4552V27.2898ZM33.5383 47.9347C32.9778 48.4351 32.1667 48.4708 31.5346 48.1373C28.7199 45.8023 28.219 44.7183 26.6685 42.4906C22.017 47.2319 18.7252 48.6495 12.6902 48.6495C5.55791 48.6495 0 44.2537 0 35.4501C0 28.5763 3.73311 23.8946 9.04056 21.6073C13.6443 19.5821 20.0729 19.2247 24.9868 18.6648V17.5689C24.9868 15.5556 25.1418 13.173 23.9611 11.4337C22.9234 9.87315 20.9436 9.22985 19.2022 9.22985C15.9701 9.22985 13.0838 10.8857 12.3801 14.3166C12.237 15.0791 11.6764 15.8296 10.9131 15.8653L2.68355 14.9838C1.99179 14.8289 1.22846 14.269 1.4193 13.2088C3.31567 3.24961 12.3204 0.247559 20.383 0.247559C24.5097 0.247559 29.9006 1.34354 33.1567 4.46471C37.2834 8.31256 36.8898 13.447 36.8898 19.0341V32.2336C36.8898 36.2006 38.5357 37.9398 40.0862 40.0842C40.6348 40.8466 40.7541 41.7639 40.0623 42.3357C38.3329 43.7772 35.2558 46.4575 33.5622 47.9586L33.5384 47.9347" fill="black"/>
</svg>
