<svg width="106" height="131" viewBox="0 0 106 131" fill="none" xmlns="http://www.w3.org/2000/svg">
<path d="M88.5246 69.1645C88.377 52.6901 101.98 44.781 102.595 44.3954C94.9405 33.1964 83.0277 31.6622 78.7778 31.4817C68.6454 30.4562 58.9971 37.4463 53.8611 37.4463C48.7252 37.4463 40.7833 31.6294 32.382 31.7935C21.3225 31.9576 11.1408 38.2175 5.44699 48.112C-6.03095 68.0241 2.51803 97.5353 13.6924 113.698C19.1647 121.599 25.679 130.501 34.2444 130.172C42.498 129.844 45.6157 124.839 55.5758 124.839C65.5359 124.839 68.3418 130.172 77.0631 130.016C85.9321 129.844 91.5603 121.943 96.9916 114.018C103.26 104.845 105.852 95.9683 106 95.5006C105.803 95.4186 88.7051 88.8633 88.5246 69.1645Z" fill="#B3B3B3"/>
<path d="M72.14 20.7897C76.6852 15.2846 79.7536 7.62978 78.9084 0C72.3608 0.262825 64.4359 4.36483 59.7346 9.86998C55.5259 14.7354 51.8339 22.5293 52.8344 30.0038C60.1366 30.5699 67.5941 26.2868 72.14 20.7897Z" fill="#B3B3B3"/>
</svg>
