<svg width="110" height="172" viewBox="0 0 110 172" fill="none" xmlns="http://www.w3.org/2000/svg">
<path opacity="0.1" d="M38.5936 166.787C59.9083 166.787 77.1872 164.681 77.1872 162.084C77.1872 159.487 59.9083 157.381 38.5936 157.381C17.2789 157.381 0 159.487 0 162.084C0 164.681 17.2789 166.787 38.5936 166.787Z" fill="#0DB3FB"/>
<path d="M38.4318 165.489C58.5822 165.489 74.9174 148.065 74.9174 126.572C74.9174 105.078 58.5822 87.6536 38.4318 87.6536C18.2814 87.6536 1.94629 105.078 1.94629 126.572C1.94629 148.065 18.2814 165.489 38.4318 165.489Z" fill="#686779"/>
<path d="M49.9443 149.598H27.2422V170.354H49.9443V149.598Z" fill="#2B6CB0"/>
<path d="M79.6195 154.625L78.3223 161.76L86.7545 163.057L92.2679 159.814L91.9435 154.625H79.6195Z" fill="#D6D6D6"/>
<path d="M37.1349 20.6823C37.1349 20.6823 36.4863 28.1416 34.8647 28.4659C33.2431 28.7902 38.4321 41.7628 38.4321 41.7628H46.2157L52.3777 40.1412L49.4589 33.0063C49.4589 33.0063 45.5671 27.8172 48.4859 23.6011C51.4048 19.385 37.1349 20.6823 37.1349 20.6823Z" fill="#A0616A"/>
<path opacity="0.1" d="M37.1349 20.6823C37.1349 20.6823 36.4863 28.1416 34.8647 28.4659C33.2431 28.7902 38.4321 41.7628 38.4321 41.7628H46.2157L52.3777 40.1412L49.4589 33.0063C49.4589 33.0063 45.5671 27.8172 48.4859 23.6011C51.4048 19.385 37.1349 20.6823 37.1349 20.6823Z" fill="black"/>
<path d="M20.9183 77.7619C20.9183 77.7619 12.486 93.9777 19.2967 97.2208C26.1073 100.464 27.7289 100.14 27.7289 101.113C27.7289 102.086 26.4316 101.761 27.0803 103.383C27.7289 105.004 25.783 111.491 27.7289 115.383C29.6748 119.274 29.0262 122.193 29.0262 122.193C29.0262 122.193 29.0262 122.517 29.6748 123.815C30.3234 125.112 30.6477 126.085 30.3234 126.734C29.9991 127.382 28.0532 131.598 29.9991 132.571C31.945 133.544 41.9988 134.193 42.9717 132.571C43.9447 130.95 41.9988 129.977 42.9717 129.004C43.9447 128.031 44.5933 127.707 43.9447 127.058C43.2961 126.409 42.6474 118.301 42.6474 118.301C42.6474 118.301 44.269 108.896 43.6204 107.599C42.9717 106.302 41.9988 105.004 42.6474 104.031C43.2961 103.059 43.9447 103.383 44.269 102.086C44.5933 100.788 45.242 97.8695 45.242 97.8695L48.8094 97.5451L57.2416 99.1667C57.2416 99.1667 66.6468 109.545 77.0249 112.788C77.0249 112.788 79.9438 115.707 80.9167 115.707C81.8897 115.707 81.8897 115.707 81.5653 116.355C81.241 117.004 80.2681 117.004 80.9167 117.653C81.5653 118.301 82.5383 117.328 81.8897 118.301C81.241 119.274 80.5924 119.274 81.241 119.923C81.8897 120.572 80.9167 124.139 80.9167 124.463C80.9167 124.788 77.9979 155.273 78.9708 155.922C79.9438 156.571 93.565 158.517 94.538 155.922C95.5109 153.327 93.8893 150.084 93.8893 150.084C93.8893 150.084 98.7541 111.166 97.4568 108.572C96.1596 105.977 91.6191 94.302 67.2954 86.8427C67.2954 86.8427 60.4848 85.5454 60.4848 84.5725C60.4848 83.5996 59.8362 77.4375 58.5389 77.1132C57.2416 76.7889 49.7824 76.4646 49.7824 76.4646L40.3772 79.3834L27.4046 77.1132L20.9183 77.7619Z" fill="#2F2E41"/>
<path d="M32.2691 132.247L30.6475 138.085C30.6475 138.085 29.3503 147.49 30.9718 149.76C32.2456 151.543 34.5197 153.727 38.7374 154.11C39.9194 154.218 41.1031 153.92 42.0925 153.264C43.082 152.609 43.8181 151.635 44.179 150.504C44.2274 150.369 44.2576 150.228 44.2688 150.084C44.2688 149.436 43.2959 141.652 43.2959 141.652L41.6743 133.544L41.35 131.274L32.2691 132.247Z" fill="#2F2E41"/>
<path d="M79.6195 160.138C79.6195 160.138 77.9979 158.517 77.6736 160.138C77.3493 161.76 76.052 168.57 78.3222 168.895C80.5925 169.219 102.322 172.462 104.592 171.165C106.862 169.868 111.078 167.922 108.484 166.949C105.889 165.976 98.4298 163.057 98.4298 163.057C98.4298 163.057 94.2137 157.544 93.5651 157.219C92.9165 156.895 89.349 157.544 87.7274 158.841C86.1058 160.138 79.6195 160.138 79.6195 160.138Z" fill="#2F2E41"/>
<path d="M44.9181 27.493C50.4706 27.493 54.9718 22.9917 54.9718 17.4392C54.9718 11.8866 50.4706 7.38538 44.9181 7.38538C39.3655 7.38538 34.8643 11.8866 34.8643 17.4392C34.8643 22.9917 39.3655 27.493 44.9181 27.493Z" fill="#A0616A"/>
<path d="M43.9448 40.1413L40.053 35.9252L35.7391 27.493C35.7391 27.493 32.5937 26.52 31.9451 28.1416C31.2965 29.7632 19.6211 34.9522 19.6211 34.9522C19.6211 34.9522 22.54 62.1948 21.2427 64.7893C19.9454 67.3838 17.6752 77.7619 19.6211 78.7349C21.567 79.7078 30.6479 78.7349 33.5667 80.0322C36.4855 81.3294 44.9178 81.3294 47.188 79.7078C49.4582 78.0863 50.1068 76.789 52.377 77.7619C54.3097 78.5902 58.8279 50.2726 60.1287 41.8339C60.2383 41.1251 60.1473 40.3999 59.866 39.7401C59.5847 39.0804 59.1243 38.5127 58.5369 38.1011C55.6269 36.0599 50.386 32.5425 49.4582 33.0064C48.1609 33.655 43.9448 40.1413 43.9448 40.1413Z" fill="#D6D6D6"/>
<path d="M57.8905 38.8441C58.6521 39.0345 59.3372 39.4534 59.8538 40.0445C60.3703 40.6356 60.6937 41.3706 60.7804 42.1508L63.4039 65.7623C63.4039 65.7623 56.9176 79.7079 53.6744 70.3028C50.4313 60.8976 57.8905 38.8441 57.8905 38.8441Z" fill="#D6D6D6"/>
<path d="M57.2421 68.0325L64.3771 66.0866C64.3771 66.0866 65.6743 75.1675 66.9716 75.1675C68.2689 75.1675 62.4312 80.3565 59.5123 79.7079C56.5935 79.0592 52.3774 76.789 52.0531 75.1675C51.7288 73.5459 54.9719 66.7352 54.9719 66.7352L57.2421 68.0325Z" fill="#D6D6D6"/>
<path d="M37.3283 21.7763C38.012 20.2689 37.8933 18.5105 38.4585 16.9548C38.7611 16.1218 39.2522 15.37 39.8935 14.7582C40.5347 14.1464 41.3088 13.6912 42.1551 13.428C43.0014 13.1649 43.8971 13.101 44.7722 13.2413C45.6473 13.3816 46.4782 13.7223 47.1998 14.2368C47.9268 14.7552 48.6557 15.4835 49.5432 15.3846C50.4988 15.278 51.3512 14.2119 52.2299 14.6026C53.2037 15.0357 52.9407 16.7809 53.9273 17.1841C54.4466 17.3962 55.0603 17.0695 55.3599 16.5952C55.6218 16.0967 55.7646 15.5443 55.7769 14.9813C55.913 13.5981 56.036 12.1342 55.4361 10.8804C55.1838 10.4554 54.9639 10.012 54.7783 9.55395C54.6734 9.12619 54.6313 8.68543 54.6533 8.24553C54.6478 6.61971 54.5291 4.92385 53.7109 3.5189C52.803 1.95988 51.1247 0.962967 49.3738 0.527972C47.6228 0.092977 45.7885 0.159675 43.9907 0.311864C41.019 0.563449 37.9198 1.10273 35.5784 2.95017C35.2602 3.18265 34.9863 3.47041 34.7698 3.79973C34.5643 4.19095 34.4191 4.61097 34.3391 5.04558C33.8329 7.10697 33.0739 9.09792 32.0794 10.9732C31.601 11.7681 31.21 12.6125 30.9133 13.4916C30.665 14.3849 30.6818 15.4029 31.2015 16.1707C31.6247 16.7958 32.3012 17.129 32.8327 17.64C33.3593 18.1464 33.6057 19.1203 34.1891 19.5038C34.6984 19.8385 35.3084 19.6022 35.8279 19.957C36.4947 20.4125 36.5429 21.4113 37.3283 21.7763Z" fill="#2F2E41"/>
<path d="M45.5664 45.0061L46.5394 43.0602C46.5394 43.0602 60.8093 47.2763 63.7281 51.1681C63.7281 51.1681 70.863 46.6277 74.7548 47.2763L78.6466 47.9249L66.6469 58.6273L51.4041 57.3301L45.5664 45.0061Z" fill="#F2F2F2"/>
<path d="M44.918 43.0602L31.6211 61.5462L50.7557 70.9514C50.7557 70.9514 52.5446 71.9243 53.9204 70.9514L66.6472 65.1137L78.6469 47.9249L66.6472 54.0869C66.6472 54.0869 65.35 51.4924 62.7554 52.7897L44.918 43.0602Z" fill="#2B6CB0"/>
<path d="M65.3501 75.8161L67.9446 69.0054C67.9446 69.0054 73.7823 61.5462 70.5392 57.9787C67.296 54.4112 63.7285 68.3568 63.7285 68.3568L65.3501 75.8161Z" fill="#A0616A"/>
<path d="M35.4141 74.7292L41.0754 70.1395C41.0754 70.1395 49.8676 66.6158 48.852 61.9027C47.8364 57.1896 37.7538 67.4631 37.7538 67.4631L35.4141 74.7292Z" fill="#A0616A"/>
<path opacity="0.1" d="M21.4051 41.925H21.0808C21.0808 41.925 16.0539 35.9251 15.0809 44.033C14.108 52.1409 10.8648 79.0592 19.297 80.0321C27.7292 81.0051 33.7291 75.9782 33.7291 75.9782C33.7291 75.9782 39.8911 66.573 37.6209 66.573C36.5224 66.573 33.535 66.0797 30.8102 66.2487C27.9035 66.429 25.2916 67.2478 25.459 66.4108C25.7833 64.7893 30.4859 44.1952 21.4051 41.925Z" fill="black"/>
<path d="M20.9181 35.6008L19.6209 34.9521C19.6209 34.9521 14.4318 35.9251 13.4588 44.033C12.4859 52.1409 9.24274 79.0591 17.675 80.0321C26.1072 81.005 37.4582 78.7348 37.4582 78.7348C37.4582 78.7348 39.7284 66.4108 37.4582 66.4108C35.188 66.4108 23.5126 68.0324 23.837 66.4108C24.1613 64.7892 29.999 37.871 20.9181 35.6008Z" fill="#D6D6D6"/>
<path d="M60.6475 72.0866L64.2237 66.6053L66.4851 75.6541L60.6475 78.2486V72.0866Z" fill="#D6D6D6"/>
</svg>
