<svg width="203" height="167" viewBox="0 0 203 167" fill="none" xmlns="http://www.w3.org/2000/svg">
<path d="M141.884 40.1404H140.975V15.244C140.975 11.4224 139.457 7.7573 136.755 5.05502C134.053 2.35273 130.388 0.834599 126.566 0.834595H73.8196C69.998 0.834587 66.3329 2.35271 63.6306 5.05498C60.9283 7.75726 59.4102 11.4223 59.4102 15.2439V151.828C59.4102 155.649 60.9283 159.314 63.6306 162.017C66.3328 164.719 69.9979 166.237 73.8195 166.237H126.566C130.388 166.237 134.053 164.719 136.755 162.017C139.457 159.315 140.975 155.649 140.975 151.828V57.8621H141.884L141.884 40.1404Z" fill="#3F3D56"/>
<path d="M137.909 15.3445V151.727C137.909 154.581 136.775 157.319 134.757 159.337C132.739 161.355 130.002 162.489 127.148 162.489H74.148C71.2939 162.489 68.5568 161.355 66.5387 159.337C64.5206 157.319 63.3868 154.581 63.3867 151.727V15.3445C63.3868 12.4905 64.5206 9.75333 66.5387 7.73521C68.5568 5.7171 71.2939 4.58331 74.148 4.58325H80.5775C80.2615 5.3596 80.1412 6.20169 80.2271 7.03545C80.313 7.86921 80.6025 8.66909 81.07 9.36473C81.5376 10.0604 82.169 10.6304 82.9086 11.0248C83.6482 11.4192 84.4733 11.6258 85.3115 11.6264H115.529C116.368 11.6257 117.193 11.4192 117.932 11.0248C118.672 10.6304 119.303 10.0603 119.771 9.36471C120.238 8.66908 120.528 7.8692 120.614 7.03545C120.7 6.20169 120.579 5.3596 120.263 4.58325H127.148C130.002 4.5833 132.739 5.7171 134.757 7.73521C136.775 9.75333 137.909 12.4905 137.909 15.3445Z" fill="white"/>
<path d="M120.835 74.1522C120.482 74.3363 120.124 74.5106 119.76 74.675C119.428 74.8249 119.091 74.9659 118.748 75.0977C118.623 75.1454 118.496 75.1931 118.369 75.2409C117.363 75.6058 116.329 75.8908 115.278 76.0931C114.758 76.1954 114.23 76.2757 113.696 76.334C113.255 76.384 112.81 76.4196 112.36 76.4408C112.039 76.4568 111.719 76.4636 111.396 76.4636C110.118 76.4641 108.843 76.3446 107.587 76.1068C107.26 76.0477 106.939 75.9772 106.619 75.8999C105.069 75.5285 103.568 74.9746 102.149 74.25C102.021 74.1863 101.894 74.1181 101.767 74.0522C101.578 73.9522 101.394 73.8477 101.21 73.7386C101.299 73.6159 101.394 73.4954 101.492 73.3772C102.555 72.0593 103.884 70.9803 105.393 70.2105C106.901 69.4407 108.555 68.9974 110.246 68.9094C111.937 68.8215 113.628 69.091 115.208 69.7002C116.788 70.3095 118.222 71.2449 119.417 72.4454C119.831 72.8614 120.215 73.3065 120.567 73.7772C120.66 73.9 120.748 74.025 120.835 74.1522Z" fill="#0DB3FB"/>
<path d="M111.85 64.1688C117.362 64.1688 121.83 59.7009 121.83 54.1894C121.83 48.678 117.362 44.21 111.85 44.21C106.339 44.21 101.871 48.678 101.871 54.1894C101.871 59.7009 106.339 64.1688 111.85 64.1688Z" fill="#2F2E41"/>
<path d="M114.505 64.183C118.104 62.2155 119.427 57.7026 117.459 54.1032C115.492 50.5039 110.979 49.181 107.38 51.1486C103.78 53.1162 102.457 57.6291 104.425 61.2284C106.393 64.8278 110.905 66.1506 114.505 64.183Z" fill="#A0616A"/>
<path d="M118.746 52.9939C117.049 54.1637 115.035 54.7863 112.973 54.778C113.709 55.2879 114.546 55.6323 115.427 55.7875C112.686 56.3754 109.854 56.3913 107.106 55.8342C106.496 55.7363 105.907 55.5339 105.365 55.236C105.095 55.0852 104.859 54.8792 104.674 54.6315C104.489 54.3837 104.358 54.0998 104.29 53.7981C104.107 52.7553 104.92 51.8078 105.764 51.1693C107.057 50.2066 108.548 49.5433 110.129 49.2274C111.709 48.9115 113.341 48.951 114.904 49.3429C115.925 49.6068 116.948 50.0527 117.611 50.8726C118.274 51.6925 118.471 52.9566 117.839 53.801L118.746 52.9939Z" fill="#2F2E41"/>
<path d="M111.396 35.5549C106.935 35.5542 102.596 37.0121 99.0409 39.7063C95.4855 42.4005 92.9086 46.1832 91.7028 50.478C90.4969 54.7728 90.7284 59.344 92.3618 63.495C93.9953 67.646 96.9412 71.1491 100.75 73.4704L100.882 73.5477C100.991 73.6136 101.1 73.6773 101.21 73.7386C101.394 73.8477 101.578 73.9523 101.766 74.0522C101.894 74.1182 102.021 74.1863 102.148 74.25C103.568 74.9746 105.068 75.5285 106.619 75.9C106.939 75.9772 107.259 76.0477 107.587 76.1068C108.842 76.3447 110.118 76.4641 111.396 76.4636C111.718 76.4636 112.039 76.4568 112.359 76.4409C112.809 76.4204 113.255 76.3848 113.696 76.334C114.23 76.275 114.757 76.1947 115.278 76.0931C116.329 75.8908 117.362 75.6058 118.368 75.2409C118.496 75.1931 118.623 75.1454 118.748 75.0977C119.091 74.9659 119.428 74.825 119.759 74.675C120.123 74.5113 120.481 74.3371 120.834 74.1523C124.372 72.2994 127.297 69.4595 129.252 65.9773C129.261 65.9592 129.273 65.941 129.282 65.9228C130.325 64.0504 131.066 62.0245 131.475 59.9206C132.05 56.9586 131.963 53.9062 131.22 50.9819C130.477 48.0576 129.097 45.3337 127.178 43.0052C125.259 40.6768 122.849 38.8014 120.121 37.5134C117.392 36.2254 114.413 35.5566 111.396 35.5549H111.396ZM128.909 65.6569C128.891 65.6887 128.875 65.7205 128.857 65.7501C126.94 69.1809 124.057 71.9724 120.566 73.7772C120.218 73.9591 119.865 74.1295 119.505 74.2886C119.207 74.4227 118.903 74.55 118.596 74.6682C118.466 74.7182 118.334 74.7682 118.203 74.8136C117.333 75.1311 116.442 75.3863 115.537 75.5772C114.865 75.7203 114.186 75.8272 113.503 75.8977C113.082 75.9431 112.655 75.975 112.225 75.9909C111.95 76.0022 111.673 76.009 111.396 76.009C110.159 76.0105 108.925 75.8956 107.709 75.6659C106.97 75.5295 106.239 75.3504 105.521 75.1295C104.426 74.7913 103.362 74.3602 102.341 73.8409C102.223 73.7795 102.105 73.7182 101.989 73.6545C101.823 73.5659 101.655 73.475 101.491 73.3773C101.369 73.3091 101.246 73.2363 101.125 73.1636C101.055 73.1227 100.984 73.0795 100.914 73.0364C97.5742 70.9853 94.91 67.9988 93.252 64.4474C91.594 60.896 91.0152 56.936 91.5873 53.0587C92.1595 49.1813 93.8574 45.5572 96.4704 42.6361C99.0835 39.7149 102.497 37.6252 106.287 36.6262C110.076 35.6271 114.076 35.7628 117.79 37.0163C121.503 38.2698 124.767 40.586 127.176 43.6775C129.585 46.7691 131.034 50.4998 131.342 54.4071C131.65 58.3143 130.804 62.226 128.909 65.6569H128.909Z" fill="#3F3D56"/>
<path d="M106.796 44.3477C106.689 43.2186 105.305 42.5235 104.224 42.8646C103.142 43.2056 102.432 44.2947 102.217 45.4084C102.114 45.8774 102.104 46.3622 102.189 46.835C102.273 47.3078 102.45 47.7592 102.709 48.1635C103.256 48.9504 104.261 49.4414 105.198 49.2417C106.268 49.0136 107.009 47.969 107.221 46.896C107.433 45.8229 107.222 44.7166 107.012 43.6432L106.796 44.3477Z" fill="#2F2E41"/>
<path d="M122.019 45.9607C121.911 44.8316 120.528 44.1365 119.446 44.4775C118.365 44.8186 117.655 45.9077 117.44 47.0214C117.337 47.4904 117.327 47.9752 117.411 48.448C117.496 48.9207 117.673 49.3722 117.932 49.7764C118.479 50.5633 119.483 51.0544 120.421 50.8546C121.49 50.6266 122.232 49.582 122.444 48.509C122.656 47.4359 122.445 46.3296 122.235 45.2562L122.019 45.9607Z" fill="#2F2E41"/>
<path d="M76.0411 64.1838C75.8996 64.1836 75.7596 64.154 75.6302 64.0966C75.5008 64.0393 75.3848 63.9557 75.2896 63.851L64.012 51.548C63.884 51.4087 63.7285 51.2975 63.5554 51.2213C63.3822 51.1451 63.1952 51.1057 63.006 51.1055H3.41117C2.50678 51.1045 1.63973 50.7447 1.00023 50.1052C0.36073 49.4658 0.0010154 48.5987 0 47.6943V26.203C0.00101479 25.2987 0.36073 24.4316 1.00023 23.7921C1.63973 23.1526 2.50678 22.7929 3.41117 22.7919H80.6207C81.5251 22.7929 82.3922 23.1526 83.0317 23.7921C83.6712 24.4316 84.0309 25.2987 84.0319 26.203V47.6943C84.0309 48.5987 83.6712 49.4658 83.0317 50.1053C82.3922 50.7448 81.5251 51.1045 80.6207 51.1055H78.4318C78.07 51.1059 77.7231 51.2498 77.4673 51.5057C77.2114 51.7615 77.0675 52.1084 77.0671 52.4702V63.1595C77.068 63.3659 77.0061 63.5676 76.8896 63.7379C76.7731 63.9083 76.6075 64.0391 76.4148 64.1131C76.2957 64.1597 76.169 64.1836 76.0411 64.1838Z" fill="white"/>
<path d="M76.0411 64.1838C75.8996 64.1836 75.7596 64.154 75.6302 64.0966C75.5008 64.0393 75.3848 63.9557 75.2896 63.851L64.012 51.548C63.884 51.4087 63.7285 51.2975 63.5554 51.2213C63.3822 51.1451 63.1952 51.1057 63.006 51.1055H3.41117C2.50678 51.1045 1.63973 50.7447 1.00023 50.1052C0.36073 49.4658 0.0010154 48.5987 0 47.6943V26.203C0.00101479 25.2987 0.36073 24.4316 1.00023 23.7921C1.63973 23.1526 2.50678 22.7929 3.41117 22.7919H80.6207C81.5251 22.7929 82.3922 23.1526 83.0317 23.7921C83.6712 24.4316 84.0309 25.2987 84.0319 26.203V47.6943C84.0309 48.5987 83.6712 49.4658 83.0317 50.1053C82.3922 50.7448 81.5251 51.1045 80.6207 51.1055H78.4318C78.07 51.1059 77.7231 51.2498 77.4673 51.5057C77.2114 51.7615 77.0675 52.1084 77.0671 52.4702V63.1595C77.068 63.3659 77.0061 63.5676 76.8896 63.7379C76.7731 63.9083 76.6075 64.0391 76.4148 64.1131C76.2957 64.1597 76.169 64.1836 76.0411 64.1838ZM3.41117 23.2464C2.62729 23.2473 1.87578 23.5591 1.32149 24.1134C0.767209 24.6677 0.455426 25.4192 0.454541 26.203V47.6943C0.455427 48.4782 0.767213 49.2297 1.3215 49.784C1.87578 50.3383 2.62729 50.6501 3.41117 50.6509H63.006C63.2582 50.6512 63.5075 50.7038 63.7383 50.8053C63.9691 50.9069 64.1764 51.0552 64.347 51.2409L75.6246 63.5438C75.702 63.6282 75.8032 63.6874 75.9148 63.7134C76.0264 63.7394 76.1432 63.731 76.25 63.6895C76.3568 63.648 76.4486 63.5751 76.5133 63.4806C76.578 63.386 76.6126 63.2741 76.6126 63.1595V52.4702C76.6131 51.9879 76.805 51.5255 77.146 51.1844C77.4871 50.8433 77.9495 50.6515 78.4318 50.6509H80.6207C81.4046 50.6501 82.1561 50.3383 82.7104 49.784C83.2647 49.2297 83.5765 48.4782 83.5774 47.6943V26.203C83.5765 25.4192 83.2647 24.6677 82.7104 24.1134C82.1561 23.5591 81.4046 23.2473 80.6207 23.2464H3.41117Z" fill="#3F3D56"/>
<path d="M8.36772 32.2723C10.0162 32.2723 11.3526 30.9359 11.3526 29.2874C11.3526 27.6389 10.0162 26.3025 8.36772 26.3025C6.7192 26.3025 5.38281 27.6389 5.38281 29.2874C5.38281 30.9359 6.7192 32.2723 8.36772 32.2723Z" fill="#0DB3FB"/>
<path d="M77.1394 45.8038H6.89463C6.68542 45.8041 6.4782 45.7631 6.28484 45.6832C6.09148 45.6033 5.91576 45.4861 5.76773 45.3382C5.6197 45.1904 5.50227 45.0148 5.42214 44.8215C5.34202 44.6283 5.30078 44.4211 5.30078 44.2119C5.30078 44.0027 5.34202 43.7955 5.42214 43.6022C5.50227 43.409 5.6197 43.2334 5.76773 43.0855C5.91576 42.9377 6.09148 42.8205 6.28484 42.7406C6.4782 42.6607 6.68542 42.6197 6.89463 42.6199H77.1394C77.5613 42.6204 77.9657 42.7884 78.2639 43.0869C78.562 43.3854 78.7295 43.79 78.7295 44.2119C78.7295 44.6338 78.562 45.0384 78.2639 45.3369C77.9657 45.6354 77.5613 45.8033 77.1394 45.8038Z" fill="#E6E6E6"/>
<path d="M54.2551 39.0381H6.89463C6.68542 39.0383 6.4782 38.9973 6.28484 38.9175C6.09148 38.8376 5.91576 38.7203 5.76773 38.5725C5.6197 38.4246 5.50227 38.2491 5.42214 38.0558C5.34202 37.8625 5.30078 37.6554 5.30078 37.4461C5.30078 37.2369 5.34202 37.0298 5.42214 36.8365C5.50227 36.6432 5.6197 36.4676 5.76773 36.3198C5.91576 36.1719 6.09148 36.0547 6.28484 35.9748C6.4782 35.8949 6.68542 35.8539 6.89463 35.8542H54.2551C54.6774 35.8542 55.0823 36.0219 55.3808 36.3205C55.6794 36.619 55.8471 37.0239 55.8471 37.4461C55.8471 37.8684 55.6794 38.2733 55.3808 38.5718C55.0823 38.8704 54.6774 39.0381 54.2551 39.0381Z" fill="#E6E6E6"/>
<path d="M126.15 137.067C125.958 136.993 125.792 136.862 125.676 136.692C125.559 136.522 125.497 136.32 125.498 136.113V125.424C125.498 125.062 125.354 124.715 125.098 124.46C124.842 124.204 124.495 124.06 124.133 124.059H121.944C121.04 124.058 120.173 123.699 119.533 123.059C118.894 122.42 118.534 121.553 118.533 120.648V99.157C118.534 98.2526 118.894 97.3855 119.533 96.746C120.173 96.1065 121.04 95.7468 121.944 95.7458H199.154C200.058 95.7468 200.925 96.1065 201.565 96.746C202.204 97.3855 202.564 98.2526 202.565 99.157V120.648C202.564 121.553 202.204 122.42 201.565 123.059C200.925 123.699 200.058 124.058 199.154 124.059H139.559C139.37 124.06 139.183 124.099 139.01 124.175C138.837 124.251 138.681 124.363 138.553 124.502L127.276 136.805C127.18 136.91 127.064 136.993 126.935 137.051C126.805 137.108 126.666 137.138 126.524 137.138C126.396 137.138 126.269 137.114 126.15 137.067Z" fill="white"/>
<path d="M126.15 137.067C125.958 136.993 125.792 136.862 125.676 136.692C125.559 136.522 125.497 136.32 125.498 136.113V125.424C125.498 125.062 125.354 124.715 125.098 124.46C124.842 124.204 124.495 124.06 124.133 124.059H121.944C121.04 124.058 120.173 123.699 119.533 123.059C118.894 122.42 118.534 121.553 118.533 120.648V99.157C118.534 98.2526 118.894 97.3855 119.533 96.746C120.173 96.1065 121.04 95.7468 121.944 95.7458H199.154C200.058 95.7468 200.925 96.1065 201.565 96.746C202.204 97.3855 202.564 98.2526 202.565 99.157V120.648C202.564 121.553 202.204 122.42 201.565 123.059C200.925 123.699 200.058 124.058 199.154 124.059H139.559C139.37 124.06 139.183 124.099 139.01 124.175C138.837 124.251 138.681 124.363 138.553 124.502L127.276 136.805C127.18 136.91 127.064 136.993 126.935 137.051C126.805 137.108 126.666 137.138 126.524 137.138C126.396 137.138 126.269 137.114 126.15 137.067ZM121.944 96.2003C121.16 96.2012 120.409 96.513 119.855 97.0673C119.3 97.6216 118.989 98.3731 118.988 99.157V120.648C118.989 121.432 119.3 122.184 119.855 122.738C120.409 123.292 121.16 123.604 121.944 123.605H124.133C124.616 123.605 125.078 123.797 125.419 124.138C125.76 124.479 125.952 124.942 125.953 125.424V136.113C125.953 136.228 125.987 136.34 126.052 136.434C126.117 136.529 126.208 136.602 126.315 136.643C126.422 136.685 126.539 136.693 126.65 136.667C126.762 136.641 126.863 136.582 126.94 136.498L138.218 124.195C138.389 124.009 138.596 123.861 138.827 123.759C139.058 123.658 139.307 123.605 139.559 123.605H199.154C199.938 123.604 200.689 123.292 201.244 122.738C201.798 122.184 202.11 121.432 202.111 120.648V99.157C202.11 98.3731 201.798 97.6216 201.244 97.0673C200.689 96.513 199.938 96.2012 199.154 96.2003H121.944Z" fill="#3F3D56"/>
<path d="M102.086 143.722C98.9195 145.749 95.2511 146.855 91.4919 146.915C87.7326 146.975 84.0309 145.986 80.8018 144.061C81.3698 143.003 82.0896 142.035 82.9382 141.186C84.2475 139.87 85.841 138.872 87.5962 138.269C89.3514 137.665 91.2217 137.472 93.0632 137.704C94.9048 137.936 96.6686 138.587 98.2193 139.607C99.77 140.627 101.066 141.989 102.008 143.588C102.033 143.631 102.061 143.677 102.086 143.722Z" fill="#0DB3FB"/>
<path d="M90.5535 132.854C96.1016 132.854 100.599 128.356 100.599 122.808C100.599 117.26 96.1016 112.762 90.5535 112.762C85.0054 112.762 80.5078 117.26 80.5078 122.808C80.5078 128.356 85.0054 132.854 90.5535 132.854Z" fill="#2F2E41"/>
<path d="M98.0296 129.894C100.01 126.271 98.6787 121.728 95.0554 119.747C91.4321 117.766 86.8892 119.098 84.9086 122.721C82.9279 126.344 84.2595 130.887 87.8828 132.868C91.5061 134.849 96.049 133.517 98.0296 129.894Z" fill="#FFB8B8"/>
<path d="M83.6133 121.605C85.3218 122.782 87.3497 123.409 89.4248 123.401C88.6846 123.914 87.8419 124.261 86.9549 124.417C89.7138 125.009 92.5652 125.025 95.3306 124.464C95.9453 124.365 96.5384 124.162 97.0839 123.862C97.3558 123.71 97.5926 123.503 97.7791 123.253C97.9656 123.004 98.0974 122.718 98.1662 122.414C98.3499 121.365 97.5319 120.411 96.6819 119.768C95.3803 118.799 93.8796 118.131 92.2884 117.813C90.6971 117.495 89.0551 117.535 87.4811 117.929C86.4533 118.195 85.4237 118.644 84.7561 119.469C84.0885 120.295 83.8908 121.567 84.5268 122.417L83.6133 121.605Z" fill="#2F2E41"/>
<path d="M91.1683 147.145C86.2484 147.143 81.4941 145.368 77.7773 142.144C74.0605 138.921 71.6305 134.466 70.9331 129.595C70.2357 124.725 71.3175 119.767 73.9803 115.63C76.643 111.493 80.708 108.455 85.4297 107.072C90.1514 105.69 95.2132 106.057 99.6865 108.105C104.16 110.152 107.745 113.745 109.784 118.222C111.823 122.7 112.179 127.762 110.787 132.481C109.396 137.2 106.349 141.259 102.207 143.913C98.9129 146.025 95.0814 147.147 91.1683 147.145ZM91.1683 106.691C87.2121 106.69 83.3447 107.863 80.0552 110.061C76.7656 112.258 74.2017 115.382 72.6876 119.037C71.1734 122.692 70.7772 126.714 71.5489 130.594C72.3206 134.474 74.2256 138.038 77.023 140.836C79.8204 143.633 83.3846 145.538 87.2647 146.31C91.1448 147.081 95.1667 146.685 98.8216 145.171C102.476 143.657 105.6 141.093 107.798 137.803C109.996 134.514 111.168 130.646 111.168 126.69C111.162 121.388 109.053 116.304 105.304 112.555C101.554 108.806 96.4707 106.697 91.1683 106.691Z" fill="#3F3D56"/>
<path d="M128.139 104.999C129.788 104.999 131.124 103.662 131.124 102.014C131.124 100.365 129.788 99.0291 128.139 99.0291C126.491 99.0291 125.154 100.365 125.154 102.014C125.154 103.662 126.491 104.999 128.139 104.999Z" fill="#0DB3FB"/>
<path d="M196.91 118.53H126.665C126.456 118.531 126.249 118.49 126.055 118.41C125.862 118.33 125.686 118.213 125.538 118.065C125.39 117.917 125.273 117.741 125.193 117.548C125.113 117.355 125.071 117.148 125.071 116.939C125.071 116.729 125.113 116.522 125.193 116.329C125.273 116.136 125.39 115.96 125.538 115.812C125.686 115.664 125.862 115.547 126.055 115.467C126.249 115.387 126.456 115.346 126.665 115.347H196.91C197.332 115.347 197.737 115.514 198.036 115.813C198.334 116.111 198.502 116.516 198.502 116.939C198.502 117.361 198.334 117.766 198.036 118.064C197.737 118.363 197.332 118.53 196.91 118.53Z" fill="#E6E6E6"/>
<path d="M174.026 111.765H126.665C126.456 111.765 126.249 111.724 126.055 111.644C125.862 111.564 125.686 111.447 125.538 111.299C125.39 111.151 125.273 110.976 125.193 110.782C125.113 110.589 125.071 110.382 125.071 110.173C125.071 109.964 125.113 109.756 125.193 109.563C125.273 109.37 125.39 109.194 125.538 109.046C125.686 108.899 125.862 108.781 126.055 108.701C126.249 108.622 126.456 108.581 126.665 108.581H174.026C174.448 108.581 174.852 108.749 175.15 109.048C175.448 109.346 175.616 109.751 175.616 110.173C175.616 110.595 175.448 110.999 175.15 111.298C174.852 111.596 174.448 111.764 174.026 111.765Z" fill="#E6E6E6"/>
<path d="M126.054 139.102C129.13 139.102 131.623 138.825 131.623 138.484C131.623 138.142 129.13 137.865 126.054 137.865C122.979 137.865 120.485 138.142 120.485 138.484C120.485 138.825 122.979 139.102 126.054 139.102Z" fill="#F2F2F2"/>
<path d="M76.2819 66.375C79.3576 66.375 81.8509 66.0983 81.8509 65.7569C81.8509 65.4156 79.3576 65.1389 76.2819 65.1389C73.2062 65.1389 70.7129 65.4156 70.7129 65.7569C70.7129 66.0983 73.2062 66.375 76.2819 66.375Z" fill="#F2F2F2"/>
</svg>
