<svg width="232" height="272" viewBox="0 0 232 272" fill="none" xmlns="http://www.w3.org/2000/svg">
<g filter="url(#filter0_f_0_1)">
<ellipse cx="128" cy="241.5" rx="77" ry="3.5" fill="#1195CF" fill-opacity="0.5"/>
</g>
<path d="M185.9 83.2808C173.729 74.1826 154.668 65.5781 133.603 59.674C114.423 54.298 95.7156 51.7025 80.9227 52.3653L80.8457 50.645C95.8148 49.9746 114.716 52.5919 134.068 58.0159C155.329 63.9752 174.597 72.6812 186.931 81.9017L185.9 83.2808Z" fill="#3F3D56"/>
<path d="M184.636 90.2888C184.647 98.3497 182.957 106.322 179.677 113.685C179.403 114.302 179.118 114.913 178.821 115.518C173.116 127.203 163.619 136.611 151.881 142.206C140.142 147.802 126.854 149.254 114.183 146.327C101.513 143.4 90.208 136.267 82.1127 126.09C74.0174 115.913 69.6093 103.293 69.6074 90.2888C69.6074 88.9577 69.6528 87.637 69.7434 86.3265C69.7865 85.6601 69.8422 84.9977 69.9105 84.3394C71.4357 69.6801 78.5301 56.1657 89.7296 46.585C100.929 37.0042 115.379 32.0883 130.098 32.8515C144.816 33.6148 158.68 39.9991 168.829 50.6869C178.977 61.3747 184.636 75.5504 184.636 90.2888H184.636Z" fill="#F2F2F2"/>
<path opacity="0.1" d="M179.678 113.685C179.404 114.302 179.119 114.913 178.822 115.518C177.141 115.7 175.372 115.833 173.515 115.915C171.977 115.984 170.394 116.019 168.778 116.019C154.654 116.019 137.656 113.412 120.291 108.545C100.94 103.121 83.4322 95.534 70.9926 87.1806C70.569 86.8965 70.1528 86.6118 69.7441 86.3265C69.7872 85.6601 69.8429 84.9977 69.9112 84.3394C70.5707 84.8095 71.2509 85.2801 71.9517 85.7514C84.245 94.0049 101.577 101.511 120.756 106.887C137.969 111.712 154.807 114.297 168.769 114.297C170.365 114.297 171.921 114.263 173.437 114.195C175.645 114.095 177.725 113.925 179.678 113.685Z" fill="black"/>
<path d="M168.778 114.641C154.654 114.642 137.656 112.034 120.292 107.168C100.94 101.744 83.432 94.1563 70.9922 85.8032C58.2928 77.2757 52.3378 68.8731 54.2241 62.1432C56.1103 55.4133 65.565 51.3298 80.8465 50.645L80.9235 52.3653C73.7872 52.6851 67.9715 53.7458 63.6378 55.5179C59.3147 57.2856 56.7053 59.6711 55.8821 62.6081C55.059 65.5449 56.0484 68.9391 58.823 72.6963C61.6043 76.4625 66.0216 80.3913 71.9521 84.3736C84.244 92.6275 101.576 100.134 120.757 105.51C137.97 110.334 154.806 112.92 168.769 112.92C170.365 112.92 171.92 112.886 173.437 112.818C180.573 112.498 186.389 111.438 190.722 109.666C195.046 107.898 197.655 105.512 198.478 102.575C199.956 97.3019 195.489 90.4496 185.9 83.2809L186.932 81.9018C191.866 85.5907 195.519 89.227 197.788 92.7093C200.221 96.4427 201.011 99.9186 200.136 103.04C198.25 109.77 188.795 113.853 173.514 114.538C171.976 114.607 170.395 114.641 168.778 114.641Z" fill="#3F3D56"/>
<path d="M128.643 22.4015C129.007 22.4015 129.303 22.1064 129.303 21.7424C129.303 21.3784 129.007 21.0834 128.643 21.0834C128.279 21.0834 127.984 21.3784 127.984 21.7424C127.984 22.1064 128.279 22.4015 128.643 22.4015Z" fill="#F2F2F2"/>
<path d="M41.208 51.0003C41.8342 51.0003 42.3418 50.4927 42.3418 49.8665C42.3418 49.2403 41.8342 48.7327 41.208 48.7327C40.5818 48.7327 40.0742 49.2403 40.0742 49.8665C40.0742 50.4927 40.5818 51.0003 41.208 51.0003Z" fill="#CCCCCC"/>
<path d="M38.7916 96.4831C40.0286 96.4831 41.0314 95.4803 41.0314 94.2432C41.0314 93.0062 40.0286 92.0034 38.7916 92.0034C37.5546 92.0034 36.5518 93.0062 36.5518 94.2432C36.5518 95.4803 37.5546 96.4831 38.7916 96.4831Z" fill="#CCCCCC"/>
<path d="M173.24 27.1897C174.064 27.1897 174.733 26.5213 174.733 25.6969C174.733 24.8724 174.064 24.2041 173.24 24.2041C172.415 24.2041 171.747 24.8724 171.747 25.6969C171.747 26.5213 172.415 27.1897 173.24 27.1897Z" fill="#CCCCCC"/>
<path d="M226.184 90.0763C227.523 90.0763 228.608 88.9911 228.608 87.6526C228.608 86.314 227.523 85.2289 226.184 85.2289C224.846 85.2289 223.761 86.314 223.761 87.6526C223.761 88.9911 224.846 90.0763 226.184 90.0763Z" fill="#CCCCCC"/>
<path d="M207.232 49.982C207.807 49.982 208.272 49.5164 208.272 48.9421C208.272 48.3678 207.807 47.9022 207.232 47.9022C206.658 47.9022 206.192 48.3678 206.192 48.9421C206.192 49.5164 206.658 49.982 207.232 49.982Z" fill="#CCCCCC"/>
<path d="M80.9719 37.2049C81.8678 37.2049 82.5941 36.4786 82.5941 35.5827C82.5941 34.6868 81.8678 33.9604 80.9719 33.9604C80.0759 33.9604 79.3496 34.6868 79.3496 35.5827C79.3496 36.4786 80.0759 37.2049 80.9719 37.2049Z" fill="#CCCCCC"/>
<path d="M203.593 83.778C204.167 83.778 204.632 83.3124 204.632 82.7381C204.632 82.1638 204.167 81.6982 203.593 81.6982C203.018 81.6982 202.553 82.1638 202.553 82.7381C202.553 83.3124 203.018 83.778 203.593 83.778Z" fill="#CCCCCC"/>
<path d="M1.29426 87.8584C2.00907 87.8584 2.58853 87.279 2.58853 86.5642C2.58853 85.8494 2.00907 85.2699 1.29426 85.2699C0.579462 85.2699 0 85.8494 0 86.5642C0 87.279 0.579462 87.8584 1.29426 87.8584Z" fill="#CCCCCC"/>
<path d="M20.9563 66.6663C21.7304 66.6663 22.3579 66.0387 22.3579 65.2646C22.3579 64.4906 21.7304 63.863 20.9563 63.863C20.1822 63.863 19.5547 64.4906 19.5547 65.2646C19.5547 66.0387 20.1822 66.6663 20.9563 66.6663Z" fill="#CCCCCC"/>
<path d="M110.952 2.76579H108.187V0H106.703V2.76579H103.936V4.25108H106.703V7.01688H108.187V4.25108H110.952V2.76579Z" fill="#CCCCCC"/>
<path d="M175.113 152.429H173.376V150.693H172.445V152.429H170.708V153.361H172.445V155.098H173.376V153.361H175.113V152.429Z" fill="#CCCCCC"/>
<path d="M215.199 143.54H213.901V142.241H213.203V143.54H211.905V144.237H213.203V145.535H213.901V144.237H215.199V143.54Z" fill="#CCCCCC"/>
<path opacity="0.1" d="M90.8575 85.4557C93.5268 85.4557 95.6906 83.2919 95.6906 80.6226C95.6906 77.9534 93.5268 75.7896 90.8575 75.7896C88.1883 75.7896 86.0244 77.9534 86.0244 80.6226C86.0244 83.2919 88.1883 85.4557 90.8575 85.4557Z" fill="black"/>
<path opacity="0.1" d="M144.241 134.006C146.911 134.006 149.074 131.843 149.074 129.173C149.074 126.504 146.911 124.34 144.241 124.34C141.572 124.34 139.408 126.504 139.408 129.173C139.408 131.843 141.572 134.006 144.241 134.006Z" fill="black"/>
<path opacity="0.1" d="M127.984 92.925C130.654 92.925 132.818 90.7611 132.818 88.0919C132.818 85.4226 130.654 83.2588 127.984 83.2588C125.315 83.2588 123.151 85.4226 123.151 88.0919C123.151 90.7611 125.315 92.925 127.984 92.925Z" fill="black"/>
<path opacity="0.1" d="M93.2745 119.507C95.9437 119.507 98.1076 117.343 98.1076 114.674C98.1076 112.005 95.9437 109.841 93.2745 109.841C90.6053 109.841 88.4414 112.005 88.4414 114.674C88.4414 117.343 90.6053 119.507 93.2745 119.507Z" fill="black"/>
<path opacity="0.1" d="M153.907 67.002C156.577 67.002 158.74 64.8382 158.74 62.1689C158.74 59.4997 156.577 57.3358 153.907 57.3358C151.238 57.3358 149.074 59.4997 149.074 62.1689C149.074 64.8382 151.238 67.002 153.907 67.002Z" fill="black"/>
<path opacity="0.1" d="M169.944 99.7353C172.614 99.7353 174.778 97.5715 174.778 94.9022C174.778 92.2329 172.614 90.0691 169.944 90.0691C167.275 90.0691 165.111 92.2329 165.111 94.9022C165.111 97.5715 167.275 99.7353 169.944 99.7353Z" fill="black"/>
<path d="M153.908 48.3287C157.427 48.3287 160.279 45.4764 160.279 41.9578C160.279 38.4393 157.427 35.5869 153.908 35.5869C150.389 35.5869 147.537 38.4393 147.537 41.9578C147.537 45.4764 150.389 48.3287 153.908 48.3287Z" fill="white"/>
<path d="M153.908 32.731C151.519 32.731 149.228 33.6799 147.539 35.3691C145.849 37.0583 144.9 39.3492 144.9 41.7381C144.9 46.7126 153.908 63.0477 153.908 63.0477C153.908 63.0477 162.915 46.7126 162.915 41.7381C162.915 39.3492 161.966 37.0583 160.277 35.3691C158.587 33.6799 156.296 32.731 153.908 32.731ZM153.908 46.1318C153.082 46.1318 152.275 45.887 151.589 45.4284C150.902 44.9697 150.367 44.3178 150.051 43.5551C149.735 42.7924 149.653 41.9531 149.814 41.1434C149.975 40.3338 150.372 39.59 150.956 39.0063C151.54 38.4225 152.284 38.025 153.093 37.8639C153.903 37.7029 154.742 37.7855 155.505 38.1015C156.268 38.4174 156.919 38.9524 157.378 39.6388C157.837 40.3252 158.082 41.1322 158.082 41.9578C158.082 42.5059 157.974 43.0487 157.764 43.5551C157.554 44.0615 157.247 44.5217 156.859 44.9093C156.471 45.2969 156.011 45.6043 155.505 45.8141C154.998 46.0239 154.456 46.1318 153.908 46.1318Z" fill="#0DB3FB"/>
<path d="M90.8328 65.6095C94.3514 65.6095 97.2037 62.7571 97.2037 59.2386C97.2037 55.72 94.3514 52.8677 90.8328 52.8677C87.3143 52.8677 84.4619 55.72 84.4619 59.2386C84.4619 62.7571 87.3143 65.6095 90.8328 65.6095Z" fill="white"/>
<path d="M90.8323 50.0118C88.4435 50.0118 86.1525 50.9608 84.4633 52.65C82.7742 54.3391 81.8252 56.6301 81.8252 59.019C81.8252 63.9935 90.8323 80.3286 90.8323 80.3286C90.8323 80.3286 99.8394 63.9935 99.8394 59.019C99.8394 56.6301 98.8905 54.3391 97.2013 52.65C95.5122 50.9608 93.2212 50.0118 90.8323 50.0118ZM90.8323 63.4127C90.0068 63.4127 89.1998 63.1679 88.5133 62.7093C87.8269 62.2506 87.2919 61.5987 86.976 60.836C86.6601 60.0733 86.5774 59.234 86.7385 58.4243C86.8995 57.6146 87.2971 56.8709 87.8808 56.2871C88.4646 55.7034 89.2083 55.3059 90.018 55.1448C90.8277 54.9837 91.667 55.0664 92.4297 55.3823C93.1924 55.6983 93.8443 56.2333 94.3029 56.9197C94.7616 57.6061 95.0064 58.4131 95.0064 59.2387C95.0064 59.7868 94.8984 60.3296 94.6887 60.836C94.4789 61.3424 94.1714 61.8026 93.7838 62.1902C93.3962 62.5778 92.9361 62.8852 92.4297 63.095C91.9232 63.3048 91.3805 63.4127 90.8323 63.4127Z" fill="#3F3D56"/>
<path d="M170.757 80.2982C174.275 80.2982 177.128 77.4459 177.128 73.9273C177.128 70.4088 174.275 67.5564 170.757 67.5564C167.238 67.5564 164.386 70.4088 164.386 73.9273C164.386 77.4459 167.238 80.2982 170.757 80.2982Z" fill="white"/>
<path d="M170.756 64.7004C168.367 64.7004 166.076 65.6494 164.387 67.3386C162.698 69.0277 161.749 71.3187 161.749 73.7076C161.749 78.6821 170.756 95.0171 170.756 95.0171C170.756 95.0171 179.763 78.6821 179.763 73.7076C179.763 71.3187 178.814 69.0277 177.125 67.3386C175.436 65.6494 173.145 64.7004 170.756 64.7004ZM170.756 78.1013C169.931 78.1013 169.124 77.8565 168.437 77.3979C167.751 76.9392 167.216 76.2873 166.9 75.5246C166.584 74.7619 166.501 73.9226 166.662 73.1129C166.823 72.3032 167.221 71.5595 167.805 70.9757C168.388 70.392 169.132 69.9945 169.942 69.8334C170.752 69.6723 171.591 69.755 172.354 70.0709C173.116 70.3869 173.768 70.9219 174.227 71.6083C174.685 72.2947 174.93 73.1017 174.93 73.9273C174.93 74.4754 174.822 75.0182 174.612 75.5246C174.403 76.031 174.095 76.4912 173.708 76.8788C173.32 77.2664 172.86 77.5738 172.353 77.7836C171.847 77.9934 171.304 78.1013 170.756 78.1013Z" fill="#CCCCCC"/>
<path d="M62.7508 112.268C66.2694 112.268 69.1217 109.415 69.1217 105.897C69.1217 102.378 66.2694 99.5259 62.7508 99.5259C59.2322 99.5259 56.3799 102.378 56.3799 105.897C56.3799 109.415 59.2322 112.268 62.7508 112.268Z" fill="white"/>
<path d="M62.7513 96.67C60.3624 96.67 58.0714 97.619 56.3823 99.3082C54.6931 100.997 53.7441 103.288 53.7441 105.677C53.7441 110.652 62.7513 126.987 62.7513 126.987C62.7513 126.987 71.7584 110.652 71.7584 105.677C71.7584 103.288 70.8094 100.997 69.1202 99.3082C67.4311 97.619 65.1401 96.67 62.7513 96.67ZM62.7513 110.071C61.9257 110.071 61.1187 109.826 60.4323 109.367C59.7459 108.909 59.2109 108.257 58.8949 107.494C58.579 106.731 58.4964 105.892 58.6574 105.083C58.8185 104.273 59.216 103.529 59.7998 102.945C60.3835 102.362 61.1273 101.964 61.937 101.803C62.7466 101.642 63.5859 101.725 64.3486 102.041C65.1113 102.356 65.7632 102.891 66.2219 103.578C66.6805 104.264 66.9253 105.071 66.9253 105.897C66.9253 106.445 66.8174 106.988 66.6076 107.494C66.3978 108.001 66.0904 108.461 65.7028 108.848C65.3152 109.236 64.855 109.543 64.3486 109.753C63.8422 109.963 63.2994 110.071 62.7513 110.071Z" fill="#0DB3FB"/>
<path d="M209.396 157.052C210.633 156.017 208.962 151.984 205.664 148.045C202.365 144.105 198.689 141.751 197.452 142.787C196.215 143.822 197.887 147.855 201.185 151.794C204.483 155.734 208.16 158.088 209.396 157.052Z" fill="#2F2E41"/>
<path d="M183.634 165.295C193.91 165.295 202.24 156.965 202.24 146.689C202.24 136.413 193.91 128.083 183.634 128.083C173.358 128.083 165.028 136.413 165.028 146.689C165.028 156.965 173.358 165.295 183.634 165.295Z" fill="#2F2E41"/>
<path d="M191.51 161.291H185.857V171.418H191.51V161.291Z" fill="#2F2E41"/>
<path d="M180.204 161.291H174.552V171.418H180.204V161.291Z" fill="#2F2E41"/>
<path d="M186.799 173.302C189.401 173.302 191.51 172.512 191.51 171.536C191.51 170.56 189.401 169.77 186.799 169.77C184.198 169.77 182.089 170.56 182.089 171.536C182.089 172.512 184.198 173.302 186.799 173.302Z" fill="#2F2E41"/>
<path d="M175.495 173.067C178.096 173.067 180.205 172.276 180.205 171.3C180.205 170.325 178.096 169.534 175.495 169.534C172.893 169.534 170.784 170.325 170.784 171.3C170.784 172.276 172.893 173.067 175.495 173.067Z" fill="#2F2E41"/>
<path d="M177.792 123.301C179.454 116.61 186.787 112.673 194.172 114.506C201.557 116.34 206.197 123.251 204.536 129.941C202.875 136.632 197.363 136.654 189.978 134.82C182.593 132.986 176.131 129.991 177.792 123.301Z" fill="#0DB3FB"/>
<path d="M171.083 142.042C171.774 140.585 168.571 137.619 163.929 135.417C159.287 133.215 154.963 132.612 154.272 134.069C153.581 135.526 156.784 138.493 161.426 140.694C166.068 142.896 170.392 143.499 171.083 142.042Z" fill="#2F2E41"/>
<path d="M180.853 148.966C184.279 148.966 187.056 146.189 187.056 142.763C187.056 139.337 184.279 136.56 180.853 136.56C177.427 136.56 174.649 139.337 174.649 142.763C174.649 146.189 177.427 148.966 180.853 148.966Z" fill="white"/>
<path d="M178.303 142.607C179.445 142.607 180.371 141.681 180.371 140.539C180.371 139.397 179.445 138.472 178.303 138.472C177.161 138.472 176.235 139.397 176.235 140.539C176.235 141.681 177.161 142.607 178.303 142.607Z" fill="#3F3D56"/>
<path d="M184.744 155.687C184.841 156.221 184.832 156.769 184.718 157.3C184.603 157.831 184.385 158.334 184.076 158.781C183.767 159.227 183.373 159.609 182.917 159.903C182.46 160.197 181.95 160.399 181.416 160.496C180.882 160.593 180.333 160.585 179.803 160.47C179.272 160.355 178.769 160.137 178.322 159.828C177.876 159.519 177.494 159.125 177.2 158.669C176.906 158.212 176.704 157.703 176.607 157.168L176.605 157.16C176.198 154.913 177.936 154.118 180.183 153.711C182.431 153.304 184.337 153.439 184.744 155.687Z" fill="white"/>
<path d="M145.316 107.162C143.402 105.547 141.06 104.524 138.575 104.215C136.091 103.907 133.57 104.328 131.32 105.426C129.069 106.525 127.187 108.254 125.902 110.402C124.616 112.551 123.983 115.027 124.079 117.529C124.175 120.031 124.996 122.452 126.443 124.495C127.889 126.539 129.898 128.119 132.226 129.041C134.554 129.964 137.1 130.19 139.554 129.693C142.007 129.195 144.264 127.994 146.048 126.238L161.892 139.607C162.133 139.81 162.445 139.91 162.759 139.883C163.074 139.857 163.365 139.706 163.568 139.465C163.772 139.225 163.872 138.913 163.846 138.598C163.819 138.284 163.669 137.993 163.429 137.789L163.427 137.787L147.583 124.418C149.424 121.777 150.212 118.543 149.792 115.351C149.373 112.159 147.776 109.238 145.316 107.162ZM144.294 123.131C143.06 124.594 141.42 125.658 139.581 126.188C137.742 126.719 135.787 126.692 133.963 126.112C132.139 125.531 130.529 124.423 129.335 122.927C128.141 121.431 127.417 119.614 127.256 117.707C127.094 115.8 127.502 113.888 128.427 112.212C129.352 110.537 130.753 109.173 132.454 108.294C134.154 107.415 136.076 107.06 137.978 107.274C139.88 107.487 141.676 108.26 143.139 109.494C145.101 111.149 146.324 113.516 146.541 116.073C146.758 118.631 145.949 121.17 144.294 123.131Z" fill="#3F3D56"/>
<path opacity="0.3" d="M130.658 124.286C128.802 122.72 127.602 120.512 127.298 118.102C126.994 115.692 127.607 113.256 129.016 111.277C128.831 111.463 128.652 111.659 128.479 111.863C127.66 112.834 127.04 113.957 126.654 115.168C126.269 116.379 126.126 117.654 126.233 118.92C126.34 120.186 126.696 121.419 127.279 122.548C127.863 123.677 128.663 124.68 129.635 125.499C130.606 126.319 131.729 126.939 132.94 127.325C134.151 127.71 135.426 127.853 136.692 127.746C137.959 127.639 139.191 127.283 140.32 126.699C141.449 126.116 142.452 125.315 143.271 124.344C143.444 124.14 143.606 123.931 143.758 123.717C142.045 125.438 139.746 126.453 137.319 126.558C134.893 126.664 132.515 125.853 130.658 124.286Z" fill="black"/>
<path d="M63.9318 133.681C65.7661 128.882 66.0318 124.525 64.5252 123.949C63.0185 123.373 60.3101 126.797 58.4757 131.596C56.6414 136.395 56.3757 140.753 57.8823 141.328C59.3889 141.904 62.0974 138.481 63.9318 133.681Z" fill="#2F2E41"/>
<path d="M44.0064 165.295C54.2822 165.295 62.6123 156.965 62.6123 146.689C62.6123 136.413 54.2822 128.083 44.0064 128.083C33.7306 128.083 25.4004 136.413 25.4004 146.689C25.4004 156.965 33.7306 165.295 44.0064 165.295Z" fill="#2F2E41"/>
<path d="M41.1798 161.291H35.5273V171.418H41.1798V161.291Z" fill="#2F2E41"/>
<path d="M52.4855 161.291H46.833V171.418H52.4855V161.291Z" fill="#2F2E41"/>
<path d="M40.2377 173.302C42.8392 173.302 44.9481 172.512 44.9481 171.536C44.9481 170.56 42.8392 169.77 40.2377 169.77C37.6363 169.77 35.5273 170.56 35.5273 171.536C35.5273 172.512 37.6363 173.302 40.2377 173.302Z" fill="#2F2E41"/>
<path d="M51.5434 173.067C54.1449 173.067 56.2538 172.276 56.2538 171.3C56.2538 170.325 54.1449 169.534 51.5434 169.534C48.9419 169.534 46.833 170.325 46.833 171.3C46.833 172.276 48.9419 173.067 51.5434 173.067Z" fill="#2F2E41"/>
<path d="M44.4772 148.337C47.9891 148.337 50.8362 145.49 50.8362 141.978C50.8362 138.466 47.9891 135.619 44.4772 135.619C40.9652 135.619 38.1182 138.466 38.1182 141.978C38.1182 145.49 40.9652 148.337 44.4772 148.337Z" fill="white"/>
<path d="M44.4771 144.098C45.6478 144.098 46.5968 143.149 46.5968 141.978C46.5968 140.808 45.6478 139.859 44.4771 139.859C43.3064 139.859 42.3574 140.808 42.3574 141.978C42.3574 143.149 43.3064 144.098 44.4771 144.098Z" fill="#3F3D56"/>
<path d="M25.9577 129.386C24.4553 122.658 29.2577 115.859 36.6841 114.201C44.1106 112.542 51.3487 116.653 52.8511 123.381C54.3534 130.109 49.4317 132.59 42.0053 134.249C34.5789 135.907 27.46 136.114 25.9577 129.386Z" fill="#0DB3FB"/>
<path d="M31.4551 142.042C32.1463 140.585 28.9434 137.619 24.3011 135.417C19.6589 133.215 15.3353 132.612 14.6441 134.069C13.9529 135.526 17.1559 138.493 21.7981 140.694C26.4403 142.896 30.7639 143.5 31.4551 142.042Z" fill="#2F2E41"/>
<path d="M34.8672 153.401C34.8672 155.222 39.556 158.818 44.759 158.818C49.9619 158.818 54.8402 153.691 54.8402 151.87C54.8402 150.049 49.9619 152.224 44.759 152.224C39.5561 152.224 34.8672 151.58 34.8672 153.401Z" fill="white"/>
<path d="M104.368 198.992C114.643 198.992 122.974 190.662 122.974 180.386C122.974 170.111 114.643 161.78 104.368 161.78C94.0919 161.78 85.7617 170.111 85.7617 180.386C85.7617 190.662 94.0919 198.992 104.368 198.992Z" fill="#2F2E41"/>
<path d="M101.542 194.989H95.8896V205.116H101.542V194.989Z" fill="#2F2E41"/>
<path d="M112.847 194.989H107.194V205.116H112.847V194.989Z" fill="#2F2E41"/>
<path d="M100.6 207C103.201 207 105.31 206.209 105.31 205.234C105.31 204.258 103.201 203.467 100.6 203.467C97.9986 203.467 95.8896 204.258 95.8896 205.234C95.8896 206.209 97.9986 207 100.6 207Z" fill="#2F2E41"/>
<path d="M111.905 206.764C114.506 206.764 116.615 205.974 116.615 204.998C116.615 204.023 114.506 203.232 111.905 203.232C109.303 203.232 107.194 204.023 107.194 204.998C107.194 205.974 109.303 206.764 111.905 206.764Z" fill="#2F2E41"/>
<path d="M86.32 163.083C84.8176 156.355 89.62 149.557 97.0465 147.898C104.473 146.24 111.711 150.35 113.213 157.078C114.716 163.807 109.794 166.288 102.368 167.946C94.9412 169.604 87.8223 169.812 86.32 163.083Z" fill="#3F3D56"/>
<path d="M104.442 177.162C104.442 177.162 105.792 171.224 103.228 171.494C100.663 171.764 97.154 171.899 96.2092 171.899C95.2644 171.899 89.8657 171.224 89.0559 174.733C88.2461 178.242 87.1664 182.561 89.4608 185.261C89.4608 185.261 90.2706 197.138 93.3749 197.948C96.4791 198.757 104.712 199.702 107.681 195.788C108.551 194.624 109.158 193.285 109.461 191.864C109.764 190.443 109.755 188.973 109.436 187.555H108.086L104.442 177.162Z" fill="#0DB3FB"/>
<path opacity="0.1" d="M90.8105 186.205C90.8105 186.205 93.105 187.285 97.8289 186.61V188.635L90.8105 188.095V186.205Z" fill="black"/>
<path d="M107.958 192.973L106.43 192.165L113.225 179.306C113.481 178.823 113.608 178.283 113.597 177.737C113.585 177.191 113.434 176.657 113.159 176.186C112.883 175.715 112.492 175.321 112.022 175.043C111.552 174.765 111.019 174.611 110.473 174.597L103.342 174.405L103.388 172.677L110.52 172.869C111.359 172.892 112.18 173.128 112.902 173.556C113.625 173.984 114.227 174.589 114.651 175.314C115.075 176.039 115.306 176.861 115.324 177.7C115.342 178.54 115.146 179.371 114.753 180.113L107.958 192.973Z" fill="#0DB3FB"/>
<path d="M91.5337 192.973L84.7382 180.113C84.3458 179.371 84.1492 178.54 84.1671 177.7C84.1851 176.861 84.4169 176.039 84.8407 175.314C85.2645 174.589 85.8663 173.984 86.5891 173.556C87.3119 173.128 88.1319 172.892 88.9715 172.869L96.1033 172.677L96.1497 174.405L89.0181 174.597C88.4722 174.611 87.9392 174.765 87.4693 175.043C86.9994 175.321 86.6082 175.715 86.3326 176.186C86.0571 176.657 85.9065 177.191 85.8948 177.737C85.8831 178.283 86.0109 178.823 86.266 179.306L93.0616 192.165L91.5337 192.973Z" fill="#0DB3FB"/>
<path d="M128.225 185.161C129.062 183.579 125.655 180.135 120.616 177.47C115.577 174.804 110.814 173.926 109.977 175.508C109.14 177.089 112.547 180.533 117.586 183.198C122.625 185.864 127.388 186.742 128.225 185.161Z" fill="#2F2E41"/>
<defs>
<filter id="filter0_f_0_1" x="24" y="211" width="208" height="61" filterUnits="userSpaceOnUse" color-interpolation-filters="sRGB">
<feFlood flood-opacity="0" result="BackgroundImageFix"/>
<feBlend mode="normal" in="SourceGraphic" in2="BackgroundImageFix" result="shape"/>
<feGaussianBlur stdDeviation="13.5" result="effect1_foregroundBlur_0_1"/>
</filter>
</defs>
</svg>
