<svg width="211" height="218" viewBox="0 0 211 218" fill="none" xmlns="http://www.w3.org/2000/svg">
<g filter="url(#filter0_f_0_1)">
<ellipse cx="104" cy="187.5" rx="77" ry="3.5" fill="#1195CF" fill-opacity="0.5"/>
</g>
<path d="M134.823 114.113V150.807H42.8918C32.4175 150.807 23.8955 142.576 23.8955 132.46C23.8955 122.344 32.4175 114.113 42.8918 114.113H134.823Z" fill="#F2F2F2"/>
<path d="M137.08 150.524C137.08 150.899 136.931 151.257 136.667 151.522C136.402 151.787 136.043 151.935 135.669 151.936H41.2536C36.1257 151.936 31.2079 149.899 27.5819 146.273C23.956 142.647 21.9189 137.729 21.9189 132.601C21.9189 127.473 23.956 122.555 27.5819 118.929C31.2079 115.303 36.1257 113.266 41.2536 113.266H135.669C136.043 113.266 136.402 113.415 136.667 113.68C136.932 113.944 137.08 114.303 137.08 114.678C137.08 115.052 136.932 115.411 136.667 115.675C136.402 115.94 136.043 116.089 135.669 116.089H41.2536C36.8743 116.089 32.6744 117.828 29.5778 120.925C26.4812 124.022 24.7415 128.222 24.7415 132.601C24.7415 136.98 26.4812 141.18 29.5778 144.277C32.6744 147.373 36.8743 149.113 41.2536 149.113H135.669C136.043 149.113 136.402 149.262 136.667 149.527C136.931 149.791 137.08 150.15 137.08 150.524Z" fill="#0DB3FB"/>
<path d="M134.823 122.581H36.0323C35.9574 122.581 35.8856 122.551 35.8327 122.498C35.7797 122.445 35.75 122.373 35.75 122.298C35.75 122.224 35.7797 122.152 35.8327 122.099C35.8856 122.046 35.9574 122.016 36.0323 122.016H134.823C134.897 122.016 134.969 122.046 135.022 122.099C135.075 122.152 135.105 122.224 135.105 122.298C135.105 122.373 135.075 122.445 135.022 122.498C134.969 122.551 134.897 122.581 134.823 122.581Z" fill="#CCCCCC"/>
<path d="M134.823 129.355H36.0323C35.9574 129.355 35.8856 129.325 35.8327 129.272C35.7797 129.219 35.75 129.148 35.75 129.073C35.75 128.998 35.7797 128.926 35.8327 128.873C35.8856 128.82 35.9574 128.79 36.0323 128.79H134.823C134.897 128.79 134.969 128.82 135.022 128.873C135.075 128.926 135.105 128.998 135.105 129.073C135.105 129.148 135.075 129.219 135.022 129.272C134.969 129.325 134.897 129.355 134.823 129.355Z" fill="#CCCCCC"/>
<path d="M134.823 136.129H36.0323C35.9574 136.129 35.8856 136.099 35.8327 136.046C35.7797 135.993 35.75 135.922 35.75 135.847C35.75 135.772 35.7797 135.7 35.8327 135.647C35.8856 135.594 35.9574 135.565 36.0323 135.565H134.823C134.897 135.565 134.969 135.594 135.022 135.647C135.075 135.7 135.105 135.772 135.105 135.847C135.105 135.922 135.075 135.993 135.022 136.046C134.969 136.099 134.897 136.129 134.823 136.129Z" fill="#CCCCCC"/>
<path d="M134.823 142.903H36.0323C35.9574 142.903 35.8856 142.874 35.8327 142.821C35.7797 142.768 35.75 142.696 35.75 142.621C35.75 142.546 35.7797 142.474 35.8327 142.421C35.8856 142.368 35.9574 142.339 36.0323 142.339H134.823C134.897 142.339 134.969 142.368 135.022 142.421C135.075 142.474 135.105 142.546 135.105 142.621C135.105 142.696 135.075 142.768 135.022 142.821C134.969 142.874 134.897 142.903 134.823 142.903Z" fill="#CCCCCC"/>
<path d="M205.872 121.02L182.85 149.593L111.265 91.9131C103.108 85.3413 101.637 73.5854 107.984 65.7081C114.331 57.8309 126.131 56.7687 134.287 63.3406L205.872 121.02Z" fill="#F2F2F2"/>
<path d="M184.785 150.79C184.55 151.081 184.209 151.267 183.837 151.307C183.465 151.347 183.092 151.238 182.8 151.003L109.281 91.7649C105.288 88.5476 102.737 83.8758 102.188 78.7773C101.64 73.6789 103.139 68.5714 106.356 64.5784C109.574 60.5854 114.245 58.0341 119.344 57.4856C124.442 56.9371 129.55 58.4365 133.543 61.6539L207.062 120.892C207.207 121.008 207.327 121.152 207.416 121.314C207.505 121.477 207.561 121.656 207.581 121.84C207.6 122.024 207.584 122.211 207.532 122.389C207.479 122.567 207.393 122.733 207.276 122.877C207.16 123.021 207.016 123.141 206.854 123.23C206.691 123.319 206.512 123.375 206.328 123.395C206.144 123.414 205.957 123.398 205.779 123.345C205.601 123.293 205.436 123.206 205.291 123.09L131.772 63.8517C130.084 62.4902 128.143 61.4747 126.063 60.8632C123.982 60.2516 121.801 60.056 119.644 60.2876C117.487 60.5191 115.398 61.1733 113.494 62.2127C111.59 63.2521 109.91 64.6564 108.549 66.3453C107.188 68.0342 106.174 69.9747 105.563 72.0558C104.952 74.137 104.757 76.3182 104.99 78.4746C105.222 80.6311 105.877 82.7206 106.917 84.6239C107.957 86.5272 109.362 88.2068 111.052 89.567L184.571 148.805C184.863 149.04 185.049 149.381 185.089 149.753C185.129 150.125 185.019 150.498 184.785 150.79Z" fill="#CCCCCC"/>
<path d="M200.559 127.614L123.633 65.6306C123.604 65.6073 123.58 65.5786 123.562 65.5461C123.544 65.5135 123.533 65.4778 123.529 65.441C123.525 65.4041 123.528 65.3669 123.539 65.3313C123.549 65.2957 123.567 65.2626 123.59 65.2337C123.613 65.2048 123.642 65.1808 123.674 65.1631C123.707 65.1453 123.743 65.1341 123.779 65.1302C123.816 65.1262 123.854 65.1295 123.889 65.14C123.925 65.1504 123.958 65.1678 123.987 65.191L200.913 127.174C200.942 127.197 200.966 127.226 200.984 127.259C201.001 127.291 201.013 127.327 201.017 127.364C201.021 127.401 201.017 127.438 201.007 127.474C200.996 127.509 200.979 127.542 200.956 127.571C200.932 127.6 200.904 127.624 200.871 127.642C200.839 127.66 200.803 127.671 200.766 127.675C200.729 127.679 200.692 127.675 200.656 127.665C200.621 127.654 200.587 127.637 200.559 127.614V127.614Z" fill="#CCCCCC"/>
<path d="M196.308 132.889L119.382 70.9055C119.324 70.8585 119.287 70.7903 119.279 70.7159C119.271 70.6416 119.293 70.5671 119.34 70.5088C119.387 70.4506 119.455 70.4134 119.529 70.4053C119.604 70.3973 119.678 70.4191 119.736 70.4659L196.662 132.449C196.691 132.472 196.715 132.501 196.733 132.534C196.751 132.566 196.762 132.602 196.766 132.639C196.77 132.676 196.767 132.713 196.757 132.748C196.746 132.784 196.729 132.817 196.705 132.846C196.682 132.875 196.653 132.899 196.621 132.917C196.588 132.935 196.553 132.946 196.516 132.95C196.479 132.954 196.442 132.95 196.406 132.94C196.37 132.929 196.337 132.912 196.308 132.889Z" fill="#CCCCCC"/>
<path d="M192.059 138.164L115.133 76.1805C115.074 76.1335 115.037 76.0653 115.029 75.9909C115.021 75.9165 115.043 75.8419 115.09 75.7836C115.137 75.7253 115.205 75.6881 115.279 75.6801C115.354 75.6721 115.428 75.694 115.487 75.7409L192.413 137.724C192.442 137.747 192.466 137.776 192.483 137.809C192.501 137.841 192.512 137.877 192.516 137.914C192.52 137.951 192.517 137.988 192.507 138.023C192.496 138.059 192.479 138.092 192.455 138.121C192.432 138.15 192.403 138.174 192.371 138.192C192.338 138.209 192.303 138.221 192.266 138.224C192.229 138.228 192.192 138.225 192.156 138.215C192.121 138.204 192.087 138.187 192.059 138.164V138.164Z" fill="#CCCCCC"/>
<path d="M187.809 143.439L110.883 81.4554C110.854 81.4322 110.83 81.4034 110.812 81.3709C110.794 81.3384 110.783 81.3027 110.779 81.2658C110.775 81.229 110.778 81.1917 110.789 81.1561C110.799 81.1206 110.817 81.0874 110.84 81.0585C110.863 81.0297 110.892 81.0057 110.924 80.9879C110.957 80.9701 110.993 80.959 111.029 80.955C111.066 80.951 111.104 80.9544 111.139 80.9648C111.175 80.9752 111.208 80.9926 111.237 81.0158L188.163 142.999C188.192 143.022 188.216 143.051 188.234 143.083C188.251 143.116 188.263 143.152 188.267 143.189C188.271 143.225 188.267 143.263 188.257 143.298C188.246 143.334 188.229 143.367 188.206 143.396C188.182 143.425 188.154 143.449 188.121 143.467C188.089 143.484 188.053 143.496 188.016 143.5C187.979 143.504 187.942 143.5 187.906 143.49C187.871 143.479 187.837 143.462 187.809 143.439Z" fill="#CCCCCC"/>
<path d="M210.718 152.218H1.28226C1.2074 152.218 1.1356 152.188 1.08267 152.135C1.02974 152.082 1 152.01 1 151.936C1 151.861 1.02974 151.789 1.08267 151.736C1.1356 151.683 1.2074 151.653 1.28226 151.653H210.718C210.793 151.653 210.864 151.683 210.917 151.736C210.97 151.789 211 151.861 211 151.936C211 152.01 210.97 152.082 210.917 152.135C210.864 152.188 210.793 152.218 210.718 152.218Z" fill="#CCCCCC"/>
<path d="M96.4264 110.256L93.1997 110.256L91.665 97.8094L96.4276 97.81L96.4264 110.256Z" fill="#FFB8B8"/>
<path d="M90.8939 109.334H97.117V113.252H86.9756C86.9756 112.738 87.0769 112.228 87.2738 111.753C87.4708 111.277 87.7594 110.845 88.1232 110.482C88.4871 110.118 88.919 109.829 89.3944 109.632C89.8698 109.435 90.3793 109.334 90.8939 109.334Z" fill="#2F2E41"/>
<path d="M63.4597 110.256L60.2329 110.256L58.6982 97.8094L63.4608 97.81L63.4597 110.256Z" fill="#FFB8B8"/>
<path d="M57.9281 109.334H64.1512V113.252H54.0098C54.0098 112.738 54.1111 112.228 54.308 111.753C54.5049 111.277 54.7936 110.845 55.1574 110.482C55.5213 110.118 55.9532 109.829 56.4286 109.632C56.904 109.435 57.4135 109.334 57.9281 109.334Z" fill="#2F2E41"/>
<path d="M74.2373 17.9327V16.5214C74.2373 14.1072 75.1963 11.7918 76.9035 10.0847C78.6106 8.37763 80.9259 7.41858 83.3401 7.41858H83.3401C85.7544 7.41858 88.0697 8.37763 89.7768 10.0847C91.4839 11.7918 92.443 14.1072 92.443 16.5214V17.9327C92.443 19.6732 91.7516 21.3424 90.5209 22.5731C89.2901 23.8038 87.6209 24.4952 85.8805 24.4952H80.7998C79.938 24.4952 79.0847 24.3255 78.2885 23.9957C77.4923 23.6659 76.7688 23.1825 76.1594 22.5731C75.55 21.9637 75.0666 21.2403 74.7368 20.4441C74.407 19.6479 74.2373 18.7945 74.2373 17.9327Z" fill="#2F2E41"/>
<path d="M83.3408 24.9808C87.1695 24.9808 90.2733 21.877 90.2733 18.0483C90.2733 14.2195 87.1695 11.1157 83.3408 11.1157C79.512 11.1157 76.4082 14.2195 76.4082 18.0483C76.4082 21.877 79.512 24.9808 83.3408 24.9808Z" fill="#FFB8B8"/>
<path d="M45.6318 41.8746C45.9131 41.6089 46.2493 41.4082 46.6166 41.2865C46.9839 41.1648 47.3734 41.1252 47.7577 41.1703C48.142 41.2154 48.5117 41.3443 48.8408 41.5478C49.1699 41.7513 49.4504 42.0244 49.6625 42.348L55.6054 41.2239L57.1693 44.6687L48.7546 46.1384C48.1873 46.4587 47.5223 46.5597 46.8855 46.4225C46.2486 46.2852 45.6843 45.9191 45.2994 45.3935C44.9144 44.8679 44.7357 44.2194 44.797 43.5709C44.8582 42.9223 45.1553 42.3187 45.6318 41.8746V41.8746Z" fill="#FFB8B8"/>
<path d="M77.9363 29.3467L78.014 29.4645L68.2688 35.8843L51.8249 41.1352C51.6069 41.2052 51.42 41.3487 51.2958 41.541C51.1717 41.7334 51.1181 41.9629 51.1441 42.1904L51.5028 45.2801C51.5187 45.4169 51.5631 45.5488 51.6329 45.6674C51.7028 45.786 51.7967 45.8887 51.9086 45.969C52.0205 46.0492 52.1479 46.1051 52.2827 46.1332C52.4174 46.1613 52.5566 46.161 52.6912 46.1321L68.1673 42.8148C68.9163 42.6552 69.6245 42.3434 70.248 41.8987L81.1962 34.1093C81.5931 33.8254 81.9098 33.4436 82.1155 33.001C82.3211 32.5585 82.4088 32.0703 82.3699 31.5838C82.3298 31.0967 82.1635 30.6284 81.8875 30.225C81.6115 29.8217 81.2352 29.4971 80.7957 29.2833C80.3562 29.0694 79.8686 28.9737 79.3808 29.0055C78.8931 29.0372 78.422 29.1954 78.014 29.4645L77.9363 29.3467Z" fill="#CCCCCC"/>
<path d="M93.2567 106.724C93.009 106.724 92.7667 106.652 92.5593 106.517C92.3519 106.381 92.1884 106.189 92.0888 105.962L77.2956 69.4091C77.2611 69.3298 77.2031 69.263 77.1295 69.2176C77.0558 69.1723 76.9701 69.1506 76.8837 69.1555C76.7974 69.1603 76.7146 69.1915 76.6465 69.2449C76.5784 69.2982 76.5283 69.3711 76.5029 69.4537L64.434 105.039C64.3831 105.205 64.2988 105.358 64.1863 105.49C64.0739 105.622 63.9357 105.729 63.7802 105.806C63.6247 105.882 63.4552 105.926 63.2822 105.934C63.1091 105.943 62.9361 105.916 62.7739 105.855L58.7268 104.337C58.5071 104.256 58.3144 104.115 58.17 103.93C58.0257 103.746 57.9353 103.525 57.9091 103.292C56.0884 87.431 71.9655 47.3963 72.1262 46.9938L72.1706 46.8823L86.644 50.0839L86.6741 50.1167C92.4485 56.4161 97.1948 96.1479 98.0877 104.049C98.121 104.334 98.056 104.622 97.9036 104.866C97.7511 105.109 97.5203 105.294 97.2491 105.389L93.6767 106.652C93.5418 106.7 93.3998 106.724 93.2567 106.724Z" fill="#2F2E41"/>
<path d="M80.7869 51.3726C77.2802 51.3726 73.3707 50.6734 72.1673 47.7877L72.1396 47.7214L72.1771 47.6599C73.1269 46.1014 74.3823 43.4429 73.7076 42.9438C72.3784 41.961 71.7333 40.3442 71.7906 38.1383C71.9149 33.3495 75.1778 29.0979 79.91 27.5585H79.9101C81.231 27.1358 82.5751 26.7897 83.9359 26.522C84.9279 26.3218 85.952 26.3438 86.9345 26.5865C87.9171 26.8291 88.8337 27.2863 89.6185 27.9253C90.4132 28.5685 91.0556 29.3796 91.4995 30.3006C91.9434 31.2215 92.1778 32.2294 92.1859 33.2517C92.2355 38.3693 91.4476 45.497 87.4123 50.3904C87.2232 50.6175 86.96 50.7705 86.6691 50.8227C84.7277 51.1738 82.7598 51.3578 80.7869 51.3726Z" fill="#CCCCCC"/>
<path d="M79.482 51.1809C79.6729 50.4963 80.1261 49.9148 80.7434 49.5626C81.3606 49.2103 82.0919 49.1159 82.7784 49.2999C82.9185 49.3391 83.0552 49.3897 83.187 49.4513L87.6994 45.3447L90.8375 47.4589L84.3846 53.1693C84.0932 53.6946 83.6345 54.1074 83.0814 54.342C82.5284 54.5766 81.9127 54.6195 81.3325 54.4639C80.9945 54.3714 80.6782 54.2128 80.4018 53.9973C80.1255 53.7818 79.8946 53.5136 79.7225 53.2083C79.5505 52.9031 79.4406 52.5667 79.3993 52.2187C79.358 51.8707 79.3862 51.518 79.482 51.1809Z" fill="#FFB8B8"/>
<path d="M86.9846 51.233C86.6918 51.2332 86.408 51.132 86.1814 50.9465L84.4019 49.4923C84.2536 49.3711 84.1346 49.2179 84.0539 49.0442C83.9731 48.8705 83.9327 48.6807 83.9357 48.4892C83.9387 48.2977 83.9849 48.1093 84.071 47.9381C84.1571 47.767 84.2807 47.6175 84.4328 47.501L91.8961 41.7768C91.9846 41.7086 92.0426 41.6083 92.0576 41.4976C92.0726 41.3869 92.0433 41.2748 91.9761 41.1856L87.3696 35.0955C86.8344 34.3903 86.5659 33.5185 86.6118 32.6344C86.6576 31.7503 87.0148 30.9109 87.6201 30.2649C88.2575 29.5764 89.1305 29.1528 90.0658 29.078C91.001 29.0031 91.9302 29.2827 92.669 29.8611L92.6982 29.8918L97.5084 36.7796C98.0286 37.1874 98.4474 37.71 98.7322 38.3064C99.017 38.9029 99.1601 39.5571 99.1503 40.218C99.1404 40.879 98.9779 41.5286 98.6755 42.1164C98.373 42.7041 97.9388 43.214 97.4068 43.6061L87.7407 50.984C87.5218 51.1457 87.2568 51.233 86.9846 51.233Z" fill="#CCCCCC"/>
<path d="M77.2002 16.098V12.6584L83.3409 9.97693L89.1962 12.6584V16.098C89.1962 16.2477 89.1367 16.3913 89.0308 16.4972C88.925 16.6031 88.7814 16.6625 88.6316 16.6625H77.7647C77.615 16.6625 77.4714 16.6031 77.3655 16.4972C77.2597 16.3913 77.2002 16.2477 77.2002 16.098Z" fill="#2F2E41"/>
<path d="M83.0591 7.87489C82.1562 4.98499 84.0525 1.67302 86.8557 0.529124C89.659 -0.614775 93.0128 0.184846 95.3781 2.07474C97.7435 3.96463 99.2111 6.79534 99.9887 9.72144C100.766 12.6475 100.914 15.6988 101.057 18.723C104.502 19.3557 106.845 23.4408 105.651 26.733C104.458 30.0253 100.042 31.6609 96.9924 29.9401C93.9426 28.2194 93.0592 23.5937 95.2603 20.8702C96.3019 19.5814 96.8837 17.9821 96.9136 16.3254C96.9435 14.6687 96.4199 13.0494 95.4256 11.7239C94.4313 10.3984 93.0232 9.44252 91.4243 9.00765C89.8254 8.57278 88.1272 8.68377 86.5985 9.32305C84.901 10.0329 82.7712 8.18855 83.0591 7.87489Z" fill="#2F2E41"/>
<path d="M44.3589 28.5314C40.2352 28.5043 36.1632 27.6125 32.4057 25.9135C32.1821 25.8138 31.9922 25.6512 31.8593 25.4455C31.7264 25.2399 31.6562 25 31.6572 24.7551V14.4758C31.6576 14.1391 31.7916 13.8162 32.0297 13.5781C32.2678 13.34 32.5906 13.2061 32.9274 13.2057H55.7903C56.1271 13.2061 56.4499 13.34 56.688 13.5781C56.9261 13.8162 57.0601 14.1391 57.0605 14.4758V24.7551C57.0615 25 56.9913 25.2399 56.8584 25.4456C56.7255 25.6512 56.5356 25.8138 56.312 25.9135C52.5545 27.6125 48.4825 28.5043 44.3589 28.5314Z" fill="#0DB3FB"/>
<path d="M44.356 20.2039C44.1865 20.2041 44.0187 20.1703 43.8624 20.1047L25.7325 12.4556C25.4987 12.357 25.2998 12.1906 25.1614 11.9779C25.0231 11.7652 24.9516 11.5159 24.9563 11.2622C24.9609 11.0084 25.0415 10.7619 25.1875 10.5544C25.3336 10.3469 25.5384 10.1879 25.7757 10.0979L43.9059 3.21993C44.1979 3.10864 44.5208 3.10933 44.8123 3.22186L62.6996 10.0998C62.9355 10.1906 63.139 10.3496 63.284 10.5566C63.429 10.7636 63.509 11.0092 63.5136 11.2619C63.5183 11.5146 63.4475 11.763 63.3102 11.9752C63.1729 12.1874 62.9755 12.3539 62.7431 12.4533L44.8556 20.1022C44.6976 20.1695 44.5277 20.2041 44.356 20.2039Z" fill="#0DB3FB"/>
<path d="M33.7746 26.6129C34.7099 26.6129 35.4682 25.8547 35.4682 24.9194C35.4682 23.9841 34.7099 23.2258 33.7746 23.2258C32.8393 23.2258 32.0811 23.9841 32.0811 24.9194C32.0811 25.8547 32.8393 26.6129 33.7746 26.6129Z" fill="#3F3D56"/>
<path opacity="0.2" d="M62.8049 11.3675L44.9173 19.0165C44.7779 19.0761 44.6278 19.1071 44.4762 19.1074C44.3245 19.1078 44.1743 19.0776 44.0346 19.0186L25.9046 11.3698C25.6769 11.276 25.4869 11.1091 25.3647 10.8953C25.2848 11.0339 25.2353 11.1879 25.2194 11.3472C25.2036 11.5064 25.2218 11.6672 25.2728 11.8189C25.3239 11.9705 25.4066 12.1096 25.5155 12.2268C25.6245 12.344 25.7571 12.4368 25.9046 12.4988L44.0346 20.1477C44.1743 20.2066 44.3245 20.2368 44.4762 20.2365C44.6278 20.2361 44.7779 20.2052 44.9173 20.1455L62.8049 12.4966C62.9516 12.434 63.0834 12.341 63.1916 12.2237C63.2998 12.1064 63.3818 11.9675 63.4323 11.8162C63.4829 11.6648 63.5007 11.5045 63.4848 11.3458C63.4688 11.187 63.4193 11.0335 63.3396 10.8953C63.2183 11.1073 63.0303 11.2734 62.8049 11.3675Z" fill="black"/>
<path d="M33.916 24.9128C33.9909 24.9128 34.0627 24.883 34.1156 24.8301C34.1686 24.7772 34.1983 24.7054 34.1983 24.6305V15.1857L43.5075 11.7944C43.5824 11.7955 43.6546 11.7668 43.7083 11.7147C43.7621 11.6625 43.7929 11.5912 43.794 11.5163C43.7951 11.4415 43.7664 11.3692 43.7143 11.3155C43.6621 11.2618 43.5908 11.231 43.5159 11.2299L34.2067 14.6212C34.1318 14.6195 34.0573 14.633 33.9878 14.6609C33.9182 14.6888 33.8551 14.7306 33.8021 14.7836C33.7486 14.836 33.7062 14.8986 33.6773 14.9676C33.6483 15.0367 33.6336 15.1109 33.6338 15.1857V24.6305C33.6338 24.7054 33.6635 24.7771 33.7165 24.8301C33.7694 24.883 33.8412 24.9128 33.916 24.9128Z" fill="#3F3D56"/>
<defs>
<filter id="filter0_f_0_1" x="0" y="157" width="208" height="61" filterUnits="userSpaceOnUse" color-interpolation-filters="sRGB">
<feFlood flood-opacity="0" result="BackgroundImageFix"/>
<feBlend mode="normal" in="SourceGraphic" in2="BackgroundImageFix" result="shape"/>
<feGaussianBlur stdDeviation="13.5" result="effect1_foregroundBlur_0_1"/>
</filter>
</defs>
</svg>
