<svg width="210" height="153" viewBox="0 0 210 153" fill="none" xmlns="http://www.w3.org/2000/svg">
<path d="M133.823 114.113V150.807H41.8918C31.4175 150.807 22.8955 142.576 22.8955 132.46C22.8955 122.344 31.4175 114.113 41.8918 114.113H133.823Z" fill="#F2F2F2"/>
<path d="M136.08 150.524C136.08 150.899 135.931 151.257 135.667 151.522C135.402 151.787 135.043 151.935 134.669 151.936H40.2536C35.1257 151.936 30.2079 149.899 26.5819 146.273C22.956 142.647 20.9189 137.729 20.9189 132.601C20.9189 127.473 22.956 122.555 26.5819 118.929C30.2079 115.303 35.1257 113.266 40.2536 113.266H134.669C135.043 113.266 135.402 113.415 135.667 113.68C135.932 113.944 136.08 114.303 136.08 114.678C136.08 115.052 135.932 115.411 135.667 115.675C135.402 115.94 135.043 116.089 134.669 116.089H40.2536C35.8743 116.089 31.6744 117.828 28.5778 120.925C25.4812 124.022 23.7415 128.222 23.7415 132.601C23.7415 136.98 25.4812 141.18 28.5778 144.277C31.6744 147.373 35.8743 149.113 40.2536 149.113H134.669C135.043 149.113 135.402 149.262 135.667 149.527C135.931 149.791 136.08 150.15 136.08 150.524Z" fill="#0DB3FB"/>
<path d="M133.823 122.581H35.0323C34.9574 122.581 34.8856 122.551 34.8327 122.498C34.7797 122.445 34.75 122.373 34.75 122.298C34.75 122.224 34.7797 122.152 34.8327 122.099C34.8856 122.046 34.9574 122.016 35.0323 122.016H133.823C133.897 122.016 133.969 122.046 134.022 122.099C134.075 122.152 134.105 122.224 134.105 122.298C134.105 122.373 134.075 122.445 134.022 122.498C133.969 122.551 133.897 122.581 133.823 122.581Z" fill="#CCCCCC"/>
<path d="M133.823 129.355H35.0323C34.9574 129.355 34.8856 129.325 34.8327 129.272C34.7797 129.219 34.75 129.148 34.75 129.073C34.75 128.998 34.7797 128.926 34.8327 128.873C34.8856 128.82 34.9574 128.79 35.0323 128.79H133.823C133.897 128.79 133.969 128.82 134.022 128.873C134.075 128.926 134.105 128.998 134.105 129.073C134.105 129.148 134.075 129.219 134.022 129.272C133.969 129.325 133.897 129.355 133.823 129.355Z" fill="#CCCCCC"/>
<path d="M133.823 136.129H35.0323C34.9574 136.129 34.8856 136.099 34.8327 136.046C34.7797 135.993 34.75 135.922 34.75 135.847C34.75 135.772 34.7797 135.7 34.8327 135.647C34.8856 135.594 34.9574 135.565 35.0323 135.565H133.823C133.897 135.565 133.969 135.594 134.022 135.647C134.075 135.7 134.105 135.772 134.105 135.847C134.105 135.922 134.075 135.993 134.022 136.046C133.969 136.099 133.897 136.129 133.823 136.129Z" fill="#CCCCCC"/>
<path d="M133.823 142.903H35.0323C34.9574 142.903 34.8856 142.874 34.8327 142.821C34.7797 142.768 34.75 142.696 34.75 142.621C34.75 142.546 34.7797 142.474 34.8327 142.421C34.8856 142.368 34.9574 142.339 35.0323 142.339H133.823C133.897 142.339 133.969 142.368 134.022 142.421C134.075 142.474 134.105 142.546 134.105 142.621C134.105 142.696 134.075 142.768 134.022 142.821C133.969 142.874 133.897 142.903 133.823 142.903Z" fill="#CCCCCC"/>
<path d="M204.872 121.02L181.85 149.593L110.265 91.9131C102.108 85.3413 100.637 73.5854 106.984 65.7081C113.331 57.8309 125.131 56.7687 133.287 63.3406L204.872 121.02Z" fill="#F2F2F2"/>
<path d="M183.785 150.79C183.55 151.081 183.209 151.267 182.837 151.307C182.465 151.347 182.092 151.238 181.8 151.003L108.281 91.7649C104.288 88.5476 101.737 83.8758 101.188 78.7773C100.64 73.6789 102.139 68.5714 105.356 64.5784C108.574 60.5854 113.245 58.0341 118.344 57.4856C123.442 56.9371 128.55 58.4365 132.543 61.6539L206.062 120.892C206.207 121.008 206.327 121.152 206.416 121.314C206.505 121.477 206.561 121.656 206.581 121.84C206.6 122.024 206.584 122.211 206.532 122.389C206.479 122.567 206.393 122.733 206.276 122.877C206.16 123.021 206.016 123.141 205.854 123.23C205.691 123.319 205.512 123.375 205.328 123.395C205.144 123.414 204.957 123.398 204.779 123.345C204.601 123.293 204.436 123.206 204.291 123.09L130.772 63.8517C129.084 62.4902 127.143 61.4747 125.063 60.8632C122.982 60.2516 120.801 60.056 118.644 60.2876C116.487 60.5191 114.398 61.1733 112.494 62.2127C110.59 63.2521 108.91 64.6564 107.549 66.3453C106.188 68.0342 105.174 69.9747 104.563 72.0558C103.952 74.137 103.757 76.3182 103.99 78.4746C104.222 80.6311 104.877 82.7206 105.917 84.6239C106.957 86.5272 108.362 88.2068 110.052 89.567L183.571 148.805C183.863 149.04 184.049 149.381 184.089 149.753C184.129 150.125 184.019 150.498 183.785 150.79Z" fill="#CCCCCC"/>
<path d="M199.559 127.614L122.633 65.6306C122.604 65.6073 122.58 65.5786 122.562 65.5461C122.544 65.5135 122.533 65.4778 122.529 65.441C122.525 65.4041 122.528 65.3669 122.539 65.3313C122.549 65.2957 122.567 65.2626 122.59 65.2337C122.613 65.2048 122.642 65.1808 122.674 65.1631C122.707 65.1453 122.743 65.1341 122.779 65.1302C122.816 65.1262 122.854 65.1295 122.889 65.14C122.925 65.1504 122.958 65.1678 122.987 65.191L199.913 127.174C199.942 127.197 199.966 127.226 199.984 127.259C200.001 127.291 200.013 127.327 200.017 127.364C200.021 127.401 200.017 127.438 200.007 127.474C199.996 127.509 199.979 127.542 199.956 127.571C199.932 127.6 199.904 127.624 199.871 127.642C199.839 127.66 199.803 127.671 199.766 127.675C199.729 127.679 199.692 127.675 199.656 127.665C199.621 127.654 199.587 127.637 199.559 127.614V127.614Z" fill="#CCCCCC"/>
<path d="M195.308 132.889L118.382 70.9055C118.324 70.8585 118.287 70.7903 118.279 70.7159C118.271 70.6416 118.293 70.5671 118.34 70.5088C118.387 70.4506 118.455 70.4134 118.529 70.4053C118.604 70.3973 118.678 70.4191 118.736 70.4659L195.662 132.449C195.691 132.472 195.715 132.501 195.733 132.534C195.751 132.566 195.762 132.602 195.766 132.639C195.77 132.676 195.767 132.713 195.757 132.748C195.746 132.784 195.729 132.817 195.705 132.846C195.682 132.875 195.653 132.899 195.621 132.917C195.588 132.935 195.553 132.946 195.516 132.95C195.479 132.954 195.442 132.95 195.406 132.94C195.37 132.929 195.337 132.912 195.308 132.889Z" fill="#CCCCCC"/>
<path d="M191.059 138.164L114.133 76.1805C114.074 76.1335 114.037 76.0653 114.029 75.9909C114.021 75.9165 114.043 75.8419 114.09 75.7836C114.137 75.7253 114.205 75.6881 114.279 75.6801C114.354 75.6721 114.428 75.694 114.487 75.7409L191.413 137.724C191.442 137.747 191.466 137.776 191.483 137.809C191.501 137.841 191.512 137.877 191.516 137.914C191.52 137.951 191.517 137.988 191.507 138.023C191.496 138.059 191.479 138.092 191.455 138.121C191.432 138.15 191.403 138.174 191.371 138.192C191.338 138.209 191.303 138.221 191.266 138.224C191.229 138.228 191.192 138.225 191.156 138.215C191.121 138.204 191.087 138.187 191.059 138.164V138.164Z" fill="#CCCCCC"/>
<path d="M186.809 143.439L109.883 81.4554C109.854 81.4322 109.83 81.4034 109.812 81.3709C109.794 81.3384 109.783 81.3027 109.779 81.2658C109.775 81.229 109.778 81.1917 109.789 81.1561C109.799 81.1206 109.817 81.0874 109.84 81.0585C109.863 81.0297 109.892 81.0057 109.924 80.9879C109.957 80.9701 109.993 80.959 110.029 80.955C110.066 80.951 110.104 80.9544 110.139 80.9648C110.175 80.9752 110.208 80.9926 110.237 81.0158L187.163 142.999C187.192 143.022 187.216 143.051 187.234 143.083C187.251 143.116 187.263 143.152 187.267 143.189C187.271 143.225 187.267 143.263 187.257 143.298C187.246 143.334 187.229 143.367 187.206 143.396C187.182 143.425 187.154 143.449 187.121 143.467C187.089 143.484 187.053 143.496 187.016 143.5C186.979 143.504 186.942 143.5 186.906 143.49C186.871 143.479 186.837 143.462 186.809 143.439Z" fill="#CCCCCC"/>
<path d="M209.718 152.218H0.282258C0.207399 152.218 0.135605 152.188 0.0826713 152.135C0.0297376 152.082 0 152.01 0 151.936C0 151.861 0.0297376 151.789 0.0826713 151.736C0.135605 151.683 0.207399 151.653 0.282258 151.653H209.718C209.793 151.653 209.864 151.683 209.917 151.736C209.97 151.789 210 151.861 210 151.936C210 152.01 209.97 152.082 209.917 152.135C209.864 152.188 209.793 152.218 209.718 152.218Z" fill="#CCCCCC"/>
<path d="M95.4264 110.256L92.1997 110.256L90.665 97.8094L95.4276 97.81L95.4264 110.256Z" fill="#FFB8B8"/>
<path d="M89.8939 109.334H96.117V113.252H85.9756C85.9756 112.738 86.0769 112.228 86.2738 111.753C86.4708 111.277 86.7594 110.845 87.1232 110.482C87.4871 110.118 87.919 109.829 88.3944 109.632C88.8698 109.435 89.3793 109.334 89.8939 109.334Z" fill="#2F2E41"/>
<path d="M62.4597 110.256L59.2329 110.256L57.6982 97.8094L62.4608 97.81L62.4597 110.256Z" fill="#FFB8B8"/>
<path d="M56.9281 109.334H63.1512V113.252H53.0098C53.0098 112.738 53.1111 112.228 53.308 111.753C53.5049 111.277 53.7936 110.845 54.1574 110.482C54.5213 110.118 54.9532 109.829 55.4286 109.632C55.904 109.435 56.4135 109.334 56.9281 109.334Z" fill="#2F2E41"/>
<path d="M73.2373 17.9327V16.5214C73.2373 14.1072 74.1963 11.7918 75.9035 10.0847C77.6106 8.37763 79.9259 7.41858 82.3401 7.41858H82.3401C84.7544 7.41858 87.0697 8.37763 88.7768 10.0847C90.4839 11.7918 91.443 14.1072 91.443 16.5214V17.9327C91.443 19.6732 90.7516 21.3424 89.5209 22.5731C88.2901 23.8038 86.6209 24.4952 84.8805 24.4952H79.7998C78.938 24.4952 78.0847 24.3255 77.2885 23.9957C76.4923 23.6659 75.7688 23.1825 75.1594 22.5731C74.55 21.9637 74.0666 21.2403 73.7368 20.4441C73.407 19.6479 73.2373 18.7945 73.2373 17.9327Z" fill="#2F2E41"/>
<path d="M82.3408 24.9808C86.1695 24.9808 89.2733 21.877 89.2733 18.0483C89.2733 14.2195 86.1695 11.1157 82.3408 11.1157C78.512 11.1157 75.4082 14.2195 75.4082 18.0483C75.4082 21.877 78.512 24.9808 82.3408 24.9808Z" fill="#FFB8B8"/>
<path d="M44.6318 41.8746C44.9131 41.6089 45.2493 41.4082 45.6166 41.2865C45.9839 41.1648 46.3734 41.1252 46.7577 41.1703C47.142 41.2154 47.5117 41.3443 47.8408 41.5478C48.1699 41.7513 48.4504 42.0244 48.6625 42.348L54.6054 41.2239L56.1693 44.6687L47.7546 46.1384C47.1873 46.4587 46.5223 46.5597 45.8855 46.4225C45.2486 46.2852 44.6843 45.9191 44.2994 45.3935C43.9144 44.8679 43.7357 44.2194 43.797 43.5709C43.8582 42.9223 44.1553 42.3187 44.6318 41.8746V41.8746Z" fill="#FFB8B8"/>
<path d="M76.9363 29.3467L77.014 29.4645L67.2688 35.8843L50.8249 41.1352C50.6069 41.2052 50.42 41.3487 50.2958 41.541C50.1717 41.7334 50.1181 41.9629 50.1441 42.1904L50.5028 45.2801C50.5187 45.4169 50.5631 45.5488 50.6329 45.6674C50.7028 45.786 50.7967 45.8887 50.9086 45.969C51.0205 46.0492 51.1479 46.1051 51.2827 46.1332C51.4174 46.1613 51.5566 46.161 51.6912 46.1321L67.1673 42.8148C67.9163 42.6552 68.6245 42.3434 69.248 41.8987L80.1962 34.1093C80.5931 33.8254 80.9098 33.4436 81.1155 33.001C81.3211 32.5585 81.4088 32.0703 81.3699 31.5838C81.3298 31.0967 81.1635 30.6284 80.8875 30.225C80.6115 29.8217 80.2352 29.4971 79.7957 29.2833C79.3562 29.0694 78.8686 28.9737 78.3808 29.0055C77.8931 29.0372 77.422 29.1954 77.014 29.4645L76.9363 29.3467Z" fill="#CCCCCC"/>
<path d="M92.2567 106.724C92.009 106.724 91.7667 106.652 91.5593 106.517C91.3519 106.381 91.1884 106.189 91.0888 105.962L76.2956 69.4091C76.2611 69.3298 76.2031 69.263 76.1295 69.2176C76.0558 69.1723 75.9701 69.1506 75.8837 69.1555C75.7974 69.1603 75.7146 69.1915 75.6465 69.2449C75.5784 69.2982 75.5283 69.3711 75.5029 69.4537L63.434 105.039C63.3831 105.205 63.2988 105.358 63.1863 105.49C63.0739 105.622 62.9357 105.729 62.7802 105.806C62.6247 105.882 62.4552 105.926 62.2822 105.934C62.1091 105.943 61.9361 105.916 61.7739 105.855L57.7268 104.337C57.5071 104.256 57.3144 104.115 57.17 103.93C57.0257 103.746 56.9353 103.525 56.9091 103.292C55.0884 87.431 70.9655 47.3963 71.1262 46.9938L71.1706 46.8823L85.644 50.0839L85.6741 50.1167C91.4485 56.4161 96.1948 96.1479 97.0877 104.049C97.121 104.334 97.056 104.622 96.9036 104.866C96.7511 105.109 96.5203 105.294 96.2491 105.389L92.6767 106.652C92.5418 106.7 92.3998 106.724 92.2567 106.724Z" fill="#2F2E41"/>
<path d="M79.7869 51.3726C76.2802 51.3726 72.3707 50.6734 71.1673 47.7877L71.1396 47.7214L71.1771 47.6599C72.1269 46.1014 73.3823 43.4429 72.7076 42.9438C71.3784 41.961 70.7333 40.3442 70.7906 38.1383C70.9149 33.3495 74.1778 29.0979 78.91 27.5585H78.9101C80.231 27.1358 81.5751 26.7897 82.9359 26.522C83.9279 26.3218 84.952 26.3438 85.9345 26.5865C86.9171 26.8291 87.8337 27.2863 88.6185 27.9253C89.4132 28.5685 90.0556 29.3796 90.4995 30.3006C90.9434 31.2215 91.1778 32.2294 91.1859 33.2517C91.2355 38.3693 90.4476 45.497 86.4123 50.3904C86.2232 50.6175 85.96 50.7705 85.6691 50.8227C83.7277 51.1738 81.7598 51.3578 79.7869 51.3726Z" fill="#CCCCCC"/>
<path d="M78.482 51.1809C78.6729 50.4963 79.1261 49.9148 79.7434 49.5626C80.3606 49.2103 81.0919 49.1159 81.7784 49.2999C81.9185 49.3391 82.0552 49.3897 82.187 49.4513L86.6994 45.3447L89.8375 47.4589L83.3846 53.1693C83.0932 53.6946 82.6345 54.1074 82.0814 54.342C81.5284 54.5766 80.9127 54.6195 80.3325 54.4639C79.9945 54.3714 79.6782 54.2128 79.4018 53.9973C79.1255 53.7818 78.8946 53.5136 78.7225 53.2083C78.5505 52.9031 78.4406 52.5667 78.3993 52.2187C78.358 51.8707 78.3862 51.518 78.482 51.1809Z" fill="#FFB8B8"/>
<path d="M85.9846 51.233C85.6918 51.2332 85.408 51.132 85.1814 50.9465L83.4019 49.4923C83.2536 49.3711 83.1346 49.2179 83.0539 49.0442C82.9731 48.8705 82.9327 48.6807 82.9357 48.4892C82.9387 48.2977 82.9849 48.1093 83.071 47.9381C83.1571 47.767 83.2807 47.6175 83.4328 47.501L90.8961 41.7768C90.9846 41.7086 91.0426 41.6083 91.0576 41.4976C91.0726 41.3869 91.0433 41.2748 90.9761 41.1856L86.3696 35.0955C85.8344 34.3903 85.5659 33.5185 85.6118 32.6344C85.6576 31.7503 86.0148 30.9109 86.6201 30.2649C87.2575 29.5764 88.1305 29.1528 89.0658 29.078C90.001 29.0031 90.9302 29.2827 91.669 29.8611L91.6982 29.8918L96.5084 36.7796C97.0286 37.1874 97.4474 37.71 97.7322 38.3064C98.017 38.9029 98.1601 39.5571 98.1503 40.218C98.1404 40.879 97.9779 41.5286 97.6755 42.1164C97.373 42.7041 96.9388 43.214 96.4068 43.6061L86.7407 50.984C86.5218 51.1457 86.2568 51.233 85.9846 51.233Z" fill="#CCCCCC"/>
<path d="M76.2002 16.098V12.6584L82.3409 9.97693L88.1962 12.6584V16.098C88.1962 16.2477 88.1367 16.3913 88.0308 16.4972C87.925 16.6031 87.7814 16.6625 87.6316 16.6625H76.7647C76.615 16.6625 76.4714 16.6031 76.3655 16.4972C76.2597 16.3913 76.2002 16.2477 76.2002 16.098Z" fill="#2F2E41"/>
<path d="M82.0591 7.87489C81.1562 4.98499 83.0525 1.67302 85.8557 0.529124C88.659 -0.614775 92.0128 0.184846 94.3781 2.07474C96.7435 3.96463 98.2111 6.79534 98.9887 9.72144C99.7663 12.6475 99.9139 15.6988 100.057 18.723C103.502 19.3557 105.845 23.4408 104.651 26.733C103.458 30.0253 99.0422 31.6609 95.9924 29.9401C92.9426 28.2194 92.0592 23.5937 94.2603 20.8702C95.3019 19.5814 95.8837 17.9821 95.9136 16.3254C95.9435 14.6687 95.4199 13.0494 94.4256 11.7239C93.4313 10.3984 92.0232 9.44252 90.4243 9.00765C88.8254 8.57278 87.1272 8.68377 85.5985 9.32305C83.901 10.0329 81.7712 8.18855 82.0591 7.87489Z" fill="#2F2E41"/>
<path d="M43.3589 28.5314C39.2352 28.5043 35.1632 27.6125 31.4057 25.9135C31.1821 25.8138 30.9922 25.6512 30.8593 25.4455C30.7264 25.2399 30.6562 25 30.6572 24.7551V14.4758C30.6576 14.1391 30.7916 13.8162 31.0297 13.5781C31.2678 13.34 31.5906 13.2061 31.9274 13.2057H54.7903C55.1271 13.2061 55.4499 13.34 55.688 13.5781C55.9261 13.8162 56.0601 14.1391 56.0605 14.4758V24.7551C56.0615 25 55.9913 25.2399 55.8584 25.4456C55.7255 25.6512 55.5356 25.8138 55.312 25.9135C51.5545 27.6125 47.4825 28.5043 43.3589 28.5314Z" fill="#0DB3FB"/>
<path d="M43.356 20.2039C43.1865 20.2041 43.0187 20.1703 42.8624 20.1047L24.7325 12.4556C24.4987 12.357 24.2998 12.1906 24.1614 11.9779C24.0231 11.7652 23.9516 11.5159 23.9563 11.2622C23.9609 11.0084 24.0415 10.7619 24.1875 10.5544C24.3336 10.3469 24.5384 10.1879 24.7757 10.0979L42.9059 3.21993C43.1979 3.10864 43.5208 3.10933 43.8123 3.22186L61.6996 10.0998C61.9355 10.1906 62.139 10.3496 62.284 10.5566C62.429 10.7636 62.509 11.0092 62.5136 11.2619C62.5183 11.5146 62.4475 11.763 62.3102 11.9752C62.1729 12.1874 61.9755 12.3539 61.7431 12.4533L43.8556 20.1022C43.6976 20.1695 43.5277 20.2041 43.356 20.2039Z" fill="#0DB3FB"/>
<path d="M32.7746 26.6129C33.7099 26.6129 34.4682 25.8547 34.4682 24.9194C34.4682 23.9841 33.7099 23.2258 32.7746 23.2258C31.8393 23.2258 31.0811 23.9841 31.0811 24.9194C31.0811 25.8547 31.8393 26.6129 32.7746 26.6129Z" fill="#3F3D56"/>
<path opacity="0.2" d="M61.8049 11.3675L43.9173 19.0165C43.7779 19.0761 43.6278 19.1071 43.4762 19.1074C43.3245 19.1078 43.1743 19.0776 43.0346 19.0186L24.9046 11.3698C24.6769 11.276 24.4869 11.1091 24.3647 10.8953C24.2848 11.0339 24.2353 11.1879 24.2194 11.3472C24.2036 11.5064 24.2218 11.6672 24.2728 11.8189C24.3239 11.9705 24.4066 12.1096 24.5155 12.2268C24.6245 12.344 24.7571 12.4368 24.9046 12.4988L43.0346 20.1477C43.1743 20.2066 43.3245 20.2368 43.4762 20.2365C43.6278 20.2361 43.7779 20.2052 43.9173 20.1455L61.8049 12.4966C61.9516 12.434 62.0834 12.341 62.1916 12.2237C62.2998 12.1064 62.3818 11.9675 62.4323 11.8162C62.4829 11.6648 62.5007 11.5045 62.4848 11.3458C62.4688 11.187 62.4193 11.0335 62.3396 10.8953C62.2183 11.1073 62.0303 11.2734 61.8049 11.3675Z" fill="black"/>
<path d="M32.916 24.9128C32.9909 24.9128 33.0627 24.883 33.1156 24.8301C33.1686 24.7772 33.1983 24.7054 33.1983 24.6305V15.1857L42.5075 11.7944C42.5824 11.7955 42.6546 11.7668 42.7083 11.7147C42.7621 11.6625 42.7929 11.5912 42.794 11.5163C42.7951 11.4415 42.7664 11.3692 42.7143 11.3155C42.6621 11.2618 42.5908 11.231 42.5159 11.2299L33.2067 14.6212C33.1318 14.6195 33.0573 14.633 32.9878 14.6609C32.9182 14.6888 32.8551 14.7306 32.8021 14.7836C32.7486 14.836 32.7062 14.8986 32.6773 14.9676C32.6483 15.0367 32.6336 15.1109 32.6338 15.1857V24.6305C32.6338 24.7054 32.6635 24.7771 32.7165 24.8301C32.7694 24.883 32.8412 24.9128 32.916 24.9128Z" fill="#3F3D56"/>
</svg>
