<svg width="214" height="244" viewBox="0 0 214 244" fill="none" xmlns="http://www.w3.org/2000/svg">
<g filter="url(#filter0_f_0_1)">
<ellipse cx="110" cy="213.5" rx="77" ry="3.5" fill="#1195CF" fill-opacity="0.5"/>
</g>
<path d="M112.317 24.9485C119.283 19.8021 129.092 17.8293 136.766 21.8441C128.126 25.5954 121.092 32.2817 116.908 40.7201C115.306 43.9803 113.863 47.7732 110.558 49.28C108.501 50.2175 106.074 50.0365 103.945 49.2795C101.815 48.5223 99.9204 47.2362 98.0524 45.9637L97.4922 45.8963C100.817 37.8983 105.35 30.0948 112.317 24.9485Z" fill="#F0F0F0"/>
<path d="M136.704 22.015C129.538 22.2395 122.626 24.7161 116.948 29.093C115.709 30.0135 114.623 31.1236 113.729 32.3824C112.899 33.6367 112.419 35.0906 112.34 36.593C112.239 37.9924 112.297 39.4355 111.857 40.7858C111.622 41.4736 111.243 42.104 110.747 42.6354C110.251 43.1668 109.648 43.5874 108.978 43.8695C107.327 44.6158 105.506 44.7243 103.721 44.7685C101.74 44.8176 99.6813 44.8372 97.8794 45.7701C97.6611 45.8832 97.4984 45.5378 97.7164 45.4249C100.851 43.8018 104.515 44.8608 107.81 43.8948C109.347 43.444 110.758 42.5272 111.376 40.9932C111.915 39.6518 111.857 38.1636 111.947 36.7458C112.003 35.2791 112.416 33.8482 113.152 32.5781C113.978 31.2779 115.02 30.1278 116.232 29.1771C118.927 26.9931 121.949 25.2465 125.187 24.0012C128.874 22.5594 132.78 21.759 136.738 21.6346C136.982 21.627 136.947 22.0074 136.704 22.015V22.015Z" fill="white"/>
<path d="M118.694 27.576C118.089 26.5237 117.877 25.2906 118.098 24.0969C118.318 22.9032 118.955 21.8266 119.896 21.0595C120.087 20.9049 120.336 21.1943 120.145 21.349C119.268 22.0618 118.674 23.0647 118.471 24.1767C118.268 25.2887 118.47 26.4365 119.039 27.4131C119.162 27.6254 118.816 27.7872 118.694 27.576V27.576Z" fill="white"/>
<path d="M112.298 35.8767C114.688 36.5446 117.242 36.2873 119.45 35.1561C119.669 35.0438 119.832 35.3891 119.613 35.5013C117.313 36.6742 114.655 36.9366 112.169 36.236C111.933 36.1691 112.063 35.8101 112.298 35.8767Z" fill="white"/>
<path d="M128.856 23.0652C129.005 23.5212 129.265 23.9329 129.613 24.2635C129.96 24.594 130.385 24.8331 130.848 24.9591C131.085 25.023 130.955 25.3819 130.719 25.3184C130.208 25.1768 129.74 24.9122 129.355 24.5479C128.97 24.1835 128.68 23.7304 128.51 23.2282C128.49 23.1822 128.489 23.1303 128.506 23.0831C128.523 23.0359 128.557 22.997 128.602 22.9741C128.647 22.9528 128.7 22.9504 128.747 22.9674C128.795 22.9845 128.834 23.0196 128.856 23.0652H128.856Z" fill="white"/>
<path d="M142.851 50.5314C142.702 50.4957 142.552 50.46 142.4 50.4264C140.388 49.9571 138.341 49.652 136.28 49.5142C136.12 49.501 135.959 49.4901 135.8 49.4815C130.829 49.2024 125.851 49.8485 121.116 51.3869C119.233 52.0008 117.399 52.7571 115.63 53.6492C113.188 54.8815 110.638 56.4119 108.008 56.7552C107.734 56.794 107.458 56.8159 107.182 56.8207L97.4536 46.5849C97.4432 46.5505 97.4303 46.5183 97.4198 46.4838L97.0127 46.0929C97.1007 46.0405 97.1931 45.988 97.2811 45.9357C97.332 45.905 97.3851 45.8767 97.436 45.8461C97.4707 45.8265 97.5054 45.8069 97.5355 45.7871C97.5471 45.7806 97.5587 45.7741 97.5678 45.7697C97.598 45.75 97.6281 45.7348 97.6559 45.7173C98.1715 45.4228 98.6901 45.1313 99.2117 44.843C99.2141 44.8408 99.2141 44.8408 99.2186 44.8409C103.199 42.6542 107.396 40.7806 111.744 39.6036C111.875 39.5682 112.008 39.5305 112.144 39.4998C114.107 38.9802 116.109 38.6218 118.13 38.4284C119.237 38.326 120.349 38.2798 121.461 38.2898C124.334 38.3213 127.184 38.8044 129.906 39.7215C135.334 41.5506 140.116 45.095 142.661 50.1437C142.726 50.2729 142.788 50.4 142.851 50.5314Z" fill="#F0F0F0"/>
<path d="M142.699 50.6318C136.842 46.4969 129.832 44.3124 122.663 44.3886C121.12 44.3776 119.584 44.61 118.113 45.0772C116.694 45.5786 115.436 46.4507 114.469 47.6029C113.545 48.6591 112.723 49.8464 111.559 50.6597C110.956 51.0671 110.275 51.3427 109.559 51.4683C108.843 51.5939 108.108 51.5667 107.403 51.3885C105.636 50.9902 104.116 49.9805 102.665 48.9414C101.053 47.7877 99.3978 46.5639 97.3974 46.2239C97.155 46.1827 97.2331 45.809 97.4751 45.8502C100.955 46.4416 103.243 49.4929 106.455 50.7053C107.954 51.2711 109.633 51.3886 111.049 50.5354C112.288 49.7894 113.137 48.5658 114.063 47.4883C114.99 46.3505 116.182 45.457 117.534 44.886C118.977 44.3454 120.501 44.0542 122.041 44.025C125.508 43.9038 128.972 44.3285 132.307 45.2834C136.119 46.3522 139.72 48.0652 142.955 50.3483C143.155 50.4897 142.898 50.7723 142.699 50.6318L142.699 50.6318Z" fill="white"/>
<path d="M124.97 44.2282C125.121 43.0237 125.695 41.9119 126.589 41.0914C127.484 40.2709 128.641 39.7951 129.854 39.7489C130.099 39.7404 130.124 40.1215 129.878 40.13C128.749 40.1709 127.671 40.6142 126.839 41.38C126.008 42.1457 125.478 43.1835 125.344 44.3059C125.315 44.5498 124.941 44.4707 124.97 44.2282H124.97Z" fill="white"/>
<path d="M114.867 47.0057C116.372 48.9778 118.566 50.3099 121.011 50.7363C121.253 50.7783 121.175 51.152 120.933 51.11C118.39 50.6616 116.11 49.2707 114.547 47.215C114.399 47.019 114.719 46.8107 114.867 47.0057V47.0057Z" fill="white"/>
<path d="M135.8 46.7452C135.645 47.1991 135.604 47.6844 135.683 48.1577C135.762 48.631 135.957 49.0773 136.25 49.4566C136.402 49.6507 136.081 49.8587 135.931 49.666C135.608 49.2454 135.394 48.7522 135.306 48.2295C135.218 47.7068 135.259 47.1705 135.426 46.6674C135.438 46.6187 135.468 46.5763 135.51 46.5488C135.552 46.5213 135.603 46.5108 135.652 46.5194C135.701 46.53 135.745 46.5596 135.772 46.6019C135.8 46.6441 135.81 46.6956 135.8 46.7452V46.7452Z" fill="white"/>
<path d="M110.479 32.6046H109.725V11.9528C109.725 10.3831 109.416 8.82881 108.815 7.37863C108.214 5.92846 107.334 4.6108 106.224 3.50088C105.114 2.39097 103.796 1.51054 102.346 0.909853C100.896 0.30917 99.3417 8.46208e-07 97.772 0H54.0182C52.4486 -3.3847e-06 50.8943 0.30916 49.4441 0.909838C47.9939 1.51052 46.6762 2.39095 45.5663 3.50086C44.4564 4.61077 43.576 5.92843 42.9753 7.3786C42.3746 8.82878 42.0654 10.3831 42.0654 11.9527V125.251C42.0654 128.421 43.3247 131.461 45.5663 133.702C47.8079 135.944 50.8481 137.203 54.0182 137.203H97.772C100.942 137.203 103.982 135.944 106.224 133.702C108.465 131.461 109.725 128.421 109.725 125.251V47.305H110.479V32.6046Z" fill="#3F3D56"/>
<path d="M98.254 3.10975H92.5427C92.8053 3.75368 92.9056 4.45232 92.8346 5.14412C92.7636 5.83593 92.5237 6.49966 92.1357 7.07686C91.7478 7.65406 91.2239 8.12701 90.6102 8.45404C89.9965 8.78106 89.3117 8.95214 88.6163 8.95219H63.5503C62.8548 8.95214 62.1701 8.78107 61.5563 8.45404C60.9426 8.12701 60.4187 7.65407 60.0308 7.07687C59.6429 6.49967 59.4029 5.83593 59.3319 5.14412C59.2609 4.45232 59.3612 3.75367 59.6239 3.10974H54.2895C51.9221 3.10974 49.6517 4.05018 47.9777 5.72416C46.3037 7.39814 45.3633 9.66854 45.3633 12.0359V125.168C45.3633 126.34 45.5942 127.5 46.0427 128.583C46.4913 129.666 47.1488 130.65 47.9777 131.479C48.8066 132.308 49.7906 132.966 50.8736 133.414C51.9565 133.863 53.1173 134.094 54.2895 134.094H98.254C99.4262 134.094 100.587 133.863 101.67 133.414C102.753 132.966 103.737 132.308 104.566 131.479C105.395 130.65 106.052 129.666 106.501 128.583C106.949 127.5 107.18 126.34 107.18 125.168V12.0359C107.18 9.66854 106.24 7.39813 104.566 5.72416C102.892 4.05018 100.621 3.10975 98.254 3.10975Z" fill="white"/>
<path d="M77.1173 97.7515C73.8799 97.7546 70.6736 97.1191 67.6819 95.8816C64.6903 94.644 61.9721 92.8287 59.6828 90.5394C57.3936 88.2502 55.5782 85.532 54.3407 82.5403C53.1031 79.5487 52.4677 76.3424 52.4707 73.1049C52.4661 68.5588 53.7208 64.1003 56.0955 60.2238C58.4702 56.3473 61.8723 53.2043 65.9243 51.1433C68.8616 49.6489 72.0682 48.7575 75.3553 48.5216C78.6423 48.2857 81.9434 48.71 85.0639 49.7696C90.5904 51.6529 95.2689 55.4367 98.2663 60.4471C101.264 65.4575 102.385 71.3692 101.431 77.1293C100.477 82.8894 97.5098 88.1239 93.0572 91.9004C88.6045 95.677 82.9559 97.7505 77.1174 97.7515L77.1173 97.7515ZM77.1173 49.4248C73.3783 49.4138 69.691 50.2982 66.3638 52.0041C63.4555 53.4858 60.8849 55.5528 58.8133 58.0752C56.7418 60.5977 55.2141 63.5211 54.3262 66.662C53.4382 69.8029 53.2092 73.0935 53.6534 76.3272C54.0976 79.5608 55.2056 82.6677 56.9076 85.4528C58.6097 88.2379 60.8692 90.6411 63.5441 92.5115C66.2191 94.3819 69.2519 95.679 72.452 96.3216C75.6522 96.9641 78.9506 96.9382 82.1403 96.2454C85.3299 95.5525 88.3419 94.2078 90.9871 92.2956C92.266 91.3728 93.4487 90.3235 94.5171 89.1635C97.6419 85.7825 99.713 81.5637 100.477 77.0236C101.241 72.4836 100.664 67.8193 98.8173 63.602C96.9707 59.3847 93.9345 55.7974 90.0802 53.2793C86.226 50.7612 81.7212 49.4217 77.1173 49.4248Z" fill="#F0F0F0"/>
<path d="M23.7107 51.2317C24.3873 51.3166 25.037 51.5487 25.6141 51.9118C26.1912 52.2748 26.6816 52.76 27.0509 53.3332C27.4203 53.9063 27.6594 54.5535 27.7515 55.229C27.8437 55.9046 27.7866 56.5921 27.5843 57.2432L35.7731 64.0643L32.8417 70.0516L21.4127 60.2565C20.3415 59.8442 19.4587 59.0531 18.9316 58.0333C18.4046 57.0135 18.2699 55.8359 18.5532 54.7234C18.8365 53.611 19.518 52.6411 20.4685 51.9976C21.4191 51.354 22.5727 51.0815 23.7108 51.2317L23.7107 51.2317Z" fill="#FFB6B6"/>
<path d="M100.192 79.6773C100.027 77.9119 99.3484 74.7382 98.7723 73.5647C97.0013 68.9293 85.5581 65.1195 84.0215 64.6284L83.6317 60.2951L67.7321 58.5843L65.7152 64.1258L60.0127 66.265C59.6256 66.4094 59.2752 66.6377 58.9866 66.9334C58.6981 67.2292 58.4786 67.5852 58.3438 67.9758L53.2277 69.4546L48.1791 70.9141L30.6398 58.5553L29.8117 59.0966L24.2768 62.7082L23.4229 63.2655L46.1204 83.7432L54.5518 81.765L60.8923 80.2733L61.4334 82.4706L60.0321 90.19C64.0923 94.2517 69.4667 96.7339 75.1915 97.1915C80.9162 97.6491 86.6167 96.052 91.2705 92.6869L94.8724 89.4909C97.3828 86.7764 99.2357 83.5213 100.288 79.9769L100.192 79.6773Z" fill="#E4E4E4"/>
<path d="M80.6772 55.0403C86.6792 53.0531 89.9339 46.5765 87.9467 40.5745C85.9594 34.5725 79.4829 31.3178 73.4809 33.305C67.4789 35.2922 64.2242 41.7688 66.2114 47.7708C68.1986 53.7728 74.6752 57.0275 80.6772 55.0403Z" fill="#FFB6B6"/>
<path d="M68.0364 31.122C69.1493 29.5327 70.8195 28.4202 72.7149 28.0056C74.5891 27.6202 76.5396 27.978 78.155 29.0035C79.9115 28.2959 81.8053 27.8265 83.666 28.0651C85.5267 28.3038 87.3504 29.3431 88.2113 31.0553C88.3924 31.4989 88.6122 31.9257 88.868 32.3307C89.6266 33.3427 91.0362 33.474 92.2811 33.5226C91.6517 33.8897 91.0222 34.2568 90.3926 34.6239C91.02 34.9162 91.6474 35.2085 92.2749 35.5009C91.4209 35.8269 90.5671 36.1528 89.7133 36.4788C91.7006 38.2258 92.1813 41.3348 91.4287 43.9414C90.7163 46.4092 89.0829 48.4867 87.259 50.2652C86.9031 48.9381 87.2946 47.4993 87.5552 46.1254C87.8305 44.6736 87.8746 42.9761 86.8581 41.9511C86.1724 41.2597 85.1666 41.0508 84.2182 40.8831C79.4341 40.037 74.6059 39.4637 69.7567 39.166C69.1077 39.0763 68.4467 39.1438 67.8292 39.3628C66.6491 39.8872 66.175 41.3273 65.833 42.6042C65.6692 40.3628 65.8001 38.1097 66.2223 35.9024C66.5458 34.213 67.0554 32.5221 68.0364 31.122Z" fill="#2F2E41"/>
<path d="M82.9158 109.364H69.3843C68.9143 109.364 68.4636 109.177 68.1313 108.845C67.799 108.512 67.6123 108.062 67.6123 107.592C67.6123 107.122 67.799 106.671 68.1313 106.339C68.4636 106.006 68.9143 105.82 69.3843 105.82H82.9158C83.3857 105.82 83.8364 106.006 84.1688 106.339C84.5011 106.671 84.6877 107.122 84.6877 107.592C84.6877 108.062 84.5011 108.512 84.1688 108.845C83.8364 109.177 83.3857 109.364 82.9158 109.364Z" fill="#0DB3FB"/>
<path d="M38.514 14.5384H1.29445C0.951474 14.5379 0.622722 14.4012 0.380391 14.1585C0.13806 13.9158 0.00195313 13.5869 0.00195312 13.2439C0.00195313 12.9009 0.13806 12.5719 0.380391 12.3292C0.622722 12.0865 0.951474 11.9499 1.29445 11.9493H38.514C38.8573 11.9493 39.1866 12.0857 39.4294 12.3285C39.6721 12.5713 39.8085 12.9005 39.8085 13.2439C39.8085 13.5872 39.6721 13.9165 39.4294 14.1592C39.1866 14.402 38.8573 14.5384 38.514 14.5384Z" fill="#0DB3FB"/>
<path d="M60.0034 22.8064H1.29446C0.951144 22.8064 0.621893 22.6701 0.379136 22.4273C0.136378 22.1845 0 21.8553 0 21.512C0 21.1687 0.136378 20.8394 0.379136 20.5967C0.621893 20.3539 0.951144 20.2175 1.29446 20.2175H60.0034C60.3467 20.2175 60.6759 20.3539 60.9187 20.5967C61.1614 20.8394 61.2978 21.1687 61.2978 21.512C61.2978 21.8553 61.1614 22.1845 60.9187 22.4273C60.6759 22.6701 60.3467 22.8064 60.0034 22.8064Z" fill="#0DB3FB"/>
<path d="M48.7214 30.5959H1.29446C0.951145 30.5959 0.621893 30.4595 0.379136 30.2167C0.136378 29.974 0 29.6447 0 29.3014C0 28.9581 0.136378 28.6289 0.379136 28.3861C0.621893 28.1433 0.951145 28.007 1.29446 28.007H48.7214C49.0647 28.007 49.3939 28.1433 49.6367 28.3861C49.8794 28.6289 50.0158 28.9581 50.0158 29.3014C50.0158 29.6447 49.8794 29.974 49.6367 30.2167C49.3939 30.4595 49.0647 30.5959 48.7214 30.5959Z" fill="#CACACA"/>
<path d="M28.0382 38.3566H1.29446C0.951145 38.3566 0.621893 38.2202 0.379136 37.9775C0.136378 37.7347 0 37.4055 0 37.0622C0 36.7188 0.136378 36.3896 0.379136 36.1468C0.621893 35.9041 0.951145 35.7677 1.29446 35.7677H28.0382C28.3815 35.7677 28.7107 35.9041 28.9535 36.1468C29.1962 36.3896 29.3326 36.7188 29.3326 37.0622C29.3326 37.4055 29.1962 37.7347 28.9535 37.9775C28.7107 38.2202 28.3815 38.3566 28.0382 38.3566Z" fill="#CACACA"/>
<path d="M42.8119 46.1167H1.29436C0.951406 46.1162 0.622688 45.9796 0.380371 45.7369C0.138055 45.4942 0.00195313 45.1652 0.00195312 44.8223C0.00195313 44.4793 0.138055 44.1504 0.380371 43.9077C0.622688 43.665 0.951406 43.5284 1.29436 43.5278H42.8119C43.1548 43.5284 43.4836 43.665 43.7259 43.9077C43.9682 44.1504 44.1043 44.4793 44.1043 44.8223C44.1043 45.1652 43.9682 45.4942 43.7259 45.7369C43.4836 45.9796 43.1548 46.1162 42.8119 46.1167Z" fill="#CACACA"/>
<path d="M159.819 172.761L156.484 172.76L154.896 159.893L159.82 159.894L159.819 172.761Z" fill="#9F616A"/>
<path d="M161.132 177.377L148.396 177.377V177.216C148.397 175.901 148.919 174.64 149.849 173.711C150.778 172.781 152.039 172.259 153.354 172.259H153.354L155.68 170.494L160.021 172.259L161.133 172.259L161.132 177.377Z" fill="#2F2E41"/>
<path d="M157.876 112.288L156.405 94.3492L155.249 87.6161L161.72 86.1869L163.868 95.4049L161.997 112.786C162.374 113.248 162.605 113.813 162.659 114.407C162.713 115.002 162.588 115.599 162.3 116.121C162.012 116.644 161.574 117.069 161.043 117.341C160.512 117.614 159.911 117.721 159.319 117.649C158.726 117.578 158.169 117.331 157.717 116.94C157.266 116.549 156.943 116.032 156.787 115.456C156.632 114.879 156.653 114.27 156.847 113.705C157.041 113.141 157.399 112.647 157.876 112.288H157.876Z" fill="#9F616A"/>
<path d="M142.1 172.761L138.764 172.76L137.177 159.893L142.1 159.894L142.1 172.761Z" fill="#9F616A"/>
<path d="M136.761 116.354L135.283 118.912C135.283 118.912 133.658 119.356 134.189 124.653C134.72 129.95 134.743 161.333 137.313 165.195L137.778 168.511L142.633 168.975L142.755 166.032L148.543 125.153C148.543 125.153 151.952 165.284 154.772 166.266L155.79 169.609L160.239 169.611L159.976 165.671L160.263 115.94L136.761 116.354Z" fill="#2F2E41"/>
<path d="M135.135 118.717L135.033 118.691C138.086 107.274 137.205 92.4906 135.05 76.6157L135.05 76.5499L142.841 69.4135H149.607L156.314 73.7419C160.65 75.9098 161.636 80.5009 161.645 80.5471L161.652 80.5798L158.995 89.8534L160.996 116.673L160.999 116.704L160.987 116.733C160.34 118.375 158.604 118.141 156.594 117.87C154.588 117.6 147.194 120.073 144.927 120.073C140.497 120.073 135.452 118.799 135.135 118.717Z" fill="#E4E4E4"/>
<path d="M154.909 77.3565L157.816 76.092L161.645 80.7871L164.749 95.8321L154.117 94.2212L154.909 77.3565Z" fill="#E4E4E4"/>
<path d="M110.205 105.1L123.492 92.9581L128.109 87.9236L133.2 92.1669L127.224 99.5064L112.333 108.663C112.198 109.245 111.892 109.772 111.455 110.179C111.018 110.585 110.469 110.852 109.88 110.944C109.29 111.036 108.686 110.95 108.146 110.697C107.605 110.443 107.153 110.034 106.847 109.522C106.541 109.009 106.395 108.417 106.428 107.821C106.462 107.225 106.672 106.653 107.033 106.177C107.394 105.702 107.889 105.345 108.454 105.153C109.019 104.961 109.629 104.942 110.205 105.1L110.205 105.1Z" fill="#9F616A"/>
<path d="M123.202 93.0902L126.882 88.3113C126.913 88.2427 129.966 81.4199 132.612 78.4554C135.327 75.4144 137.464 76.9696 137.486 76.9863L137.539 77.0264L137.687 88.2564L127.497 100.432L123.202 93.0902Z" fill="#E4E4E4"/>
<path d="M151.675 62.6915C152.224 59.3104 149.928 56.1247 146.547 55.576C143.165 55.0273 139.98 57.3234 139.431 60.7046C138.882 64.0857 141.178 67.2715 144.56 67.8201C147.941 68.3688 151.126 66.0727 151.675 62.6915Z" fill="#9F616A"/>
<path d="M139.883 60.7773C139.883 60.7773 139.834 58.5969 139.558 57.6321C139.282 56.6674 138.731 55.8404 139.007 55.8404C139.282 55.8404 139.42 55.1513 139.42 55.1513C139.42 55.1513 139.696 55.0134 139.834 55.1513C139.972 55.2891 140.109 54.1865 140.109 54.1865C140.109 54.1865 140.247 53.773 140.385 54.0487C140.523 54.3243 140.523 54.1865 140.661 53.773C140.798 53.3595 141.488 53.0839 141.488 53.0839C141.488 53.0839 144.106 53.2217 144.52 52.6704C144.933 52.1191 149.619 52.5326 150.584 53.2217C151.549 53.9108 155.822 56.3917 155.132 58.4591C154.443 60.5265 152.46 65.2866 151.962 65.7639C151.176 66.5185 150.632 66.7906 146.913 67.5308C146.185 67.6756 142.469 65.2994 142.469 64.8859C142.469 64.4724 142.917 63.1612 142.197 62.9812C141.108 62.7091 140.986 64.0851 140.71 63.6717C140.435 63.2582 139.883 60.7773 139.883 60.7773Z" fill="#2F2E41"/>
<path d="M143.413 177.377L130.677 177.377V177.216C130.677 175.901 131.199 174.64 132.129 173.711C133.058 172.781 134.319 172.259 135.634 172.259H135.634L137.961 170.494L142.301 172.259L143.413 172.259L143.413 177.377Z" fill="#2F2E41"/>
<defs>
<filter id="filter0_f_0_1" x="6" y="183" width="208" height="61" filterUnits="userSpaceOnUse" color-interpolation-filters="sRGB">
<feFlood flood-opacity="0" result="BackgroundImageFix"/>
<feBlend mode="normal" in="SourceGraphic" in2="BackgroundImageFix" result="shape"/>
<feGaussianBlur stdDeviation="13.5" result="effect1_foregroundBlur_0_1"/>
</filter>
</defs>
</svg>
