<svg width="268" height="263" viewBox="0 0 268 263" fill="none" xmlns="http://www.w3.org/2000/svg">
<g filter="url(#filter0_f_0_1)">
<ellipse cx="136" cy="232.5" rx="77" ry="3.5" fill="#1195CF" fill-opacity="0.5"/>
</g>
<path d="M216.795 122.169C217.034 122.191 217.275 122.139 217.484 122.02C217.693 121.901 217.86 121.72 217.963 121.503C218.066 121.286 218.1 121.042 218.06 120.805C218.02 120.568 217.907 120.349 217.739 120.177C217.715 120.059 217.697 119.973 217.673 119.854C217.685 119.829 217.697 119.804 217.709 119.779C217.977 119.22 218.405 118.751 218.938 118.434C219.472 118.117 220.087 117.964 220.707 117.995C221.327 118.026 221.924 118.24 222.423 118.609C222.922 118.979 223.301 119.487 223.512 120.071C224.355 122.402 225.457 124.748 225.642 127.18C225.723 128.254 225.618 129.335 225.33 130.374C227.786 125.614 229.19 120.381 229.446 115.031C229.509 113.688 229.497 112.343 229.41 111.002C229.337 109.902 229.217 108.808 229.048 107.72C228.125 101.813 225.815 96.21 222.306 91.3701C220.548 90.3022 219.16 88.7211 218.329 86.8401C218.028 86.1638 217.826 85.4474 217.729 84.7133C217.932 84.7495 218.138 84.7758 218.34 84.7986C218.404 84.8048 218.47 84.8113 218.533 84.8176L218.557 84.8198C218.78 84.8402 219.005 84.7957 219.203 84.6917C219.402 84.5876 219.566 84.4284 219.676 84.2333C219.786 84.0381 219.837 83.8153 219.823 83.5917C219.81 83.368 219.732 83.1531 219.599 82.9728C219.516 82.8606 219.433 82.7485 219.35 82.6364C219.225 82.4634 219.095 82.2936 218.97 82.1207C218.955 82.1041 218.941 82.0868 218.929 82.0686C218.784 81.8714 218.64 81.6775 218.495 81.4803C218.795 81.0587 219.189 80.7121 219.645 80.4677C221.224 79.6388 223.316 80.3612 224.362 81.8036C225.411 83.2461 225.531 85.2068 225.063 86.9263C224.614 88.3871 223.919 89.7607 223.009 90.9883C223.087 91.0989 223.169 91.2064 223.247 91.317C224.68 93.3477 225.911 95.514 226.921 97.7847C226.766 95.2863 227.206 92.7867 228.206 90.4917C229.21 88.3561 230.987 86.601 232.564 84.7878C234.459 82.61 238.083 83.7676 238.265 86.6487C238.267 86.6766 238.268 86.7045 238.27 86.7323C238.043 86.8469 237.82 86.9693 237.602 87.0996C237.327 87.2651 237.109 87.5097 236.976 87.8013C236.843 88.0929 236.801 88.418 236.855 88.7338C236.91 89.0497 237.059 89.3417 237.282 89.5715C237.506 89.8014 237.794 89.9583 238.108 90.0218L238.14 90.0284C238.024 90.8223 237.848 91.6062 237.613 92.3734C236.937 94.5143 235.825 96.4923 234.348 98.1834C232.871 99.8745 231.061 101.242 229.031 102.201C228.898 102.262 228.768 102.322 228.635 102.38C229.606 105.602 230.154 108.938 230.265 112.302C230.324 114.286 230.223 116.272 229.962 118.24L229.975 118.17C230.504 115.993 231.769 114.065 233.555 112.712C236.206 110.733 239.85 110.129 242.683 108.571C242.985 108.397 243.33 108.312 243.678 108.327C244.026 108.343 244.362 108.457 244.647 108.658C244.932 108.858 245.154 109.135 245.286 109.457C245.419 109.78 245.456 110.133 245.394 110.476C245.39 110.5 245.385 110.524 245.38 110.549C244.961 110.697 244.552 110.871 244.156 111.07C243.929 111.185 243.706 111.307 243.487 111.437C243.213 111.603 242.995 111.847 242.861 112.139C242.728 112.431 242.686 112.756 242.741 113.071C242.796 113.387 242.944 113.679 243.168 113.909C243.391 114.139 243.679 114.296 243.993 114.36L244.026 114.366C244.049 114.37 244.069 114.375 244.092 114.379C243.312 116.022 242.256 117.518 240.968 118.802C239.379 120.356 237.49 121.568 235.416 122.365C233.343 123.162 231.128 123.527 228.908 123.438L228.904 123.438C228.18 126.028 227.189 128.535 225.946 130.92L216.641 130.487C216.613 130.382 216.588 130.274 216.563 130.169C217.421 130.264 218.288 130.252 219.144 130.136C218.493 129.257 217.843 128.371 217.192 127.491C217.177 127.475 217.164 127.458 217.151 127.439C216.821 126.99 216.487 126.543 216.157 126.093L216.157 126.093C216.2 124.763 216.415 123.444 216.795 122.169L216.795 122.169Z" fill="#F2F2F2"/>
<path d="M29.3197 41.7108C29.0821 41.7478 28.8388 41.7108 28.6229 41.6049C28.4069 41.499 28.2288 41.3292 28.1125 41.1186C27.9963 40.9081 27.9476 40.6669 27.973 40.4277C27.9985 40.1885 28.0968 39.963 28.2547 39.7816C28.2714 39.6615 28.2834 39.5753 28.3001 39.4552C28.2868 39.4309 28.2735 39.4066 28.26 39.3824C27.9576 38.8402 27.5017 38.3995 26.9496 38.1156C26.3975 37.8317 25.7738 37.7173 25.1568 37.7867C24.5399 37.8561 23.9572 38.1063 23.482 38.5058C23.0068 38.9053 22.6602 39.4363 22.4858 40.0322C21.7886 42.4104 20.8336 44.8206 20.7991 47.2588C20.7844 48.3365 20.9566 49.4085 21.3083 50.4273C18.5628 45.8281 16.8382 40.6923 16.2516 35.3682C16.1058 34.032 16.0348 32.6887 16.039 31.3446C16.0434 30.2426 16.0962 29.1432 16.1974 28.0464C16.7534 22.0943 18.7134 16.359 21.9164 11.3115C23.6046 10.137 24.8923 8.47326 25.6058 6.54444C25.8648 5.85082 26.0221 5.12336 26.0727 4.38467C25.8732 4.43324 25.6692 4.47222 25.4682 4.5075C25.4055 4.51766 25.3395 4.52822 25.2768 4.5384L25.2531 4.54206C25.0317 4.57625 24.8051 4.5457 24.6006 4.45411C24.3962 4.36251 24.2225 4.21377 24.1006 4.02579C23.9787 3.83781 23.9138 3.61859 23.9136 3.39455C23.9134 3.1705 23.9779 2.95118 24.0995 2.76297C24.1752 2.64588 24.251 2.52885 24.3268 2.41186C24.4415 2.23146 24.5599 2.05402 24.6746 1.87365C24.6882 1.85622 24.7008 1.83802 24.7123 1.81915C24.8445 1.61335 24.9769 1.4109 25.109 1.2051C24.7833 0.802869 24.369 0.481315 23.8986 0.265506C22.271 -0.464191 20.2277 0.386046 19.273 1.89028C18.315 3.39484 18.3171 5.35923 18.8901 7.04653C19.4288 8.47672 20.2069 9.8048 21.1913 10.9739C21.1198 11.0891 21.0447 11.2014 20.9733 11.3166C19.6686 13.432 18.5745 15.6702 17.7064 17.999C17.7068 15.4957 17.113 13.0282 15.9737 10.7993C14.8396 8.72984 12.9573 7.08782 11.2707 5.37562C9.24492 3.319 5.69952 4.69836 5.69602 7.58514C5.69599 7.61309 5.69603 7.64102 5.69613 7.66894C5.92989 7.76923 6.15983 7.87767 6.38594 7.99423C6.67019 8.14246 6.90304 8.3731 7.05398 8.65592C7.20491 8.93874 7.26689 9.26056 7.2318 9.57921C7.19671 9.89786 7.06618 10.1985 6.85732 10.4417C6.64845 10.6849 6.37099 10.8593 6.0613 10.9421L6.02958 10.9506C6.19438 11.7359 6.41863 12.5074 6.7004 13.2587C7.50796 15.3536 8.7396 17.2591 10.3181 18.8558C11.8966 20.4524 13.7879 21.7057 15.8735 22.5372C16.0102 22.5894 16.1435 22.6421 16.2798 22.6911C15.5096 25.9676 15.1687 29.3304 15.2657 32.6948C15.3292 34.679 15.5531 36.6549 15.9352 38.603L15.9176 38.5344C15.2549 36.394 13.8739 34.5478 12.0077 33.3078C9.23921 31.4965 5.56512 31.1183 2.6409 29.7385C2.32917 29.5831 1.97952 29.5201 1.63316 29.5569C1.28681 29.5937 0.958208 29.7288 0.686117 29.9463C0.414025 30.1637 0.209791 30.4544 0.0975033 30.7841C-0.0147842 31.1138 -0.0304431 31.4688 0.0523754 31.8071C0.058706 31.8311 0.0651027 31.8551 0.071561 31.8792C0.498371 32.0012 0.917163 32.1496 1.32551 32.3237C1.55927 32.424 1.7892 32.5325 2.01531 32.649C2.29956 32.7972 2.53241 33.0279 2.68335 33.3107C2.83428 33.5935 2.89626 33.9154 2.86117 34.234C2.82608 34.5527 2.69555 34.8533 2.48669 35.0965C2.27782 35.3397 2.00037 35.5141 1.69067 35.5969L1.65893 35.6054C1.63607 35.6113 1.61651 35.6168 1.59368 35.6226C2.47337 37.2141 3.62043 38.6422 4.98462 39.8445C6.66625 41.2965 8.62675 42.3898 10.7459 43.0573C12.8651 43.7248 15.0982 43.9523 17.3085 43.7261L17.3118 43.7257C18.1947 46.2659 19.3393 48.7075 20.727 51.0111L29.9869 50.0039C30.009 49.8974 30.0273 49.7879 30.046 49.6818C29.1947 49.8289 28.3286 49.8712 27.4671 49.8078C28.0624 48.8901 28.657 47.9657 29.2524 47.0479C29.266 47.0305 29.2786 47.0123 29.2901 46.9934C29.5917 46.5241 29.8969 46.0577 30.1985 45.5883L30.1986 45.5877C30.0733 44.2632 29.778 42.9602 29.32 41.711L29.3197 41.7108Z" fill="#F2F2F2"/>
<path d="M157.254 38.2793C157.712 38.4054 158.137 38.6305 158.499 38.9386C158.861 39.2468 159.151 39.6306 159.348 40.063C159.546 40.4953 159.646 40.9658 159.643 41.4411C159.639 41.9165 159.531 42.3852 159.326 42.8142L164.295 48.3388L161.674 52.1774L154.766 44.277C154.068 43.8855 153.538 43.2515 153.277 42.4952C153.015 41.7389 153.039 40.9128 153.346 40.1735C153.653 39.4342 154.22 38.833 154.94 38.4839C155.66 38.1348 156.483 38.062 157.254 38.2793Z" fill="#A0616A"/>
<path d="M203.773 51.845C203.325 51.1158 202.738 50.4823 202.045 49.9807C201.351 49.4792 200.566 49.1194 199.733 48.9221C198.9 48.7247 198.037 48.6937 197.192 48.8309C196.348 48.968 195.538 49.2705 194.811 49.7211L178.468 59.8426L160.84 44.8578L156.454 48.9414L175.928 74.2082L201.239 61.0133C200.649 61.3212 204.487 53.0067 203.773 51.845Z" fill="#CCCCCC"/>
<path d="M171.399 85.4994C171.401 93.5705 169.813 101.563 166.725 109.02C163.637 116.477 159.11 123.253 153.403 128.96C147.695 134.667 140.92 139.194 133.463 142.282C126.006 145.37 118.013 146.959 109.942 146.957C76.0003 146.957 48.4844 119.441 48.4844 85.4994C48.4785 78.8972 49.5369 72.3373 51.6187 66.072C55.706 53.8358 63.5364 43.1942 74.0026 35.6518C84.4688 28.1094 97.0412 24.048 109.942 24.0419C121.068 24.038 131.986 27.0556 141.531 32.7724C151.076 38.4893 158.89 46.6909 164.137 56.5017C165.438 58.9222 166.573 61.4284 167.534 64.0029C167.668 64.3614 167.797 64.7199 167.924 65.0818V65.0852C168.487 66.6763 168.983 68.2969 169.412 69.9472C170.736 75.0252 171.404 80.2517 171.399 85.4994Z" fill="#3F3D56"/>
<path d="M103.217 44.0349C100.455 42.5413 97.389 41.6982 94.2517 41.5698C91.1145 41.4415 87.9894 42.0313 85.1147 43.2942C82.5837 44.3957 79.9186 46.3717 79.0742 49.94C82.4891 47.9247 86.9097 51.1089 87.7884 56.2172L87.5833 56.2737C87.1192 59.8119 88.1553 63.664 90.1612 65.8579C90.4246 63.5791 91.923 62.0281 93.3968 61.0593C94.8706 60.0904 96.501 59.3867 97.6259 57.7213C98.9595 55.7471 99.2982 52.8617 99.828 50.2295C100.358 47.5974 101.363 44.7683 103.217 44.0349Z" fill="white"/>
<path d="M84.1018 74.1435C83.1561 75.5638 81.8928 76.455 80.7593 77.5646C79.6292 78.6777 78.5536 80.1799 78.3283 82.109C78.1849 83.345 78.4068 84.6014 78.376 85.8511C78.3454 87.1007 77.9288 88.5074 77.0786 88.8181C75.7368 89.303 74.7125 86.8105 73.3331 86.6364C72.2371 86.4998 71.2504 88.2241 71.5679 89.7195C71.8855 91.215 73.3775 91.8773 74.2345 90.9009C75.0096 92.2017 74.4633 94.561 73.299 94.9605C73.1761 95.7799 73.0532 96.596 72.9337 97.4154C69.9905 95.3565 67.0167 93.2636 64.514 90.2487C61.7306 86.9241 60.0042 82.8436 59.5564 78.5308C59.2321 75.0653 59.7135 71.1013 58.1224 68.4348C56.8489 66.3008 54.6637 65.8296 52.6971 65.9628C52.3386 65.9867 51.9767 66.0277 51.6182 66.0721C52.778 62.5886 54.251 59.2175 56.0192 55.9999C56.4193 55.8281 56.7911 55.5967 57.122 55.3136C58.9521 53.7601 59.7647 50.6155 61.2499 48.4406C61.3455 48.3006 61.4445 48.164 61.547 48.0309C63.0663 46.0471 65.1013 45.0263 67.0679 44.0771C71.4211 41.9636 75.9007 39.8229 80.4964 40.1165L79.1887 40.2428C77.6625 44.5175 76.1352 48.7922 74.6067 53.067C74.3745 53.7225 74.1401 54.3792 73.9034 55.037C73.0361 57.468 72.1416 60.056 72.2747 62.7772C72.3532 64.3888 72.9132 66.1096 73.9785 66.6627C74.972 67.1749 76.0578 66.5466 77.0172 65.9252C77.4235 65.6657 77.8264 65.4062 78.2327 65.1433C79.6906 64.2044 81.3055 63.2416 82.8454 63.8698C84.2555 64.4434 85.2968 66.3588 85.4949 68.4245C85.6765 70.4325 85.1865 72.4439 84.1018 74.1435Z" fill="white"/>
<path d="M92.773 103.328C88.5151 100.706 84.2571 98.0846 79.9991 95.4629L80.0714 95.2767C77.424 96.2851 76.3248 100.991 76.7623 104.839C77.1998 108.688 78.6834 112.128 79.4329 115.878C80.4434 121.009 80.062 126.318 78.3282 131.252C83.9272 124.97 88.8822 118.142 93.119 110.871C93.7109 109.955 94.1619 108.955 94.4569 107.904C94.7274 106.787 94.6858 105.444 94.1441 104.548C93.7956 104.033 93.3243 103.614 92.773 103.328Z" fill="white"/>
<path d="M75.9679 55.6317C75.5158 56.6483 75.3418 58.0038 75.7521 59.0557C76.1712 60.1299 77.057 60.6154 77.8726 61.0196L80.2253 62.1858C81.008 62.5738 81.8517 62.9656 82.6496 62.6464C83.612 62.2614 84.2792 60.7527 84.1066 59.352C83.9229 57.8615 82.9834 56.8362 82.1145 55.9632C80.8985 54.7413 79.6825 53.5195 78.4666 52.2977L77.7813 53.1371C77.0401 53.8601 76.4269 54.7036 75.9679 55.6317Z" fill="white"/>
<path d="M158.786 71.5656C159.845 71.8149 160.903 72.0641 161.962 72.3133C161.777 75.8881 160.005 79.1966 157.629 80.395C156.639 80.8935 155.536 81.0779 154.717 82.01C153.976 82.8567 153.6 84.1746 153.255 85.4345C152.651 87.6333 152.047 89.8321 151.442 92.0309C150.794 94.4005 149.961 97.0329 148.274 97.8865C146.826 98.6206 145.17 97.7226 144.057 96.2169C142.944 94.7112 142.265 92.6865 141.606 90.7131C141.647 92.864 140.646 94.9741 139.229 95.7218C137.809 96.4695 136.081 95.7935 135.132 94.1239C134.449 92.9255 134.166 91.3447 133.497 90.1292C132.828 88.9137 131.424 88.2172 130.694 89.3575C130.212 90.1156 130.274 91.2764 130.035 92.2392C129.662 93.7347 128.536 94.6736 127.419 94.7556C126.306 94.8375 125.22 94.1956 124.288 93.325C122.366 91.5222 120.949 88.6611 120.399 85.4823C120.157 84.0654 120.089 82.5221 120.509 81.1939C120.929 79.8658 121.943 78.8415 122.95 79.0942C123.612 77.6943 122.305 75.8369 121.127 76.0008C119.945 76.1647 119.02 77.4314 118.05 78.4045C117.084 79.3775 115.732 80.0843 114.759 79.118C114.766 80.016 114.035 80.6101 113.404 80.535C112.775 80.4633 112.215 79.958 111.638 79.5995C109.409 78.2098 106.578 79.1317 104.994 81.7607C105.984 77.5475 107.435 72.7128 110.477 71.7226C111.72 71.3164 113.076 71.6509 114.25 70.9476C116.33 69.7014 116.75 64.9931 114.954 63.0503C115.182 64.8872 115.138 67.0314 114.168 68.2879C113.199 69.5443 111.164 68.7249 111.287 66.8675C111.007 68.1479 109.614 68.3425 108.972 67.3591C108.327 66.3759 108.381 64.7677 108.839 63.5932C109.296 62.4186 110.075 61.5753 110.829 60.7661C112.451 59.0283 114.097 57.2699 115.975 56.1773C117.856 55.0847 120.027 54.716 121.912 55.8017C122.906 56.3753 123.78 57.3314 124.794 57.8367C125.808 58.3454 127.095 58.2805 127.768 57.0923C128.522 55.7676 128.167 53.8009 128.447 52.145C128.949 49.219 131.875 47.8498 133.497 49.7823C132.285 49.4716 131.032 50.9056 130.881 52.6435C130.728 54.3814 131.605 56.1363 132.78 56.6622C134.753 57.5362 136.686 55.3374 138.178 53.3025C139.735 51.1719 141.294 49.0425 142.855 46.9143C143.105 46.5519 143.385 46.2116 143.692 45.8968C144.181 45.4202 144.833 45.1472 145.516 45.1333C146.198 45.1193 146.861 45.3654 147.369 45.8217C148.947 47.1089 149.687 49.7482 150.981 51.5646C152.859 54.2038 155.669 54.8457 158.285 55.3579C160.234 55.7369 162.185 56.1181 164.137 56.5017C165.438 58.9222 166.573 61.4284 167.534 64.0029C164.229 65.4062 161.18 68.0318 158.786 71.5656Z" fill="white"/>
<path d="M165.089 112.647C163.627 115.617 161.925 118.463 160.002 121.158C158.773 120.633 157.452 121.572 156.301 122.452C155.099 123.374 153.655 124.272 152.422 123.432C151.162 122.572 150.756 120.165 151.156 118.256C151.555 116.351 152.552 114.835 153.518 113.394C154.543 111.865 155.639 110.277 157.062 109.683C158.49 109.089 160.323 109.929 160.74 111.957L161.75 111.923C161.183 111.144 161.48 109.533 162.242 109.249C163.119 108.918 163.881 110.123 164.4 111.189C164.632 111.67 164.867 112.155 165.089 112.647Z" fill="white"/>
<path d="M126.383 98.2248C124.21 98.3614 122.49 95.6872 121.346 93.0564C120.203 90.4255 119.159 87.417 117.199 86.0779C116.079 85.3128 114.803 85.2078 113.588 84.837C112.373 84.4662 111.101 83.699 110.521 82.1366L109.143 81.58C107.323 82.6032 105.479 83.6452 103.911 85.3104C102.152 87.1786 101.057 89.5735 100.794 92.1258C100.53 94.884 101.502 97.9595 103.319 98.9956C104.754 99.8143 106.425 99.2983 107.878 100.048C109.694 100.984 110.773 103.704 111.181 106.39C111.589 109.076 111.486 111.867 111.778 114.584C112.07 117.3 112.875 120.127 114.54 121.519C116.625 123.26 119.683 121.813 120.618 118.642C121.077 117.087 121.061 115.332 121.404 113.717C122.008 110.874 123.639 108.764 124.932 106.432C126.225 104.099 127.243 100.932 126.383 98.2248Z" fill="white"/>
<path d="M104.917 70.285C105.12 70.4715 105.309 70.6722 105.483 70.8855C105.663 71.1961 105.755 71.55 105.749 71.9091C105.743 72.2681 105.639 72.6186 105.448 72.9229C105.71 72.908 105.966 72.839 106.199 72.7203C106.433 72.6015 106.64 72.4356 106.806 72.233C107.202 71.7815 107.551 71.2902 107.847 70.767C108.068 70.4057 108.304 69.9172 108.153 69.4881C108.051 69.1953 107.808 69.0703 107.638 68.8501C107.368 68.501 107.301 67.9465 107.162 67.4673C106.86 66.4324 106.138 65.6714 105.355 65.5626L105.463 65.5835C105.136 65.6956 104.907 66.2156 104.98 66.6834C105.046 67.1095 105.32 67.4632 105.292 67.8978C105.253 68.5226 104.629 68.8158 104.59 69.4408C104.584 69.7543 104.702 70.0576 104.917 70.285Z" fill="white"/>
<path d="M101.195 59.6663C101.199 59.6655 101.202 59.6653 101.205 59.6645C101.272 59.6036 101.334 59.5376 101.39 59.467L101.195 59.6663Z" fill="#E6E6E6"/>
<path d="M101.847 62.5996C102.328 62.2907 102.596 61.4365 102.437 60.7216C102.279 60.0111 101.721 59.5334 101.206 59.6646C101.056 59.8162 100.871 59.9272 100.667 59.9873C100.462 60.0474 100.246 60.0546 100.039 60.0082C99.7201 59.9262 99.3704 59.7151 99.0942 59.955C98.9361 60.1343 98.8255 60.3502 98.7725 60.5832C98.6702 60.897 98.568 61.2109 98.4657 61.5247C98.4172 61.6371 98.4045 61.7617 98.4295 61.8815C98.4491 61.9295 98.4807 61.9717 98.5213 62.004C98.5619 62.0363 98.6101 62.0576 98.6613 62.0658C99.2747 62.2467 99.8882 62.4275 100.502 62.6084C100.949 62.7401 101.431 62.8671 101.847 62.5996Z" fill="white"/>
<path d="M148.159 103.093C147.876 102.629 147.592 102.164 147.309 101.7C147.03 101.162 146.649 100.684 146.188 100.292C146.086 100.207 145.969 100.144 145.842 100.105C145.715 100.066 145.582 100.052 145.451 100.065C145.319 100.079 145.191 100.118 145.075 100.181C144.959 100.245 144.856 100.331 144.773 100.434L144.808 100.699C145.454 101.51 146.138 102.411 146.302 103.615C146.367 104.089 146.344 104.58 146.401 105.057C146.458 105.533 146.619 106.027 146.926 106.233C147.373 106.531 147.897 106.091 148.215 105.555C148.499 105.114 148.627 104.59 148.577 104.068C148.506 103.718 148.364 103.386 148.159 103.093Z" fill="white"/>
<path d="M160.78 85.3616C160.862 84.8238 160.944 84.286 161.026 83.7482C161.159 83.1574 161.175 82.5464 161.074 81.9494C161.051 81.8189 161.003 81.6944 160.931 81.5831C160.859 81.4718 160.766 81.376 160.657 81.3012C160.547 81.2265 160.424 81.1743 160.295 81.1479C160.165 81.1214 160.031 81.1211 159.901 81.1471L159.757 81.3722C159.729 82.4089 159.672 83.5385 159.023 84.5648C158.767 84.9695 158.433 85.3307 158.17 85.7317C157.906 86.1328 157.711 86.6147 157.814 86.9699C157.964 87.4857 158.648 87.4869 159.237 87.2809C159.738 87.1266 160.173 86.8081 160.471 86.3767C160.642 86.063 160.747 85.7175 160.78 85.3616Z" fill="#E6E6E6"/>
<path d="M152.608 103.697C152.747 103.298 152.547 102.841 152.504 102.401C152.484 101.832 152.635 101.27 152.937 100.788C153.238 100.333 153.465 99.8335 153.612 99.3083C153.674 99.0691 153.663 98.8168 153.58 98.5839C153.486 98.3731 153.259 98.2769 153.128 98.4439L153.407 98.6236C153.03 98.5564 152.643 98.5751 152.275 98.6785C152.064 98.7589 151.877 98.8889 151.727 99.0573C151.578 99.2258 151.471 99.4277 151.416 99.6461C151.37 99.9866 151.295 100.322 151.191 100.65C151.025 100.992 150.702 101.106 150.5 101.406C150.362 101.673 150.292 101.969 150.297 102.269C150.302 102.569 150.382 102.863 150.528 103.124C150.783 103.552 151.187 103.87 151.663 104.016C152.004 104.139 152.452 104.145 152.608 103.697Z" fill="white"/>
<path d="M160.53 106.087C160.653 106.408 160.818 106.711 161.021 106.988C161.4 107.37 161.915 107.135 162.375 107.042C162.793 106.977 163.221 107.025 163.613 107.182C164.005 107.34 164.348 107.6 164.604 107.936C164.425 107.046 164.036 106.212 163.468 105.504C162.901 104.796 162.171 104.234 161.342 103.866C160.257 103.424 159.115 103.382 157.987 103.342L157.792 103.392C158.288 104.837 159.847 104.805 160.53 106.087Z" fill="white"/>
<path d="M126.978 109.044L126.98 109.05C126.999 109.013 127.018 108.977 127.037 108.94L126.978 109.044Z" fill="#E6E6E6"/>
<path d="M125.776 111.369C125.513 111.845 125.288 112.34 125.101 112.85C124.854 113.677 124.69 114.526 124.613 115.385C124.552 115.873 124.533 116.497 124.839 116.735C124.927 116.793 125.033 116.818 125.137 116.803C125.242 116.789 125.338 116.737 125.407 116.658C125.577 116.478 125.716 116.271 125.818 116.046C126.42 115.01 126.887 113.902 127.208 112.748C127.501 111.533 127.498 110.102 126.98 109.049C126.579 109.823 126.177 110.596 125.776 111.369Z" fill="white"/>
<path d="M114.182 49.3942C114.373 49.5808 114.614 49.7075 114.876 49.7586C115.138 49.8098 115.41 49.7831 115.657 49.682C116.168 49.4583 116.637 49.1483 117.044 48.7655C117.381 48.5165 117.666 48.205 117.885 47.848C118.006 47.6347 118.083 47.3997 118.112 47.1564C118.142 46.9132 118.123 46.6665 118.057 46.4305C117.867 45.8748 117.385 45.6885 116.96 45.5624C116.279 45.3605 115.598 45.1585 114.917 44.9566L115.409 44.5127C114.903 44.2407 114.342 44.7455 114.025 45.3704C113.822 45.7785 113.681 46.2143 113.605 46.6639C113.436 47.6448 113.601 48.8129 114.182 49.3942Z" fill="#E6E6E6"/>
<path d="M126.203 45.3584C126.395 45.57 126.66 45.7006 126.945 45.7238C127.229 45.747 127.512 45.6609 127.736 45.4832C127.928 45.3386 128.088 45.1551 128.205 44.9447C128.322 44.7343 128.393 44.5016 128.414 44.2618C128.462 43.7262 128.197 43.1309 127.819 43.0847L127.906 42.5832C127.177 42.4516 126.281 42.4252 125.89 43.3101C125.758 43.649 125.718 44.0166 125.773 44.376C125.828 44.7355 125.976 45.0742 126.203 45.3584Z" fill="#E6E6E6"/>
<path d="M124.598 18.6909C120.326 18.2091 116.038 19.4439 112.677 22.1236C109.316 24.8033 107.157 28.7085 106.675 32.9801C105.672 41.8751 110.358 61.1909 118.902 69.1869C122.925 53.8673 137.022 44.7806 138.887 36.6136C140.88 27.8869 133.493 19.6943 124.598 18.6909Z" fill="#0DB3FB"/>
<path d="M121.643 38.4656C124.563 38.4656 126.929 36.099 126.929 33.1797C126.929 30.2603 124.563 27.8937 121.643 27.8937C118.724 27.8937 116.357 30.2603 116.357 33.1797C116.357 36.099 118.724 38.4656 121.643 38.4656Z" fill="white"/>
<path d="M116.085 76.8086C117.997 76.8086 119.547 75.2585 119.547 73.3464C119.547 71.4342 117.997 69.8842 116.085 69.8842C114.173 69.8842 112.623 71.4342 112.623 73.3464C112.623 75.2585 114.173 76.8086 116.085 76.8086Z" fill="#0DB3FB"/>
<path opacity="0.2" d="M126.016 29.3925C126.611 29.7501 127.13 30.2213 127.543 30.7793C127.956 31.3373 128.255 31.9712 128.423 32.6447C128.591 33.3182 128.624 34.0183 128.522 34.7048C128.419 35.3913 128.182 36.0509 127.825 36.6459C127.467 37.2409 126.996 37.7596 126.438 38.1725C125.88 38.5854 125.246 38.8843 124.572 39.0522C123.212 39.3914 121.773 39.1762 120.571 38.4542C121.796 38.7267 123.079 38.5543 124.188 37.9679C125.298 37.3815 126.163 36.4192 126.628 35.2534C127.093 34.0876 127.128 32.7944 126.727 31.6051C126.325 30.4159 125.514 29.4083 124.438 28.7627C124.994 28.8861 125.528 29.0988 126.016 29.3925Z" fill="#231F20"/>
<path opacity="0.2" d="M138.907 36.6307C137.042 44.7977 122.945 53.8845 118.922 69.204C118.119 68.4448 117.372 67.6272 116.689 66.7579C121.21 52.358 134.43 43.608 136.232 35.7172C137.845 28.6548 133.314 21.943 126.812 19.1077C134.682 21.086 140.734 28.6335 138.907 36.6307Z" fill="#231F20"/>
<path d="M75.0629 39.3161C71.8551 38.9543 68.6349 39.8816 66.1108 41.8939C63.5867 43.9063 61.9654 46.839 61.6036 50.0468C60.8501 56.7266 64.3692 71.2322 70.7854 77.2368C73.8064 65.7324 84.3927 58.9086 85.7935 52.7754C87.2903 46.2219 81.7427 40.0696 75.0629 39.3161Z" fill="#0DB3FB"/>
<path d="M72.8436 54.1662C75.036 54.1662 76.8132 52.389 76.8132 50.1966C76.8132 48.0043 75.036 46.2271 72.8436 46.2271C70.6513 46.2271 68.874 48.0043 68.874 50.1966C68.874 52.389 70.6513 54.1662 72.8436 54.1662Z" fill="white"/>
<path d="M68.6703 82.9604C70.1062 82.9604 71.2703 81.7963 71.2703 80.3604C71.2703 78.9244 70.1062 77.7604 68.6703 77.7604C67.2344 77.7604 66.0703 78.9244 66.0703 80.3604C66.0703 81.7963 67.2344 82.9604 68.6703 82.9604Z" fill="#0DB3FB"/>
<path opacity="0.2" d="M76.1281 47.3525C76.5749 47.621 76.9645 47.9749 77.2746 48.3939C77.5846 48.813 77.8091 49.289 77.9352 49.7948C78.0613 50.3006 78.0866 50.8263 78.0095 51.3418C77.9324 51.8574 77.7546 52.3527 77.4861 52.7995C77.2176 53.2463 76.8637 53.6359 76.4447 53.946C76.0256 54.256 75.5496 54.4805 75.0438 54.6066C74.538 54.7327 74.0123 54.758 73.4968 54.6809C72.9812 54.6038 72.4859 54.426 72.0391 54.1575C72.9591 54.3621 73.922 54.2327 74.7554 53.7923C75.5887 53.3519 76.2381 52.6293 76.5874 51.7538C76.9366 50.8784 76.9629 49.9072 76.6615 49.0141C76.3602 48.121 75.7508 47.3644 74.9425 46.8795C75.3606 46.9722 75.761 47.1319 76.1281 47.3525Z" fill="#231F20"/>
<path opacity="0.2" d="M85.8088 52.7881C84.4081 58.9213 73.8218 65.7451 70.8007 77.2496C70.1973 76.6794 69.6369 76.0654 69.124 75.4126C72.5188 64.5987 82.4462 58.0278 83.7996 52.1021C85.0109 46.7985 81.6083 41.7581 76.726 39.6289C82.6361 41.1146 87.1805 46.7825 85.8088 52.7881Z" fill="#231F20"/>
<path d="M199.342 183.116H194.984L192.91 166.305L199.343 166.305L199.342 183.116Z" fill="#A0616A"/>
<path d="M201.686 191.392H198.593L198.041 188.472L196.628 191.392H188.425C188.032 191.392 187.649 191.266 187.332 191.033C187.016 190.8 186.782 190.472 186.665 190.097C186.548 189.721 186.554 189.318 186.682 188.947C186.81 188.575 187.054 188.254 187.377 188.031L193.928 183.507V180.555L200.817 180.966L201.686 191.392Z" fill="#2F2E41"/>
<path d="M182.46 183.116H178.102L176.028 166.305L182.461 166.305L182.46 183.116Z" fill="#A0616A"/>
<path d="M184.805 191.392H181.713L181.161 188.472L179.747 191.392H171.544C171.151 191.392 170.768 191.266 170.451 191.033C170.135 190.8 169.901 190.472 169.784 190.097C169.667 189.721 169.673 189.318 169.801 188.947C169.929 188.575 170.173 188.254 170.496 188.031L177.047 183.507V180.555L183.937 180.966L184.805 191.392Z" fill="#2F2E41"/>
<path d="M165.902 138.731C166.736 139.982 175.809 174.374 175.809 174.374L183.855 175.292L182.9 166.638L181.44 151.325L179.18 141.103C179.18 141.103 187.162 122.938 187.667 121.49L188.025 120.452L190.519 143.084C190.815 143.892 190.944 144.752 190.899 145.612C190.823 147.025 192.241 168.294 192.241 168.294L192.923 175.921L199.816 176.879L202.613 163.682C204.948 159.394 203.61 144.16 202.655 142.742C201.7 141.324 202.079 131.449 202.079 131.449C203.299 131.02 210.571 106.222 206.933 106.369C207.167 105.047 207.35 103.867 207.35 103.867L201.037 98.7747L185.235 94.667L181.249 92.7528C181.249 92.7528 174.129 105.918 174.2 106.573C174.298 107.402 174.108 108.24 173.662 108.946L166.473 133.005C166.473 133.005 165.059 137.467 165.902 138.731Z" fill="#2F2E41"/>
<path d="M205.6 52.64L203.086 47.3029L194.531 47.6317L191.74 53.1842C191.74 53.1842 183.764 62.7101 183.506 65.8075C183.182 69.7032 185.88 88.7962 183.182 87.5586C183.182 87.5586 176.82 95.0254 180.585 95.0254C184.349 95.0254 201.375 105.714 202.493 106.916C203.61 108.118 208.597 108.897 208.179 106.388C207.761 103.878 205.6 90.3071 205.6 90.3071L211.45 68.9673C213.133 64.3601 213.657 59.1922 209.852 56.0973L205.6 52.64Z" fill="#CCCCCC"/>
<path d="M173.909 36.9312C172.765 36.477 171.542 36.2526 170.311 36.2708C169.08 36.2891 167.864 36.5496 166.734 37.0376C165.603 37.5256 164.58 38.2315 163.722 39.1149C162.865 39.9983 162.19 41.0421 161.735 42.1865C159.825 46.9993 159.508 58.4927 163.064 64.253C167.635 56.3125 176.883 53.3804 179.164 49.1048C181.602 44.5362 178.722 38.8417 173.909 36.9312Z" fill="#0DB3FB"/>
<path d="M170.06 47.6281C171.748 47.6281 173.118 46.2591 173.118 44.5703C173.118 42.8816 171.748 41.5126 170.06 41.5126C168.371 41.5126 167.002 42.8816 167.002 44.5703C167.002 46.2591 168.371 47.6281 170.06 47.6281Z" fill="white"/>
<path d="M160.86 68.1501C161.966 68.1501 162.863 67.2534 162.863 66.1473C162.863 65.0412 161.966 64.1445 160.86 64.1445C159.754 64.1445 158.857 65.0412 158.857 66.1473C158.857 67.2534 159.754 68.1501 160.86 68.1501Z" fill="#0DB3FB"/>
<path opacity="0.2" d="M173.076 43.1203C173.636 43.706 173.941 44.4901 173.924 45.3003C173.906 46.1105 173.567 46.8806 172.982 47.4414C172.397 48.0022 171.613 48.3077 170.803 48.2909C169.993 48.2741 169.222 47.9363 168.661 47.3518C169.304 47.6899 170.046 47.7884 170.754 47.6295C171.462 47.4706 172.091 47.0648 172.528 46.4846C172.964 45.9045 173.18 45.188 173.137 44.4632C173.093 43.7385 172.793 43.0528 172.291 42.5291C172.583 42.6825 172.848 42.8821 173.076 43.1203Z" fill="#231F20"/>
<path opacity="0.2" d="M179.173 49.1176C176.892 53.3932 167.643 56.3252 163.072 64.2658C162.739 63.72 162.446 63.1503 162.197 62.5614C166.907 55.2097 175.614 52.3325 177.818 48.2015C179.791 44.5041 178.28 40.0698 175.082 37.5001C179.174 39.7992 181.406 44.9308 179.173 49.1176Z" fill="#231F20"/>
<path d="M159.957 65.4577C160.423 65.3617 160.904 65.369 161.366 65.479C161.829 65.589 162.261 65.7991 162.634 66.0945C163.006 66.3898 163.31 66.7632 163.522 67.1884C163.735 67.6136 163.851 68.0802 163.864 68.5554L170.801 71.2182L170.211 75.8285L160.468 71.9306C159.668 71.899 158.907 71.5752 158.33 71.0205C157.754 70.4657 157.4 69.7187 157.337 68.9208C157.274 68.1229 157.506 67.3297 157.989 66.6914C158.472 66.0532 159.172 65.6142 159.957 65.4577L159.957 65.4577Z" fill="#A0616A"/>
<path d="M208.428 55.9571C207.698 55.5112 206.886 55.2139 206.041 55.0822C205.195 54.9505 204.332 54.987 203.501 55.1897C202.669 55.3924 201.886 55.7572 201.196 56.2632C200.506 56.7692 199.922 57.4065 199.479 58.1385L189.522 74.5814L167.009 69.245L164.958 74.8758L193.788 88.5321L208.39 65.2756C210.576 62.2034 211.646 57.9219 208.428 55.9571Z" fill="#CCCCCC"/>
<path d="M208.8 35.8058C208.801 37.3906 208.412 38.9513 207.669 40.3509C206.925 41.7506 205.85 42.9463 204.536 43.8332C203.223 44.7201 201.712 45.271 200.136 45.4376C198.56 45.6041 196.967 45.3813 195.497 44.7886C194.028 44.1959 192.726 43.2515 191.706 42.0382C190.687 40.8249 189.98 39.3799 189.65 37.83C189.319 36.2801 189.374 34.6727 189.809 33.1489C190.245 31.6251 191.048 30.2316 192.147 29.0905L192.194 29.0441C192.271 28.9627 192.349 28.8814 192.43 28.8039C192.431 28.8039 192.431 28.8038 192.432 28.8036C192.432 28.8035 192.433 28.8032 192.433 28.8028C192.433 28.8024 192.434 28.802 192.434 28.8015C192.434 28.8011 192.434 28.8006 192.434 28.8001C192.535 28.7071 192.635 28.6142 192.74 28.5251C194.139 27.2986 195.862 26.5012 197.702 26.2285C199.543 25.9559 201.423 26.2194 203.117 26.9876C204.812 27.7558 206.249 28.9961 207.257 30.5601C208.265 32.124 208.801 33.9453 208.8 35.8058V35.8058Z" fill="#2F2E41"/>
<path d="M196.733 46.1646C201.217 46.1646 204.851 42.5297 204.851 38.046C204.851 33.5622 201.217 29.9274 196.733 29.9274C192.249 29.9274 188.614 33.5622 188.614 38.046C188.614 42.5297 192.249 46.1646 196.733 46.1646Z" fill="#9E616A"/>
<path d="M205.355 40.3612L204.01 40.1236C203.258 39.987 202.566 39.6242 202.026 39.0836C201.486 38.5431 201.124 37.8506 200.989 37.0988L199.676 39.2985L199.619 39.3176C196.492 40.3559 193.238 40.0453 189.674 38.3695C188.655 37.8861 187.666 37.3411 186.714 36.7374L186.643 36.6935L186.638 36.6109C186.456 33.9698 187.048 31.7634 188.307 30.3981C188.79 29.8845 189.376 29.4787 190.027 29.2073C190.678 28.936 191.379 28.8053 192.084 28.8237C192.134 28.8106 192.18 28.7852 192.218 28.7497C192.236 28.7364 192.254 28.7233 192.272 28.7107V28.6971L192.365 28.6532C192.566 28.559 192.77 28.4688 192.974 28.3864C194.58 27.7645 196.33 27.6085 198.021 27.9363C199.712 28.2641 201.276 29.0624 202.534 30.2395C205.035 32.6269 206.182 36.6334 205.388 40.2096L205.355 40.3612Z" fill="#2F2E41"/>
<path d="M222.479 47.2783C219.716 45.8523 223.269 40.6769 222.555 37.651C221.841 34.625 216.699 33.6518 216.372 30.56C216.044 27.4683 215.274 24.2795 213.234 21.9335C211.93 20.4343 210.009 19.3276 208.031 19.5154C207.362 19.5789 206.714 19.786 206.132 20.1223C205.551 20.4587 205.048 20.9166 204.659 21.4647C204.27 22.0129 204.003 22.6384 203.878 23.2988C203.752 23.9592 203.771 24.6388 203.932 25.2915C203.368 24.4936 201.911 24.6665 201.55 25.5741C201.23 26.3809 201.938 27.3582 202.772 27.4296C203.863 28.7769 205.112 30.2067 206.821 30.4785C207.094 30.541 207.377 30.5409 207.649 30.478C207.921 30.4152 208.175 30.2913 208.393 30.1157C208.795 29.7296 208.826 28.9576 208.349 28.6691C210.497 29.5223 211.756 31.8446 212.075 34.1336C212.394 36.4227 211.953 38.7388 211.662 41.0316C211.372 43.3244 211.247 45.7363 212.146 47.8655C213.208 50.3811 215.653 52.1841 218.322 52.7623C220.991 53.3405 223.833 52.7754 226.249 51.5022C228.664 50.2289 230.679 48.2852 232.324 46.106C229.49 48.1188 225.568 48.8729 222.479 47.2783Z" fill="#2F2E41"/>
<path d="M205.009 40.1355C205.009 40.1355 202.604 31.1586 192.295 29.0867C192.283 29.0828 192.245 29.0673 192.194 29.0441C192.163 29.0247 192.125 29.0054 192.086 28.986C192.202 28.9202 192.314 28.8621 192.431 28.804C192.431 28.804 192.432 28.8039 192.432 28.8037C192.433 28.8035 192.433 28.8032 192.433 28.8029C192.434 28.8025 192.434 28.8021 192.434 28.8016C192.434 28.8011 192.434 28.8006 192.434 28.8001C192.535 28.7072 192.636 28.6142 192.74 28.5251L193.035 28.5368C193.035 28.5368 203.379 26.8986 205.009 40.1355Z" fill="#FD6584"/>
<path opacity="0.2" d="M199.624 68.9403L193.801 75.6861L184.181 72.8451L194.669 77.6784L199.624 68.9403Z" fill="black"/>
<path d="M238.502 131.828C234.31 131.828 229.716 131.67 224.719 131.353C198.873 129.712 165.395 124.006 130.451 115.286C95.5067 106.566 63.2721 95.8742 39.6851 85.1804C28.1951 79.9709 19.3766 75.0397 13.4749 70.5236C7.22647 65.7425 4.49332 61.5751 5.35106 58.1375C7.02232 51.4405 21.8205 49.9753 33.9404 49.9255L33.9445 50.8995C17.3007 50.9678 7.4817 53.6222 6.29614 58.3734C4.78595 64.4248 17.1024 73.8721 40.0872 84.2933C63.6224 94.9637 95.7977 105.635 130.686 114.341C165.575 123.047 198.992 128.743 224.781 130.381C249.966 131.981 265.278 129.428 266.788 123.376C268.042 118.352 259.776 110.95 243.514 102.535L243.962 101.67C255.778 107.785 269.494 116.555 267.733 123.612C266.875 127.049 262.504 129.444 254.742 130.729C250.318 131.461 244.883 131.828 238.502 131.828Z" fill="#0DB3FB"/>
<defs>
<filter id="filter0_f_0_1" x="32" y="202" width="208" height="61" filterUnits="userSpaceOnUse" color-interpolation-filters="sRGB">
<feFlood flood-opacity="0" result="BackgroundImageFix"/>
<feBlend mode="normal" in="SourceGraphic" in2="BackgroundImageFix" result="shape"/>
<feGaussianBlur stdDeviation="13.5" result="effect1_foregroundBlur_0_1"/>
</filter>
</defs>
</svg>
