<svg width="57" height="76" viewBox="0 0 57 76" fill="none" xmlns="http://www.w3.org/2000/svg">
<path fill-rule="evenodd" clip-rule="evenodd" d="M6.35876e-07 73.6233V9.49978C6.35876e-07 6.98028 1.00089 4.56398 2.78249 2.78242C4.56408 1.00087 6.98044 0 9.5 0L47.5 0C50.0196 0 52.4359 1.00087 54.2175 2.78242C55.9991 4.56398 57 6.98028 57 9.49978V73.6233C57.0003 74.0357 56.8932 74.4411 56.6892 74.7996C56.4853 75.158 56.1915 75.4572 55.8368 75.6676C55.4821 75.878 55.0787 75.9925 54.6663 75.9996C54.2539 76.0068 53.8468 75.9065 53.485 75.7085L28.5 62.0763L3.515 75.7085C3.15319 75.9065 2.74606 76.0068 2.3337 75.9996C1.92133 75.9925 1.51794 75.878 1.16324 75.6676C0.808529 75.4572 0.514732 75.158 0.310767 74.7996C0.106801 74.4411 -0.000301121 74.0357 6.35876e-07 73.6233ZM29.26 19.4746C29.1906 19.3321 29.0825 19.2121 28.9481 19.1281C28.8137 19.0441 28.6585 18.9996 28.5 18.9996C28.3415 18.9996 28.1863 19.0441 28.0519 19.1281C27.9175 19.2121 27.8094 19.3321 27.74 19.4746L24.7285 25.5782C24.6682 25.7016 24.5787 25.8085 24.4678 25.8897C24.3569 25.9708 24.2279 26.0236 24.092 26.0437L17.347 27.0221C17.1917 27.0457 17.0461 27.112 16.9264 27.2137C16.8067 27.3154 16.7177 27.4484 16.6694 27.5979C16.621 27.7473 16.6153 27.9072 16.6528 28.0597C16.6902 28.2123 16.7694 28.3513 16.8815 28.4613L21.755 33.216C21.9545 33.4107 22.0448 33.691 21.9972 33.9665L20.8525 40.6828C20.8267 40.8379 20.8446 40.9971 20.9043 41.1426C20.964 41.288 21.063 41.414 21.1903 41.5062C21.3176 41.5985 21.4681 41.6534 21.6249 41.6649C21.7818 41.6763 21.9386 41.6438 22.078 41.571L28.1105 38.3981C28.2314 38.3349 28.3659 38.3018 28.5024 38.3018C28.6389 38.3018 28.7733 38.3349 28.8943 38.3981L34.9268 41.571C35.066 41.6425 35.2223 41.674 35.3783 41.6619C35.5343 41.6498 35.6839 41.5947 35.8105 41.5026C35.937 41.4105 36.0355 41.2852 36.095 41.1404C36.1545 40.9957 36.1727 40.8373 36.1475 40.6828L34.998 33.9617C34.9738 33.8267 34.9827 33.6879 35.0241 33.5572C35.0655 33.4264 35.138 33.3077 35.2355 33.2112L40.1185 28.4566C40.2306 28.3466 40.3098 28.2075 40.3472 28.055C40.3847 27.9025 40.379 27.7425 40.3306 27.5931C40.2823 27.4437 40.1933 27.3107 40.0736 27.209C39.9539 27.1073 39.8083 27.0409 39.653 27.0174L32.908 26.0389C32.7721 26.0189 32.6431 25.966 32.5322 25.8849C32.4212 25.8038 32.3318 25.6969 32.2715 25.5734L29.26 19.4746Z" fill="#0DB3FB"/>
</svg>
