<svg width="361" height="275" viewBox="0 0 361 275" fill="none" xmlns="http://www.w3.org/2000/svg">
<path d="M334.009 249.323C322.181 258.331 307.771 267.455 293.604 271.758C289.519 273.035 285.305 273.85 281.039 274.188C277.051 274.509 273.037 274.197 269.146 273.265C258.921 270.722 249.437 266.268 240.261 261.065C237.263 259.362 234.299 257.581 231.353 255.762C226.544 252.79 221.782 249.713 217.008 246.711C216.293 246.256 215.582 245.81 214.868 245.368H214.863C213.711 244.644 212.555 243.931 211.397 243.228C211.194 243.102 210.99 242.981 210.782 242.855C208.594 241.529 206.368 240.234 204.105 238.969C203.828 238.817 203.551 238.661 203.274 238.509C198.895 236.081 194.395 233.878 189.791 231.911C186.766 230.637 183.703 229.489 180.61 228.51H180.606C179.423 228.137 178.236 227.786 177.044 227.466C173.471 226.485 169.831 225.773 166.152 225.334C161.083 224.72 155.956 224.761 150.897 225.455C150.555 225.503 150.217 225.551 149.875 225.607C136.184 227.799 123.688 235.191 109.937 236.932C109.491 236.989 109.049 237.041 108.602 237.08C108.412 237.097 108.221 237.119 108.031 237.132C104.034 237.474 100.013 237.375 96.038 236.837C84.9336 235.373 74.1195 230.828 64.3842 225.1C41.6251 211.708 23.1683 191.124 11.947 167.286C10.02 163.201 8.30917 159.017 6.82154 154.752C2.66223 142.925 0.371683 130.522 0.0323701 117.99C-1.02045 74.5083 23.6882 30.8836 62.4821 11.218C101.28 -8.44757 152.318 -1.94437 183.608 28.2667C202.589 46.5935 213.572 71.4278 227.857 93.615C242.141 115.798 262.444 136.988 288.63 140.221C301.97 141.867 315.929 138.682 328.715 142.824C335.794 145.121 341.834 149.514 346.699 155.112C349.97 158.91 352.708 163.137 354.836 167.676C356.395 170.957 357.661 174.37 358.618 177.875C358.796 178.521 358.961 179.166 359.121 179.812C365.49 205.824 355.312 233.094 334.009 249.323Z" fill="#F2FAFF"/>
<path d="M120.95 202.233H80.2238C74.1222 202.233 69.1758 207.179 69.1758 213.281V213.281C69.1758 219.383 74.1222 224.329 80.2238 224.329H120.95C127.052 224.329 131.998 219.383 131.998 213.281C131.998 207.179 127.052 202.233 120.95 202.233Z" fill="#3F3D56"/>
<path d="M108.603 218.696V237.08C104.419 237.484 100.203 237.403 96.0381 236.837V218.696H108.603Z" fill="#3F3D56"/>
<path d="M150.897 225.455C150.555 225.503 150.217 225.551 149.874 225.607C136.183 227.799 123.688 235.191 109.937 236.932C109.49 236.989 109.048 237.041 108.602 237.08C108.412 237.097 108.221 237.119 108.03 237.132C104.673 233.843 101.315 230.342 98.1606 226.716C96.4493 224.753 94.7942 222.752 93.2388 220.724C89.2008 215.49 85.7781 210.109 83.5165 204.823C83.7461 202.289 82.1691 196.427 81.4152 191.938L81.4109 191.934C81.0903 190.049 80.917 188.412 81.0773 187.359C81.9958 181.285 86.9566 181.982 88.4816 176.029C89.8574 174.887 91.3221 173.857 92.8619 172.949C93.1175 172.797 93.3775 172.645 93.6461 172.494L110.197 161.056L116.522 167.26L126.149 176.705L136.582 186.934L127.726 195.881C127.726 195.881 135.126 204.412 143.778 215.785C146.101 218.839 148.514 222.102 150.897 225.455Z" fill="#2F2E41"/>
<path d="M293.604 218.696V271.758C289.519 273.035 285.305 273.85 281.039 274.188V218.696H293.604Z" fill="#3F3D56"/>
<path d="M309.851 214.364H269.124C263.023 214.364 258.076 219.31 258.076 225.412V225.412C258.076 231.514 263.023 236.46 269.124 236.46H309.851C315.952 236.46 320.899 231.514 320.899 225.412C320.899 219.31 315.952 214.364 309.851 214.364Z" fill="#3F3D56"/>
<path d="M210.782 242.855C208.594 241.529 206.368 240.234 204.105 238.969C203.828 238.817 203.551 238.661 203.273 238.51L204.764 237.873L208.784 236.144L208.823 236.127L208.867 236.274L210.782 242.855Z" fill="#FFB6B6"/>
<path d="M217.008 246.711C216.293 246.256 215.583 245.81 214.868 245.368H214.863C213.711 244.644 212.556 243.931 211.397 243.228C211.194 243.102 210.99 242.981 210.782 242.855C208.594 241.529 206.369 240.234 204.106 238.969C203.828 238.817 203.551 238.661 203.274 238.51C198.895 236.081 194.395 233.878 189.791 231.911C186.767 230.637 183.703 229.489 180.61 228.51H180.606L178.175 224.442L167.235 206.119L164.831 202.094C164.831 202.094 156.629 204.52 145.022 206.847C140.798 207.696 136.127 208.528 131.227 209.23C125.989 209.975 120.495 210.569 115.036 210.855C112.433 210.993 109.837 211.063 107.281 211.041C100.674 210.998 94.3267 210.378 88.768 208.905C86.9137 207.163 81.3246 204.793 77.3213 202.623H77.317C75.636 201.713 74.2409 200.842 73.5087 200.067C69.2887 195.604 72.8934 192.125 69.1414 187.255C69.0909 185.469 69.1822 183.681 69.4144 181.909C69.4534 181.614 69.4924 181.315 69.54 181.012L70.7228 160.926L79.5093 159.765L92.8796 157.997L107.363 156.082L108.958 168.569C108.958 168.569 120.236 167.997 134.524 168.187C157.474 168.499 188.183 170.787 192.343 180.605C192.733 181.527 193.122 182.459 193.512 183.39C194.44 185.617 195.358 187.856 196.268 190.106C199.565 198.251 202.711 206.474 205.583 214.247C207.368 219.082 209.049 223.744 210.596 228.107C211.839 231.616 212.992 234.935 214.045 237.99C215.006 240.78 215.877 243.349 216.653 245.654C216.774 246.014 216.891 246.369 217.008 246.711Z" fill="#2F2E41"/>
<path d="M136.181 125.014L108.429 101.444L126.485 83.171L139.082 103.804L185.776 113.061C187.18 112.005 188.861 111.38 190.614 111.262C192.367 111.144 194.117 111.539 195.65 112.398C197.182 113.258 198.432 114.545 199.246 116.102C200.06 117.659 200.403 119.42 200.234 121.169C200.064 122.918 199.39 124.58 198.292 125.952C197.195 127.325 195.722 128.348 194.053 128.898C192.384 129.447 190.591 129.499 188.892 129.047C187.194 128.596 185.664 127.659 184.489 126.353L136.181 125.014Z" fill="#A0616A"/>
<path d="M83.902 70.4681C80.6947 80.9021 111.24 105.787 111.24 105.787C111.58 103.282 128.898 124.882 130.076 122.926C133.425 117.367 137.11 103.624 140.976 101.867C143.187 100.863 130.504 86.9011 130.504 86.9011C130.504 86.9011 124.034 78.3417 115.492 67.4936C113.134 64.3819 110.027 61.9174 106.46 60.3295C102.893 58.7416 98.9826 58.082 95.0923 58.412C95.0923 58.412 87.1093 60.0341 83.902 70.4681Z" fill="#3F3D56"/>
<path d="M97.4072 47.3693C107.774 47.3693 116.178 38.9655 116.178 28.5988C116.178 18.2322 107.774 9.82837 97.4072 9.82837C87.0405 9.82837 78.6367 18.2322 78.6367 28.5988C78.6367 38.9655 87.0405 47.3693 97.4072 47.3693Z" fill="#A0616A"/>
<path d="M106.792 59.7756C110.836 62.1797 113.255 66.5969 114.644 71.0917C117.215 79.4134 118.762 88.0173 119.252 96.7133L120.719 122.748L138.884 178.182C123.141 191.503 63.9654 181.209 63.9654 181.209C63.9654 181.209 62.1489 180.604 63.9654 178.787C65.7819 176.971 67.5502 178.58 65.7338 176.763C63.9173 174.947 65.1695 176.971 65.775 175.154C66.3805 173.338 65.775 174.549 65.1695 173.943C64.564 173.338 69.857 167.888 69.857 167.888L65.013 136.068L58.958 71.8855C66.224 62.803 80.8369 57.449 80.8369 57.449L84.6127 50.6526L103.492 52.1629L106.792 59.7756Z" fill="#3F3D56"/>
<path d="M112.881 18.6267C114.34 19.7148 115.421 21.233 115.971 22.9677C116.183 20.1329 116.196 17.2868 116.011 14.4501C115.79 12.4567 114.387 12.0084 112.762 11.4888C111.294 11.0194 109.635 10.4892 109.188 8.55413C103.288 2.81414 93.0165 3.10358 85.9871 5.10578C82.1191 6.20756 79.8935 7.62311 79.6944 8.45236L79.6531 8.62306L79.496 8.7016C76.5145 10.1924 75.9341 14.8999 75.9724 18.5865C76.0451 25.5322 78.4433 33.4208 79.7943 34.0616C79.8658 34.0955 79.8839 34.0823 79.9148 34.0565C81.9491 32.4307 84.431 34.18 85.5217 35.1309C86.165 30.8141 88.2364 26.8373 91.405 23.8357C94.5736 20.8341 98.6566 18.9809 103.002 18.5721C104.421 18.435 105.829 18.1989 107.215 17.8657C107.918 17.6838 108.641 17.5889 109.367 17.5832C110.618 17.5642 111.844 17.9284 112.881 18.6267Z" fill="#2F2E41"/>
<path d="M89.2285 153.294L83.4866 150.353C83.179 150.134 82.9605 149.812 82.871 149.445C82.7815 149.078 82.827 148.691 82.9992 148.354C83.1714 148.018 83.4588 147.755 83.8089 147.613C84.159 147.471 84.5484 147.46 84.9061 147.582L90.648 150.522C90.9556 150.742 91.1742 151.064 91.2637 151.431C91.3531 151.798 91.3076 152.185 91.1354 152.521C90.9632 152.858 90.6758 153.121 90.3257 153.263C89.9756 153.404 89.5862 153.416 89.2285 153.294L89.2285 153.294Z" fill="#2B6CB0"/>
<path d="M69.9045 145.416L60.459 110.251L85.7 105.473L84.3427 129.61L117.507 163.758C119.263 163.687 121.002 164.127 122.511 165.027C124.021 165.926 125.236 167.245 126.009 168.823C126.782 170.401 127.079 172.17 126.864 173.914C126.649 175.658 125.931 177.302 124.798 178.645C123.665 179.988 122.166 180.972 120.483 181.478C118.8 181.984 117.006 181.989 115.321 181.493C113.635 180.997 112.13 180.021 110.989 178.684C109.848 177.347 109.121 175.708 108.896 173.965L69.9045 145.416Z" fill="#A0616A"/>
<path d="M57.8756 70.8252C49.3079 77.589 60.3046 115.423 60.3046 115.423C62.0071 113.554 63.9856 141.169 66.0667 140.229C71.9812 137.556 82.8218 128.341 87.0011 129.092C89.3912 129.522 86.8871 110.826 86.8871 110.826C86.8871 110.826 86.4266 100.107 85.561 86.3264C85.3885 82.4259 84.232 78.6325 82.1991 75.2992C80.1662 71.966 77.323 69.2013 73.9342 67.2624C73.9342 67.2624 66.4433 64.0614 57.8756 70.8252Z" fill="#3F3D56"/>
<path d="M354.836 167.676L11.9467 167.286C10.0198 163.201 8.30892 159.017 6.82129 154.752L346.699 155.111C349.97 158.91 352.708 163.137 354.836 167.676Z" fill="#3F3D56"/>
<path d="M245.625 258.582C243.853 259.44 242.065 260.268 240.261 261.065C237.263 259.362 234.3 257.581 231.354 255.762L242.28 250.961L245.625 258.582Z" fill="#FFB6B6"/>
<path d="M325.292 198.879C323.515 201.262 321.683 203.597 319.794 205.885C318.052 207.995 316.264 210.065 314.43 212.094C313.672 212.934 312.905 213.77 312.121 214.598C310.678 216.145 309.203 217.665 307.697 219.16C304.985 220.014 299.491 221.517 293.603 222.921C289.318 223.939 284.825 224.905 281.039 225.52C278.919 225.901 276.775 226.13 274.622 226.205C272.066 226.227 269.471 226.157 266.867 226.019C263.929 225.863 260.988 225.62 258.08 225.308C250.52 224.515 243.198 223.28 236.881 222.011C234.568 221.552 232.393 221.084 230.391 220.629C226.6 219.775 223.429 218.978 221.132 218.372C218.546 217.696 217.073 217.258 217.073 217.258L210.595 228.107L207.233 233.735L204.764 237.872L204.105 238.969C203.828 238.817 203.551 238.661 203.273 238.509C198.895 236.081 194.395 233.878 189.79 231.911C186.766 230.637 183.703 229.489 180.61 228.51H180.605C179.423 228.137 178.235 227.786 177.044 227.466C177.417 226.465 177.794 225.457 178.175 224.441C178.885 222.548 179.61 220.638 180.35 218.71C181.948 214.533 183.603 210.296 185.306 206.08C186.701 202.618 188.122 199.17 189.561 195.768C190.224 194.2 191.571 192.822 193.456 191.614C194.356 191.046 195.296 190.542 196.268 190.106C201.662 187.649 209.608 186.051 218.364 185.024C219.087 184.941 219.815 184.859 220.547 184.781C227.796 184.019 235.486 183.624 242.678 183.442C246.279 183.351 249.753 183.317 252.985 183.312C254.03 183.312 255.045 183.315 256.031 183.321H256.036C258.7 183.334 261.152 183.373 263.31 183.416C263.73 183.425 264.137 183.438 264.536 183.447H264.54C264.809 183.451 265.073 183.46 265.333 183.464C270.051 183.585 272.946 183.733 272.946 183.733L274.068 174.929L274.297 173.152L274.514 171.463V171.458L274.54 171.246L274.718 171.242L277.837 171.181L304.058 170.67L318.381 170.388L316.111 180.119L312.363 196.176C312.745 198.715 325.422 196.726 325.292 198.879Z" fill="#2F2E41"/>
<path d="M248.857 256.979C247.787 257.525 246.708 258.062 245.625 258.582C243.853 259.44 242.065 260.268 240.261 261.065C237.263 259.362 234.299 257.581 231.353 255.762C226.544 252.79 221.782 249.713 217.008 246.711C216.293 246.256 215.582 245.81 214.868 245.368H214.863C212.896 242.448 210.89 239.406 208.867 236.274C208.837 236.23 208.811 236.187 208.785 236.144C208.265 235.347 207.748 234.544 207.234 233.735C203.997 228.666 200.743 223.38 197.585 217.982L205.583 214.247L220.452 207.306L223.017 206.11L230.391 220.629L236.968 233.579L238.432 236.46L248.857 256.979Z" fill="#2F2E41"/>
<path d="M251.097 187.276L289.008 150.716L299.515 120.964L284.016 114.224C276.055 121.85 267.45 145.603 267.45 145.603L241.362 178.792C241.159 178.862 240.956 178.936 240.756 179.024C239.581 179.542 238.56 180.355 237.79 181.383C237.021 182.411 236.53 183.621 236.365 184.894C236.2 186.168 236.366 187.462 236.847 188.653C237.328 189.843 238.108 190.89 239.112 191.691C240.116 192.492 241.309 193.02 242.577 193.225C243.845 193.43 245.144 193.304 246.349 192.86C247.554 192.417 248.624 191.669 249.456 190.691C250.288 189.713 250.853 188.536 251.097 187.276Z" fill="#FFB8B8"/>
<path d="M279.655 117.546L299.315 123.787L299.389 123.775C306.706 122.549 312.777 110.599 316.582 100.789C317.834 97.5535 317.811 93.9632 316.517 90.7442C315.223 87.5251 312.755 84.9174 309.612 83.4482C307.286 82.3801 304.708 81.9838 302.169 82.3041C299.63 82.6245 297.231 83.6488 295.243 85.2611L285.148 93.51L279.655 117.546Z" fill="#2B6CB0"/>
<path d="M325.213 199.318L325.328 199.165C331.462 191.03 323.073 170.885 321.805 167.964L327.508 166.274L326.514 155.415L326.035 150.573L330.469 146.362L330.484 146.254L333.534 124.551L337.524 110.187C339.028 104.757 339.06 99.0243 337.616 93.5777C336.173 88.131 333.305 83.1667 329.309 79.1943L321.152 71.0954L311.379 55.7986L294.994 55.3756L289.102 65.8427C283.622 66.9609 278.709 69.9661 275.217 74.3345C271.725 78.703 269.877 84.158 269.994 89.7492L270.548 117.614L264.669 152.14L264.504 158.411L258.733 164.5L259.8 170.657L255.484 172.376L253.371 181.124C252.565 182.134 247.238 188.867 247.19 190.744C247.182 191.025 247.383 191.303 247.822 191.617C251.27 194.084 270.541 199.429 279.214 196.216C288.453 192.795 324.66 199.219 325.025 199.284L325.213 199.318Z" fill="#2B6CB0"/>
<path d="M301.756 50.6862C313.744 50.6862 323.463 40.9673 323.463 28.9785C323.463 16.9896 313.744 7.27069 301.756 7.27069C289.767 7.27069 280.048 16.9896 280.048 28.9785C280.048 40.9673 289.767 50.6862 301.756 50.6862Z" fill="#FFB8B8"/>
<path d="M299.107 50.9768C302.468 51.0293 305.828 50.7945 309.15 50.275C312.442 49.6054 319.808 44.208 321.861 40.96C323.387 38.5468 324.362 34.7784 324.912 32.0423C325.652 28.4215 325.624 24.6855 324.829 21.0763C324.034 17.4671 322.49 14.0652 320.296 11.0907C319.453 9.8466 318.289 8.85345 316.928 8.21634C316.808 8.16916 316.683 8.12736 316.558 8.09162C314.575 7.56977 312.793 6.46703 311.44 4.92499C311.178 4.61309 310.894 4.32048 310.59 4.04943C309.062 2.75979 307.25 1.85011 305.303 1.39474C302.16 0.553608 297.612 1.38854 291.784 3.87875C288.857 5.12988 285.655 4.6771 283.192 4.1428C283.054 4.11612 282.911 4.12607 282.778 4.17168C282.645 4.21729 282.526 4.29696 282.433 4.40276C281.385 5.38656 280.004 5.93725 278.566 5.94415C277.686 5.98281 276.762 7.20179 275.646 8.7914C275.392 9.15224 275.097 9.57337 274.884 9.82952L274.855 9.33741L274.357 9.88639C273.574 10.7492 273.023 11.7961 272.753 12.9296C272.484 14.0631 272.506 15.2462 272.817 16.3689C273.128 17.4916 273.718 18.5174 274.533 19.3506C275.347 20.1838 276.359 20.7974 277.474 21.1342C278.36 21.3699 279.267 21.5145 280.182 21.5658C280.736 21.6156 281.309 21.6672 281.859 21.7625C283.622 22.1236 285.262 22.9357 286.617 24.1195C287.973 25.3034 288.998 26.8185 289.594 28.5171C289.734 28.9097 289.964 29.2647 290.263 29.5547C290.563 29.8447 290.925 30.062 291.322 30.1897C291.72 30.3174 292.141 30.3522 292.553 30.2913C292.966 30.2304 293.359 30.0756 293.702 29.8386C294.275 29.393 294.946 29.0924 295.66 28.9625C296.373 28.8325 297.108 28.8771 297.8 29.0924C298.399 29.4252 298.865 29.9537 299.12 30.5893C299.43 31.2974 299.944 31.897 300.597 32.3118C302.828 33.4621 302.981 38.5581 302.18 42.8062C301.408 46.9011 299.881 49.8633 298.467 50.0097C297.379 50.1223 297.254 50.1996 297.175 50.3921L297.105 50.5644L297.227 50.7256C297.828 50.9435 298.469 51.0292 299.107 50.9768Z" fill="#2F2E41"/>
<path d="M285.046 110.983L276.676 94.2962C264.527 95.1261 240.415 109.173 240.415 109.173L194.793 118.846C193.442 118.326 191.977 118.172 190.547 118.398C189.117 118.625 187.772 119.224 186.647 120.136C185.522 121.047 184.657 122.239 184.139 123.591C183.621 124.943 183.469 126.408 183.697 127.838C183.925 129.267 184.526 130.612 185.438 131.736C186.351 132.86 187.544 133.723 188.897 134.239C190.25 134.756 191.715 134.907 193.144 134.677C194.574 134.447 195.917 133.845 197.04 132.93L255.073 128.77L285.046 110.983Z" fill="#FFB8B8"/>
<path d="M281.67 113.723L303.529 97.4787L307.38 83.6027C308.126 80.8758 308.094 77.9947 307.289 75.2848C306.483 72.575 304.936 70.1444 302.822 68.2678C299.938 65.7433 296.204 64.4078 292.373 64.5314C288.543 64.655 284.903 66.2284 282.188 68.9336C273.962 77.1443 264.58 88.5991 266.595 96.5422L266.615 96.6227L281.67 113.723Z" fill="#2B6CB0"/>
<path d="M254.61 157.174H196.12V164.973H254.61V157.174Z" fill="#E0F4FF"/>
<path d="M105.136 157.174H46.6465V164.973H105.136V157.174Z" fill="#E0F4FF"/>
<path d="M111.966 119.67V156.802C111.966 157.276 112.154 157.729 112.489 158.064C112.824 158.398 113.277 158.587 113.75 158.587H168.776C169.249 158.587 169.703 158.398 170.038 158.064C170.372 157.729 170.56 157.276 170.561 156.802V119.67C170.56 119.198 170.371 118.745 170.037 118.41C169.702 118.076 169.249 117.888 168.776 117.888H113.75C113.278 117.888 112.824 118.076 112.49 118.41C112.155 118.745 111.967 119.198 111.966 119.67Z" fill="#3F3D56"/>
<path d="M113.257 120.132V156.344C113.257 156.597 113.358 156.839 113.537 157.018C113.715 157.197 113.958 157.298 114.211 157.298H168.318C168.571 157.298 168.813 157.197 168.992 157.018C169.171 156.839 169.272 156.597 169.272 156.344V120.132C169.272 119.879 169.172 119.636 168.993 119.457C168.814 119.278 168.571 119.177 168.318 119.177H114.211C113.957 119.177 113.715 119.278 113.536 119.457C113.357 119.636 113.257 119.879 113.257 120.132Z" fill="#2B6CB0"/>
<path d="M110.815 164.044C110.916 164.17 111.044 164.272 111.19 164.342C111.336 164.412 111.495 164.448 111.657 164.447H170.577C170.738 164.447 170.897 164.411 171.042 164.341C171.188 164.272 171.316 164.171 171.417 164.046C171.519 163.921 171.591 163.774 171.629 163.618C171.667 163.461 171.67 163.298 171.636 163.14L170.722 158.796C170.684 158.619 170.602 158.454 170.484 158.316C170.367 158.179 170.216 158.073 170.047 158.008C169.924 157.96 169.794 157.936 169.662 157.936H112.568C112.436 157.936 112.306 157.96 112.183 158.008C112.014 158.073 111.864 158.179 111.746 158.316C111.628 158.454 111.546 158.619 111.508 158.796L110.594 163.14C110.561 163.298 110.564 163.461 110.602 163.617C110.641 163.773 110.713 163.919 110.815 164.044Z" fill="#2F2E41"/>
<path d="M167.641 159.807H169.033C169.149 159.807 169.244 159.712 169.244 159.595V158.93C169.244 158.813 169.149 158.718 169.033 158.718H167.641C167.524 158.718 167.429 158.813 167.429 158.93V159.595C167.429 159.712 167.524 159.807 167.641 159.807Z" fill="#3F3D56"/>
<path d="M164.011 159.807H165.403C165.52 159.807 165.614 159.712 165.614 159.595V158.93C165.614 158.813 165.52 158.718 165.403 158.718H164.011C163.894 158.718 163.8 158.813 163.8 158.93V159.595C163.8 159.712 163.894 159.807 164.011 159.807Z" fill="#3F3D56"/>
<path d="M160.382 159.807H161.774C161.891 159.807 161.985 159.712 161.985 159.595V158.93C161.985 158.813 161.891 158.718 161.774 158.718H160.382C160.265 158.718 160.171 158.813 160.171 158.93V159.595C160.171 159.712 160.265 159.807 160.382 159.807Z" fill="#3F3D56"/>
<path d="M156.752 159.807H158.144C158.261 159.807 158.355 159.712 158.355 159.595V158.93C158.355 158.813 158.261 158.718 158.144 158.718H156.752C156.635 158.718 156.541 158.813 156.541 158.93V159.595C156.541 159.712 156.635 159.807 156.752 159.807Z" fill="#3F3D56"/>
<path d="M153.123 159.807H154.515C154.632 159.807 154.727 159.712 154.727 159.595V158.93C154.727 158.813 154.632 158.718 154.515 158.718H153.123C153.007 158.718 152.912 158.813 152.912 158.93V159.595C152.912 159.712 153.007 159.807 153.123 159.807Z" fill="#3F3D56"/>
<path d="M149.493 159.807H150.885C151.002 159.807 151.097 159.712 151.097 159.595V158.93C151.097 158.813 151.002 158.718 150.885 158.718H149.493C149.377 158.718 149.282 158.813 149.282 158.93V159.595C149.282 159.712 149.377 159.807 149.493 159.807Z" fill="#3F3D56"/>
<path d="M145.865 159.807H147.256C147.373 159.807 147.468 159.712 147.468 159.595V158.93C147.468 158.813 147.373 158.718 147.256 158.718H145.865C145.748 158.718 145.653 158.813 145.653 158.93V159.595C145.653 159.712 145.748 159.807 145.865 159.807Z" fill="#3F3D56"/>
<path d="M142.235 159.807H143.626C143.743 159.807 143.838 159.712 143.838 159.595V158.93C143.838 158.813 143.743 158.718 143.626 158.718H142.235C142.118 158.718 142.023 158.813 142.023 158.93V159.595C142.023 159.712 142.118 159.807 142.235 159.807Z" fill="#3F3D56"/>
<path d="M138.606 159.807H139.997C140.114 159.807 140.209 159.712 140.209 159.595V158.93C140.209 158.813 140.114 158.718 139.997 158.718H138.606C138.489 158.718 138.394 158.813 138.394 158.93V159.595C138.394 159.712 138.489 159.807 138.606 159.807Z" fill="#3F3D56"/>
<path d="M134.976 159.807H136.368C136.484 159.807 136.579 159.712 136.579 159.595V158.93C136.579 158.813 136.484 158.718 136.368 158.718H134.976C134.859 158.718 134.764 158.813 134.764 158.93V159.595C134.764 159.712 134.859 159.807 134.976 159.807Z" fill="#3F3D56"/>
<path d="M131.347 159.807H132.739C132.855 159.807 132.95 159.712 132.95 159.595V158.93C132.95 158.813 132.855 158.718 132.739 158.718H131.347C131.23 158.718 131.136 158.813 131.136 158.93V159.595C131.136 159.712 131.23 159.807 131.347 159.807Z" fill="#3F3D56"/>
<path d="M127.717 159.807H129.109C129.226 159.807 129.32 159.712 129.32 159.595V158.93C129.32 158.813 129.226 158.718 129.109 158.718H127.717C127.6 158.718 127.506 158.813 127.506 158.93V159.595C127.506 159.712 127.6 159.807 127.717 159.807Z" fill="#3F3D56"/>
<path d="M124.088 159.807H125.48C125.597 159.807 125.691 159.712 125.691 159.595V158.93C125.691 158.813 125.597 158.718 125.48 158.718H124.088C123.971 158.718 123.877 158.813 123.877 158.93V159.595C123.877 159.712 123.971 159.807 124.088 159.807Z" fill="#3F3D56"/>
<path d="M120.458 159.807H121.85C121.967 159.807 122.062 159.712 122.062 159.595V158.93C122.062 158.813 121.967 158.718 121.85 158.718H120.458C120.342 158.718 120.247 158.813 120.247 158.93V159.595C120.247 159.712 120.342 159.807 120.458 159.807Z" fill="#3F3D56"/>
<path d="M116.829 159.807H118.221C118.338 159.807 118.433 159.712 118.433 159.595V158.93C118.433 158.813 118.338 158.718 118.221 158.718H116.829C116.713 158.718 116.618 158.813 116.618 158.93V159.595C116.618 159.712 116.713 159.807 116.829 159.807Z" fill="#3F3D56"/>
<path d="M113.2 159.807H114.591C114.708 159.807 114.803 159.712 114.803 159.595V158.93C114.803 158.813 114.708 158.718 114.591 158.718H113.2C113.083 158.718 112.988 158.813 112.988 158.93V159.595C112.988 159.712 113.083 159.807 113.2 159.807Z" fill="#3F3D56"/>
<path d="M167.684 161.622H169.076C169.192 161.622 169.287 161.527 169.287 161.41V160.744C169.287 160.628 169.192 160.533 169.076 160.533H167.684C167.567 160.533 167.472 160.628 167.472 160.744V161.41C167.472 161.527 167.567 161.622 167.684 161.622Z" fill="#3F3D56"/>
<path d="M164.054 161.622H165.446C165.563 161.622 165.657 161.527 165.657 161.41V160.744C165.657 160.628 165.563 160.533 165.446 160.533H164.054C163.937 160.533 163.843 160.628 163.843 160.744V161.41C163.843 161.527 163.937 161.622 164.054 161.622Z" fill="#3F3D56"/>
<path d="M160.425 161.622H161.817C161.934 161.622 162.028 161.527 162.028 161.41V160.744C162.028 160.628 161.934 160.533 161.817 160.533H160.425C160.308 160.533 160.214 160.628 160.214 160.744V161.41C160.214 161.527 160.308 161.622 160.425 161.622Z" fill="#3F3D56"/>
<path d="M156.795 161.622H158.187C158.304 161.622 158.398 161.527 158.398 161.41V160.744C158.398 160.628 158.304 160.533 158.187 160.533H156.795C156.678 160.533 156.584 160.628 156.584 160.744V161.41C156.584 161.527 156.678 161.622 156.795 161.622Z" fill="#3F3D56"/>
<path d="M153.166 161.622H154.558C154.675 161.622 154.77 161.527 154.77 161.41V160.744C154.77 160.628 154.675 160.533 154.558 160.533H153.166C153.05 160.533 152.955 160.628 152.955 160.744V161.41C152.955 161.527 153.05 161.622 153.166 161.622Z" fill="#3F3D56"/>
<path d="M149.536 161.622H150.928C151.045 161.622 151.14 161.527 151.14 161.41V160.744C151.14 160.628 151.045 160.533 150.928 160.533H149.536C149.42 160.533 149.325 160.628 149.325 160.744V161.41C149.325 161.527 149.42 161.622 149.536 161.622Z" fill="#3F3D56"/>
<path d="M145.908 161.622H147.299C147.416 161.622 147.511 161.527 147.511 161.41V160.744C147.511 160.628 147.416 160.533 147.299 160.533H145.908C145.791 160.533 145.696 160.628 145.696 160.744V161.41C145.696 161.527 145.791 161.622 145.908 161.622Z" fill="#3F3D56"/>
<path d="M142.278 161.622H143.669C143.786 161.622 143.881 161.527 143.881 161.41V160.744C143.881 160.628 143.786 160.533 143.669 160.533H142.278C142.161 160.533 142.066 160.628 142.066 160.744V161.41C142.066 161.527 142.161 161.622 142.278 161.622Z" fill="#3F3D56"/>
<path d="M138.649 161.622H140.04C140.157 161.622 140.252 161.527 140.252 161.41V160.744C140.252 160.628 140.157 160.533 140.04 160.533H138.649C138.532 160.533 138.437 160.628 138.437 160.744V161.41C138.437 161.527 138.532 161.622 138.649 161.622Z" fill="#3F3D56"/>
<path d="M135.019 161.622H136.411C136.527 161.622 136.622 161.527 136.622 161.41V160.744C136.622 160.628 136.527 160.533 136.411 160.533H135.019C134.902 160.533 134.807 160.628 134.807 160.744V161.41C134.807 161.527 134.902 161.622 135.019 161.622Z" fill="#3F3D56"/>
<path d="M131.39 161.622H132.782C132.898 161.622 132.993 161.527 132.993 161.41V160.744C132.993 160.628 132.898 160.533 132.782 160.533H131.39C131.273 160.533 131.178 160.628 131.178 160.744V161.41C131.178 161.527 131.273 161.622 131.39 161.622Z" fill="#3F3D56"/>
<path d="M127.76 161.622H129.152C129.269 161.622 129.363 161.527 129.363 161.41V160.744C129.363 160.628 129.269 160.533 129.152 160.533H127.76C127.643 160.533 127.549 160.628 127.549 160.744V161.41C127.549 161.527 127.643 161.622 127.76 161.622Z" fill="#3F3D56"/>
<path d="M124.131 161.622H125.523C125.64 161.622 125.734 161.527 125.734 161.41V160.744C125.734 160.628 125.64 160.533 125.523 160.533H124.131C124.014 160.533 123.92 160.628 123.92 160.744V161.41C123.92 161.527 124.014 161.622 124.131 161.622Z" fill="#3F3D56"/>
<path d="M120.501 161.622H121.893C122.01 161.622 122.104 161.527 122.104 161.41V160.744C122.104 160.628 122.01 160.533 121.893 160.533H120.501C120.384 160.533 120.29 160.628 120.29 160.744V161.41C120.29 161.527 120.384 161.622 120.501 161.622Z" fill="#3F3D56"/>
<path d="M116.872 161.622H118.264C118.381 161.622 118.476 161.527 118.476 161.41V160.744C118.476 160.628 118.381 160.533 118.264 160.533H116.872C116.756 160.533 116.661 160.628 116.661 160.744V161.41C116.661 161.527 116.756 161.622 116.872 161.622Z" fill="#3F3D56"/>
<path d="M113.243 161.622H114.634C114.751 161.622 114.846 161.527 114.846 161.41V160.744C114.846 160.628 114.751 160.533 114.634 160.533H113.243C113.126 160.533 113.031 160.628 113.031 160.744V161.41C113.031 161.527 113.126 161.622 113.243 161.622Z" fill="#3F3D56"/>
<path d="M137.56 163.799H151.655C151.772 163.799 151.866 163.704 151.866 163.588V162.922C151.866 162.805 151.772 162.71 151.655 162.71H137.56C137.443 162.71 137.349 162.805 137.349 162.922V163.588C137.349 163.704 137.443 163.799 137.56 163.799Z" fill="#3F3D56"/>
</svg>
