<svg width="408" height="284" viewBox="0 0 408 284" fill="none" xmlns="http://www.w3.org/2000/svg">
<path opacity="0.1" d="M103.791 113.569H60.5776C59.0472 113.569 57.8066 114.809 57.8066 116.34V125.536C57.8066 127.067 59.0472 128.307 60.5776 128.307H103.791C105.321 128.307 106.562 127.067 106.562 125.536V116.34C106.562 114.809 105.321 113.569 103.791 113.569Z" fill="#2B6CB0"/>
<path opacity="0.1" d="M154.812 128.311H111.599C110.069 128.311 108.828 129.552 108.828 131.082V140.279C108.828 141.809 110.069 143.05 111.599 143.05H154.812C156.342 143.05 157.583 141.809 157.583 140.279V131.082C157.583 129.552 156.342 128.311 154.812 128.311Z" fill="#2B6CB0"/>
<path opacity="0.1" d="M205.838 143.05H162.625C161.095 143.05 159.854 144.291 159.854 145.821V155.018C159.854 156.548 161.095 157.789 162.625 157.789H205.838C207.369 157.789 208.609 156.548 208.609 155.018V145.821C208.609 144.291 207.369 143.05 205.838 143.05Z" fill="#2B6CB0"/>
<path opacity="0.1" d="M103.791 91.4607H60.5776C59.0472 91.4607 57.8066 92.7013 57.8066 94.2317V103.428C57.8066 104.959 59.0472 106.199 60.5776 106.199H103.791C105.321 106.199 106.562 104.959 106.562 103.428V94.2317C106.562 92.7013 105.321 91.4607 103.791 91.4607Z" fill="#2B6CB0"/>
<path opacity="0.1" d="M154.812 106.199H111.599C110.069 106.199 108.828 107.44 108.828 108.97V118.167C108.828 119.697 110.069 120.938 111.599 120.938H154.812C156.342 120.938 157.583 119.697 157.583 118.167V108.97C157.583 107.44 156.342 106.199 154.812 106.199Z" fill="#2B6CB0"/>
<path opacity="0.1" d="M205.838 120.942H162.625C161.095 120.942 159.854 122.182 159.854 123.713V132.91C159.854 134.44 161.095 135.68 162.625 135.68H205.838C207.369 135.68 208.609 134.44 208.609 132.91V123.713C208.609 122.182 207.369 120.942 205.838 120.942Z" fill="#2B6CB0"/>
<path opacity="0.1" d="M262.53 113.569H219.317C217.787 113.569 216.546 114.809 216.546 116.34V125.536C216.546 127.067 217.787 128.307 219.317 128.307H262.53C264.06 128.307 265.301 127.067 265.301 125.536V116.34C265.301 114.809 264.06 113.569 262.53 113.569Z" fill="#2B6CB0"/>
<path opacity="0.1" d="M313.552 128.311H270.339C268.809 128.311 267.568 129.552 267.568 131.082V140.279C267.568 141.809 268.809 143.05 270.339 143.05H313.552C315.083 143.05 316.323 141.809 316.323 140.279V131.082C316.323 129.552 315.083 128.311 313.552 128.311Z" fill="#2B6CB0"/>
<path opacity="0.1" d="M364.579 143.05H321.366C319.835 143.05 318.595 144.291 318.595 145.821V155.018C318.595 156.548 319.835 157.789 321.366 157.789H364.579C366.109 157.789 367.35 156.548 367.35 155.018V145.821C367.35 144.291 366.109 143.05 364.579 143.05Z" fill="#2B6CB0"/>
<path opacity="0.1" d="M262.53 91.4607H219.317C217.787 91.4607 216.546 92.7013 216.546 94.2317V103.428C216.546 104.959 217.787 106.199 219.317 106.199H262.53C264.06 106.199 265.301 104.959 265.301 103.428V94.2317C265.301 92.7013 264.06 91.4607 262.53 91.4607Z" fill="#2B6CB0"/>
<path opacity="0.1" d="M313.552 106.199H270.339C268.809 106.199 267.568 107.44 267.568 108.97V118.167C267.568 119.697 268.809 120.938 270.339 120.938H313.552C315.083 120.938 316.323 119.697 316.323 118.167V108.97C316.323 107.44 315.083 106.199 313.552 106.199Z" fill="#2B6CB0"/>
<path opacity="0.1" d="M364.579 120.942H321.366C319.835 120.942 318.595 122.182 318.595 123.713V132.91C318.595 134.44 319.835 135.68 321.366 135.68H364.579C366.109 135.68 367.35 134.44 367.35 132.91V123.713C367.35 122.182 366.109 120.942 364.579 120.942Z" fill="#2B6CB0"/>
<path opacity="0.1" d="M103.791 61.9794H60.5776C59.0472 61.9794 57.8066 63.22 57.8066 64.7504V73.9472C57.8066 75.4775 59.0472 76.7182 60.5776 76.7182H103.791C105.321 76.7182 106.562 75.4775 106.562 73.9472V64.7504C106.562 63.22 105.321 61.9794 103.791 61.9794Z" fill="#2B6CB0"/>
<path opacity="0.1" d="M154.812 76.7181H111.599C110.069 76.7181 108.828 77.9587 108.828 79.4891V88.6859C108.828 90.2163 110.069 91.4569 111.599 91.4569H154.812C156.342 91.4569 157.583 90.2163 157.583 88.6859V79.4891C157.583 77.9587 156.342 76.7181 154.812 76.7181Z" fill="#2B6CB0"/>
<path opacity="0.1" d="M205.838 91.4607H162.625C161.095 91.4607 159.854 92.7013 159.854 94.2317V103.428C159.854 104.959 161.095 106.199 162.625 106.199H205.838C207.369 106.199 208.609 104.959 208.609 103.428V94.2317C208.609 92.7013 207.369 91.4607 205.838 91.4607Z" fill="#2B6CB0"/>
<path opacity="0.1" d="M103.791 39.8676H60.5776C59.0472 39.8676 57.8066 41.1082 57.8066 42.6386V51.8354C57.8066 53.3657 59.0472 54.6063 60.5776 54.6063H103.791C105.321 54.6063 106.562 53.3657 106.562 51.8354V42.6386C106.562 41.1082 105.321 39.8676 103.791 39.8676Z" fill="#2B6CB0"/>
<path opacity="0.1" d="M154.812 54.61H111.599C110.069 54.61 108.828 55.8506 108.828 57.381V66.5777C108.828 68.1081 110.069 69.3487 111.599 69.3487H154.812C156.342 69.3487 157.583 68.1081 157.583 66.5777V57.381C157.583 55.8506 156.342 54.61 154.812 54.61Z" fill="#2B6CB0"/>
<path opacity="0.1" d="M205.838 69.3489H162.625C161.095 69.3489 159.854 70.5895 159.854 72.1198V81.3166C159.854 82.847 161.095 84.0876 162.625 84.0876H205.838C207.369 84.0876 208.609 82.847 208.609 81.3166V72.1198C208.609 70.5895 207.369 69.3489 205.838 69.3489Z" fill="#2B6CB0"/>
<path opacity="0.1" d="M262.53 61.9794H219.317C217.787 61.9794 216.546 63.22 216.546 64.7504V73.9472C216.546 75.4775 217.787 76.7182 219.317 76.7182H262.53C264.06 76.7182 265.301 75.4775 265.301 73.9472V64.7504C265.301 63.22 264.06 61.9794 262.53 61.9794Z" fill="#2B6CB0"/>
<path opacity="0.1" d="M313.552 76.7181H270.339C268.809 76.7181 267.568 77.9587 267.568 79.4891V88.6859C267.568 90.2163 268.809 91.4569 270.339 91.4569H313.552C315.083 91.4569 316.323 90.2163 316.323 88.6859V79.4891C316.323 77.9587 315.083 76.7181 313.552 76.7181Z" fill="#2B6CB0"/>
<path opacity="0.1" d="M364.579 91.4607H321.366C319.835 91.4607 318.595 92.7013 318.595 94.2317V103.428C318.595 104.959 319.835 106.199 321.366 106.199H364.579C366.109 106.199 367.35 104.959 367.35 103.428V94.2317C367.35 92.7013 366.109 91.4607 364.579 91.4607Z" fill="#2B6CB0"/>
<path opacity="0.1" d="M262.53 39.8676H219.317C217.787 39.8676 216.546 41.1082 216.546 42.6386V51.8354C216.546 53.3657 217.787 54.6063 219.317 54.6063H262.53C264.06 54.6063 265.301 53.3657 265.301 51.8354V42.6386C265.301 41.1082 264.06 39.8676 262.53 39.8676Z" fill="#2B6CB0"/>
<path opacity="0.1" d="M313.552 54.61H270.339C268.809 54.61 267.568 55.8506 267.568 57.381V66.5777C267.568 68.1081 268.809 69.3487 270.339 69.3487H313.552C315.083 69.3487 316.323 68.1081 316.323 66.5777V57.381C316.323 55.8506 315.083 54.61 313.552 54.61Z" fill="#2B6CB0"/>
<path opacity="0.1" d="M364.579 69.3489H321.366C319.835 69.3489 318.595 70.5895 318.595 72.1198V81.3166C318.595 82.847 319.835 84.0876 321.366 84.0876H364.579C366.109 84.0876 367.35 82.847 367.35 81.3166V72.1198C367.35 70.5895 366.109 69.3489 364.579 69.3489Z" fill="#2B6CB0"/>
<path opacity="0.1" d="M204 283.437C316.666 283.437 408 266.823 408 246.329C408 225.835 316.666 209.221 204 209.221C91.3339 209.221 0 225.835 0 246.329C0 266.823 91.3339 283.437 204 283.437Z" fill="#235992"/>
<path d="M89.506 119.715L72.3506 224.885L149.923 216.68L146.566 207.729L85.963 212.764L100.135 119.528L89.506 119.715Z" fill="#3F3D56"/>
<path d="M69.3672 0.372943L173.791 0L204 228.614L99.2027 242.786L69.3672 0.372943Z" fill="#3F3D56"/>
<path d="M80.7422 9.13708H165.027L194.49 221.715L107.594 233.649L80.7422 9.13708Z" fill="white"/>
<path d="M160.231 212.153C160.761 213.167 161.156 214.263 161.846 215.177C163.86 217.87 167.683 218.291 170.55 220.048C170.694 220.121 170.812 220.235 170.89 220.376C171.02 220.686 170.729 221.01 170.45 221.204C168.276 222.729 165.423 222.763 162.763 222.744C161.87 222.776 160.976 222.691 160.104 222.491C158.698 222.118 157.494 221.137 156.106 220.738C155.387 220.558 154.651 220.454 153.91 220.428L150.997 220.231C150.222 220.219 149.454 220.077 148.726 219.809C148.363 219.67 148.042 219.442 147.791 219.145C147.541 218.848 147.37 218.493 147.294 218.112C147.212 217.493 147.476 216.893 147.633 216.289C148.006 214.856 147.89 213.126 149.006 212.149C149.465 211.797 149.992 211.543 150.553 211.403C152.58 210.72 154.649 210.169 156.748 209.755C158.475 209.415 159.467 210.683 160.231 212.153Z" fill="#3F3D56"/>
<path d="M127.286 220.219C127.36 221.014 127.383 221.924 126.808 222.479C126.451 222.776 126.019 222.97 125.559 223.039C122.803 223.68 119.73 223.725 117.332 222.226C117.082 222.083 116.862 221.895 116.683 221.67C116.483 221.364 116.37 221.01 116.355 220.644C116.269 219.589 116.594 218.548 116.888 217.53C117.585 215.115 118.115 212.653 118.473 210.165C118.503 209.96 125.511 211.284 125.977 211.977C126.562 212.835 126.566 214.894 126.723 215.915C126.959 217.343 127.147 218.777 127.286 220.219Z" fill="#3F3D56"/>
<path d="M153.37 123.172L155.234 140.51C155.607 144.053 155.999 147.615 155.742 151.169C155.443 155.271 154.295 159.373 154.779 163.439C154.97 165.02 155.402 166.571 155.466 168.164C155.477 169.223 155.424 170.281 155.305 171.334C154.462 181.855 157.129 192.293 158.621 202.739C158.861 204.028 158.913 205.344 158.777 206.648C158.583 207.972 158.196 209.71 159.374 210.336L148.305 214.349C146.892 212.578 147.828 209.822 147.559 207.573C147.313 205.548 146.202 203.743 145.609 201.792C145.072 200.039 144.96 198.193 144.784 196.373C143.819 186.464 140.854 176.812 140.16 166.881C140.138 165.922 140.013 164.968 139.787 164.035C139.414 162.801 138.668 161.723 138.124 160.563C137.288 158.822 136.878 156.912 136.475 155.025L134.107 143.93C131.713 147.495 131.81 152.135 131.336 156.409C130.672 162.376 129.188 168.242 127.98 174.135C127.699 175.402 127.489 176.685 127.349 177.976C127.036 181.433 127.659 184.924 127.327 188.377C126.954 192.379 125.272 196.284 125.679 200.285C125.902 202.501 126.753 204.597 127.327 206.745C127.901 208.893 128.185 211.25 127.308 213.297C124.245 212.173 120.955 211.809 117.72 212.238C114.166 208.602 113.536 203.53 113.293 198.439C113.051 193.349 113.636 188.25 113.002 183.208C112.816 181.717 112.525 180.262 112.476 178.774C112.32 174.004 114.613 169.54 115.755 164.904C116.782 160.731 116.88 156.383 116.042 152.168C115.482 149.382 114.52 146.679 114.177 143.855C113.711 139.898 114.501 135.912 115.296 132.003C115.829 129.366 116.359 126.73 116.963 124.108C117.612 121.292 118.384 118.417 120.118 116.112C122.893 112.424 127.819 110.786 132.425 111.144C137.031 111.502 141.331 113.598 145.135 116.209C148.133 118.213 150.896 120.548 153.37 123.172Z" fill="#192534"/>
<path d="M140.995 56.7806C140.786 57.1166 140.641 57.4883 140.566 57.877C140.473 58.6416 140.939 59.3427 141.312 60.0103C141.79 60.8679 142.157 61.7827 142.405 62.7328C142.582 63.3207 142.637 63.939 142.565 64.549C142.474 65.0071 142.311 65.4478 142.08 65.8543C141.361 67.2416 140.294 68.5246 138.843 69.1026C137.72 69.5163 136.495 69.5659 135.341 69.2443C134.196 68.9201 133.113 68.4057 132.138 67.7227C131.316 67.2019 130.577 66.5607 129.945 65.8207C129.342 65.0115 128.834 64.1356 128.431 63.2101C127.655 61.5878 126.868 59.8536 127.01 58.0747C127.017 57.9134 127.047 57.7539 127.099 57.601C127.22 57.3248 127.39 57.0722 127.599 56.8552C129.19 54.9696 130.006 52.5503 129.881 50.0862L135.315 51.3207C136.512 51.5929 137.71 51.8652 138.892 52.2046C139.861 52.4843 141.353 52.8721 141.984 53.7374C142.614 54.6026 141.424 55.9899 140.995 56.7806Z" fill="#FBBEBE"/>
<path d="M138.086 55.8558C143.541 55.8558 147.962 51.4343 147.962 45.9802C147.962 40.5261 143.541 36.1047 138.086 36.1047C132.632 36.1047 128.211 40.5261 128.211 45.9802C128.211 51.4343 132.632 55.8558 138.086 55.8558Z" fill="#FBBEBE"/>
<path d="M136.497 65.9028C136.915 64.9891 137.817 64.411 138.641 63.8367C139.466 63.2624 140.301 62.5277 140.461 61.5319C140.471 61.3067 140.527 61.0858 140.626 60.883C140.943 60.4056 141.696 60.6443 142.147 60.9949C143.244 61.8489 143.989 63.061 144.717 64.2432C145.657 65.6809 146.463 67.2028 147.122 68.7894C148.17 71.5529 148.297 74.57 148.413 77.52C148.517 80.2052 148.618 82.9314 147.965 85.5346C147.555 87.183 146.846 88.7829 146.805 90.4798C146.682 96.6445 144.541 102.537 144.392 108.702C144.381 110.484 144.471 112.266 144.661 114.039L145.011 118.04C139.589 117.73 134.181 117.253 128.788 116.612C128.632 114.77 128.106 112.983 127.625 111.201C125.655 103.912 124.392 96.4513 123.854 88.9209C123.567 84.9229 123.272 80.9399 122.829 76.9569C122.43 73.3356 121.646 69.6919 122.116 66.0781C122.362 64.4355 122.879 62.8451 123.645 61.3715C123.888 60.7845 124.304 60.286 124.839 59.9432C125.106 59.8141 125.39 59.7225 125.682 59.6709C126.527 59.4996 127.385 59.3986 128.248 59.3688C128.458 59.3511 128.67 59.3713 128.874 59.4285C129.237 59.6097 129.536 59.8989 129.728 60.2565C131.39 62.7546 133.741 64.7162 136.497 65.9028Z" fill="#F2F2F2"/>
<path d="M131.918 65.1122C132.612 66.1042 134.081 66.3392 134.722 67.3499C134.939 67.7723 135.103 68.2193 135.211 68.6813C135.603 69.9306 136.393 71.0159 136.874 72.2354C137.568 73.9883 137.587 75.9276 137.594 77.8109C137.662 79.3111 137.547 80.814 137.251 82.2863C137.027 83.2074 136.662 84.0838 136.393 84.9938C135.937 86.5413 135.768 88.1591 135.894 89.7675C135.894 90.1149 135.986 90.4561 136.162 90.7558C136.415 91.0553 136.745 91.2797 137.117 91.4047C138.21 91.8858 139.354 92.3781 140.548 92.2662C140.793 92.2585 141.03 92.1794 141.23 92.0387C141.369 91.9127 141.482 91.7623 141.566 91.5949L142.312 90.3344C142.987 89.182 143.692 87.8916 143.431 86.5751C143.241 85.8956 142.956 85.2464 142.584 84.647C142.107 83.6741 141.701 82.6683 141.368 81.6373C140.179 78.2174 138.974 74.7491 138.706 71.139C138.548 69.7651 138.701 68.3733 139.153 67.0664C139.503 66.2621 139.944 65.5002 140.466 64.7952C140.348 64.6368 140.184 64.518 139.997 64.4547C139.81 64.3914 139.608 64.3866 139.418 64.4409C139.043 64.5568 138.679 64.7079 138.333 64.8922C137.236 65.3546 136.02 65.1868 134.913 64.8698C134.48 64.743 133.794 64.3104 133.346 64.3402C133.193 64.3589 131.944 65.157 131.918 65.1122Z" fill="#2B6CB0"/>
<path d="M140.649 65.0711C140.425 64.8921 140.078 64.728 139.88 64.9369C139.814 65.0274 139.766 65.13 139.739 65.2389C139.545 65.7611 138.974 66.0184 138.456 66.2198C137.937 66.4212 137.378 66.5331 137.065 66.1489C136.966 65.9994 136.917 65.8222 136.926 65.6431C136.935 65.464 137 65.2924 137.113 65.1532C137.342 64.8768 137.619 64.6432 137.93 64.4632C139.645 63.2524 140.814 61.4137 141.182 59.3464C141.663 59.7288 141.981 60.2791 142.073 60.8867C142.196 61.4797 142.211 62.0913 142.334 62.6843C142.517 63.5346 142.924 64.329 143.017 65.1905C143.065 65.6492 143.017 66.1116 143.017 66.5703C143.034 67.0188 143.086 67.4653 143.173 67.9055C142.301 66.9806 141.685 65.8953 140.649 65.0711Z" fill="#F2F2F2"/>
<path d="M133.1 62.5389C132.727 62.1846 132.354 61.8489 131.981 61.4872C130.345 59.8899 129.109 57.9283 128.375 55.7625C127.897 56.1355 127.372 56.6277 127.36 57.2543C127.403 57.6976 127.574 58.1189 127.853 58.4664C129.263 60.6873 130.194 63.1783 130.586 65.7798C130.788 65.465 131.067 65.2074 131.397 65.0317C131.727 64.856 132.096 64.7681 132.47 64.7766C133.059 64.7766 135.703 66.3429 135.893 65.9476C136.173 65.3285 133.547 62.9603 133.1 62.5389Z" fill="#F2F2F2"/>
<path d="M141.427 59.5703C144.936 63.0626 149.23 65.6626 153.951 67.1522C154.42 67.2546 154.855 67.4754 155.215 67.7937C155.484 68.1293 155.665 68.5267 155.741 68.9498C156.651 72.5077 156.957 76.1887 157.259 79.8472C157.338 80.4523 157.325 81.0659 157.222 81.6672C157.002 82.6443 156.308 83.4349 155.625 84.1696C153.485 86.4632 151.042 88.8613 150.68 91.9791C150.653 92.5801 150.582 93.1784 150.468 93.7692C150.281 94.4629 149.867 95.0745 149.614 95.7495C148.368 99.0724 151.184 103.097 149.468 106.192C150.397 107.976 151.034 109.897 151.355 111.883C151.413 112.636 151.585 113.375 151.866 114.076C152.377 115.143 153.429 115.821 154.257 116.687C156.782 119.275 157.091 123.235 157.24 126.849C157.333 128.886 157.304 131.224 155.748 132.559C154.85 133.338 153.623 133.592 152.448 133.786C150.885 134.047 149.185 134.234 147.801 133.462C146.809 132.91 146.134 131.944 145.489 131.011C144.266 129.232 143.039 127.457 141.879 125.633C140.044 122.758 138.313 119.472 138.843 116.101C138.694 119.551 137.967 123.027 136.273 126.033C134.58 129.038 131.854 131.548 128.546 132.54C125.238 133.532 121.371 132.831 118.905 130.415C118.101 129.586 117.41 128.654 116.851 127.644C115.447 125.241 114.423 122.635 113.815 119.92C113.654 119.215 113.535 118.428 113.889 117.798C114.057 117.5 114.314 117.265 114.49 116.97C115.079 115.967 114.512 114.703 113.942 113.681C113.073 113.763 112.45 112.741 112.528 111.868C112.606 110.995 113.129 110.238 113.498 109.444C114.579 107.102 114.341 104.376 113.818 101.851C113.296 99.3261 112.517 96.8161 112.577 94.2391C112.64 91.5129 110.678 89.0589 109.183 86.7802C108.347 85.4973 107.374 84.3039 106.647 82.9576C105.131 80.1244 104.78 76.8113 105.67 73.7235C106.192 72.1379 106.877 70.6107 107.713 69.1661L108.944 66.8576C109.173 66.306 109.529 65.8161 109.982 65.4273C110.436 65.0386 110.975 64.762 111.555 64.62L120.069 61.2635C121.158 60.8916 122.191 60.3748 123.142 59.7269C124.183 58.9437 124.958 57.8622 125.95 57.0268C126.095 56.875 126.268 56.7535 126.46 56.6696C126.653 56.5857 126.86 56.5411 127.069 56.5383C127.867 56.6091 128.151 57.6161 128.233 58.403C128.419 60.1633 129.725 61.6551 130.168 63.3669C132.57 72.821 137.653 81.5404 139.048 91.1922C140.614 87.4292 142.181 83.6587 144.187 80.1157C144.504 79.6071 144.77 79.0688 144.982 78.5084C145.222 77.7 145.312 76.8542 145.246 76.0134C145.146 73.5855 144.501 71.2136 143.863 68.8678C143.035 65.6754 142.289 62.7329 141.427 59.5703Z" fill="#3F3D56"/>
<path d="M157.654 88.4585C157.819 90.0472 157.979 91.6397 158.274 93.2098C158.617 95.026 159.139 96.8012 159.657 98.5765C159.91 99.5743 160.273 100.541 160.739 101.459C160.907 101.726 161.042 102.013 161.138 102.313C161.32 103.059 160.903 103.805 160.724 104.551C160.187 106.789 161.798 109.276 160.783 111.339C160.478 111.965 159.944 112.484 159.743 113.155C159.508 113.927 159.743 114.751 159.866 115.549C160.183 117.787 159.418 120.062 158.665 122.214L157.382 125.846C156.211 123.668 155.029 121.468 153.41 119.599C152.832 118.928 152.202 118.305 151.669 117.597C150.873 116.483 150.245 115.259 149.804 113.964C148.665 110.887 148.015 107.65 147.876 104.372C147.783 103.44 147.891 102.499 148.193 101.612C148.44 101.099 148.716 100.601 149.021 100.12C150.02 98.3191 150.225 96.1859 150.207 94.1272C150.188 92.0686 149.968 90.0025 150.207 87.955C150.402 86.2455 150.907 84.586 151.699 83.0583C152.165 82.069 152.859 81.2039 153.724 80.5335C154.369 80.0505 155.156 79.7948 155.961 79.8062C157.181 79.8771 156.901 80.9251 157.006 81.9357L157.654 88.4585Z" fill="#3F3D56"/>
<path d="M102.798 83.3827C102.037 85.6204 101.351 87.8779 100.739 90.1554C100.142 92.393 99.609 94.6431 99.1391 96.9057C98.8977 97.9005 98.7627 98.9181 98.7363 99.9414C98.784 101.133 98.9884 102.313 99.3442 103.451C101.746 112.107 106.124 120.092 111.055 127.599C112.463 125.842 114.137 124.314 116.015 123.071C116.168 122.98 116.297 122.852 116.388 122.698C116.435 122.553 116.449 122.4 116.428 122.248C116.407 122.097 116.353 121.953 116.268 121.826C114.907 119.036 112.752 116.578 112.073 113.546C111.789 112.286 111.778 110.973 111.457 109.72C111.043 108.098 110.119 106.613 109.906 104.95C109.678 103.138 110.279 101.161 109.429 99.5536C111.163 98.8785 112.166 97.0921 112.901 95.3803C113.686 93.6291 114.247 91.7859 114.571 89.8943C115.082 86.268 114.372 82.5747 112.554 79.396C111.666 77.8103 110.526 76.3795 109.179 75.1593C108.735 74.7603 107.687 73.6154 107.042 73.6265C106.18 73.6452 105.904 75.04 105.658 75.6665C104.662 78.2249 103.678 80.787 102.798 83.3827Z" fill="#3F3D56"/>
<path d="M118.246 125.126C118.358 125.208 118.484 125.32 118.454 125.454C118.425 125.589 118.316 125.622 118.22 125.678C117.715 126.036 117.339 126.545 117.145 127.133C116.526 128.529 115.985 129.96 115.527 131.418C114.692 130.167 113.711 129.022 112.603 128.005C111.753 127.222 110.802 126.48 110.347 125.421C110.347 125.391 112.301 123.948 112.48 123.791C113.028 123.302 113.718 121.949 114.285 121.65C114.926 121.315 115.538 122.631 116.027 123.161C116.699 123.888 117.442 124.547 118.246 125.126Z" fill="#FBBEBE"/>
<path d="M148.573 44.4361C148.547 43.9475 148.483 43.4067 148.11 43.0897C147.783 42.8633 147.389 42.7542 146.992 42.7802C144.817 42.7093 142.568 43.0748 140.517 42.3439C139.167 41.8628 138.015 40.9379 136.698 40.3635C135.382 39.7892 133.696 39.6363 132.633 40.6022C131.828 41.3481 131.608 42.493 131.328 43.5485C130.712 45.8779 129.616 48.0527 128.109 49.9333C127.099 49.62 126.375 48.7175 125.909 47.7702C124.324 44.5405 125.103 40.6843 126.23 37.2606C126.603 36.112 127.017 34.9745 127.431 33.8408L128.341 31.3346C129.535 31.2173 130.645 30.6651 131.458 29.7831L131.85 30.7341C132.861 30.6978 133.837 30.3529 134.647 29.7458C134.96 30.3351 135.766 30.4917 136.419 30.3015C137.071 30.1113 137.634 29.7458 138.283 29.5556C140.017 28.9962 141.867 29.8577 143.687 29.9547C144.457 29.9359 145.228 29.9583 145.996 30.0218C148.144 30.3686 149.662 32.39 150.318 34.4636C150.755 35.8435 151.116 37.5403 152.478 38.0289C152.507 38.551 151.582 38.6517 151.504 39.1477C151.495 39.3131 151.534 39.4776 151.616 39.6214L152.865 42.3028C152.268 42.4528 151.64 42.4216 151.06 42.2133C150.497 43.5373 148.629 45.4467 148.573 44.4361Z" fill="#192534"/>
<path d="M211.884 50.2727C212.517 52.3177 213.016 54.4019 213.376 56.5121C213.645 58.0933 213.801 59.8499 212.895 61.1701C216.348 55.975 219.955 50.6233 225.202 47.2705C224.133 46.1119 223.321 44.7415 222.816 43.2483C222.312 41.7551 222.127 40.1725 222.274 38.6033C222.304 38.29 217.967 39.9273 217.635 40.1137C216.113 40.9603 214.719 42.012 213.234 42.9183C212.466 43.3844 209.266 44.4884 209.236 45.1559C209.236 45.5848 210.508 46.8976 210.747 47.3488C211.215 48.2864 211.596 49.2652 211.884 50.2727Z" fill="#FBBEBE"/>
<path d="M227.931 246.21C227.079 245.609 226.079 245.25 225.039 245.172C223.999 245.093 222.957 245.297 222.024 245.762C220.334 246.635 219.197 248.287 217.66 249.406C215.02 251.323 211.533 251.476 208.441 252.512C207.621 252.788 206.748 253.199 206.401 254.004C206.285 254.343 206.239 254.701 206.265 255.059C206.291 255.416 206.39 255.764 206.554 256.082C207.071 257.233 207.977 258.167 209.113 258.718C210.5 259.382 212.096 259.412 213.633 259.431L226.984 259.587C231.086 259.636 235.215 259.684 239.291 260.195C240.242 260.314 241.272 260.445 242.111 259.979C243.476 259.233 243.632 257.346 243.528 255.791C243.253 251.85 242.372 247.976 240.917 244.304C240.757 243.897 240.544 243.435 240.093 243.36C239.773 243.346 239.458 243.446 239.205 243.644C235.439 245.881 230.669 247.146 226.663 245.356" fill="white"/>
<path d="M234.615 161.03C233.123 169.693 234.096 178.595 235.775 187.221C236.084 188.939 236.491 190.637 236.994 192.308C237.595 194.21 238.404 196.038 238.967 197.951C240.399 202.799 240.198 207.983 239.985 213.044L239.008 236.073C238.926 238.005 238.851 239.982 239.433 241.824C239.668 242.57 239.955 243.502 239.362 244.006C239.13 244.172 238.859 244.276 238.575 244.308C235.907 244.799 233.151 244.386 230.744 243.133L230.479 219.869C230.397 212.697 230.311 205.496 229.207 198.413C228.331 192.782 226.809 187.225 226.708 181.526C226.604 175.559 228.066 169.671 229.558 163.886C229.878 162.648 231.049 161.742 232.012 160.903C232.347 160.572 232.756 160.324 233.205 160.179C233.653 160.056 234.339 160.653 234.615 161.03Z" fill="#3F3D56"/>
<path opacity="0.1" d="M234.615 161.03C233.123 169.693 234.096 178.595 235.775 187.221C236.084 188.939 236.491 190.637 236.994 192.308C237.595 194.21 238.404 196.038 238.967 197.951C240.399 202.799 240.198 207.983 239.985 213.044L239.008 236.073C238.926 238.005 238.851 239.982 239.433 241.824C239.668 242.57 239.955 243.502 239.362 244.006C239.13 244.172 238.859 244.276 238.575 244.308C235.907 244.799 233.151 244.386 230.744 243.133L230.479 219.869C230.397 212.697 230.311 205.496 229.207 198.413C228.331 192.782 226.809 187.225 226.708 181.526C226.604 175.559 228.066 169.671 229.558 163.886C229.878 162.648 231.049 161.742 232.012 160.903C232.347 160.572 232.756 160.324 233.205 160.179C233.653 160.056 234.339 160.653 234.615 161.03Z" fill="black"/>
<path d="M206.611 133.954C206.059 136.225 207.23 138.578 207.099 140.913C207.025 142.326 206.469 143.736 206.726 145.123C206.984 146.511 207.976 147.555 208.505 148.827C208.891 149.889 209.096 151.008 209.109 152.138C209.262 154.928 209.139 157.733 209.035 160.511C208.86 165.173 208.729 169.861 209.344 174.481C209.88 178.485 210.968 182.394 212.578 186.099C213.066 187.106 213.469 188.153 213.782 189.228C213.988 190.229 214.126 191.243 214.193 192.263C214.547 195.581 215.438 198.819 216.829 201.852C217.78 203.929 219.44 205.581 219.966 207.785C220.466 209.896 220.13 212.123 220.492 214.26C220.756 215.845 221.402 217.344 221.76 218.91C222.226 220.935 222.215 223.035 222.45 225.101C223.121 231.068 225.832 237.035 224.214 242.823C223.889 243.987 223.386 245.169 223.613 246.355C223.725 246.937 224.009 247.511 223.882 248.089C223.777 248.582 223.397 248.962 223.203 249.428C222.83 250.301 223.225 251.338 223.889 252.013C224.597 252.642 225.42 253.128 226.313 253.445C229.062 254.62 231.907 255.813 234.891 255.787C235.253 255.806 235.615 255.74 235.946 255.593C236.483 255.313 236.748 254.705 236.976 254.146L238.505 250.364C238.691 249.906 238.878 249.369 238.62 248.943C238.441 248.71 238.224 248.509 237.979 248.347C236.745 247.306 237.024 245.363 237.352 243.8C238.191 239.787 238.655 235.704 238.74 231.605C238.904 223.43 237.558 215.304 236.215 207.237C235.749 204.436 235.279 201.617 234.35 198.932C233.422 196.246 232.053 193.662 232.277 190.872C232.515 187.859 231.732 184.7 232.277 181.728C232.821 178.755 233.683 175.846 234.238 172.878C234.958 169.025 235.137 165.098 235.357 161.19C235.45 159.594 235.57 157.945 236.316 156.528C236.752 155.7 237.386 154.991 237.875 154.19C239.135 152.105 239.336 149.52 240.541 147.402C241.112 146.399 241.899 145.515 242.316 144.441C242.61 143.594 242.763 142.704 242.771 141.808C242.889 139.557 242.764 137.3 242.398 135.076C236.05 131.846 229.009 130.212 221.886 130.318C219.16 130.362 216.404 130.638 213.846 131.582C211.407 132.488 209.184 133.76 206.611 133.954Z" fill="#3F3D56"/>
<path d="M221.901 252.11C220.804 253.475 220.879 255.425 220.178 257.033C219.328 258.983 217.433 260.232 215.635 261.37L204.447 268.456C203.835 268.829 203.179 269.287 202.955 269.981C202.849 270.424 202.868 270.888 203.011 271.32C203.278 272.256 203.776 273.11 204.459 273.803C205.142 274.496 205.988 275.007 206.92 275.288C207.91 275.524 208.927 275.628 209.944 275.598L214.975 275.665C216.508 275.725 218.043 275.665 219.566 275.486C220.961 275.284 222.319 274.885 223.706 274.632C226.231 274.173 228.826 274.214 231.355 273.77C232.903 273.466 234.432 273.071 235.935 272.588C237.762 272.04 239.623 271.469 241.189 270.384C241.621 270.122 241.971 269.745 242.2 269.295C242.465 268.68 242.319 267.975 242.17 267.322L239.769 256.768C239.633 255.889 239.313 255.049 238.829 254.303C238.295 253.594 237.337 253.124 236.505 253.426C236.162 253.583 235.838 253.778 235.539 254.008C234.309 254.817 232.731 254.952 231.277 254.698C230.337 254.53 229.095 254.273 228.338 253.65C227.764 253.176 227.592 252.442 227.103 251.905C226.761 251.553 226.348 251.277 225.892 251.095C225.436 250.913 224.947 250.829 224.456 250.848C223.966 250.868 223.485 250.99 223.045 251.207C222.604 251.425 222.215 251.732 221.901 252.11Z" fill="white"/>
<path d="M214.647 48.8181C222.089 48.8181 228.122 42.7854 228.122 35.3437C228.122 27.902 222.089 21.8693 214.647 21.8693C207.206 21.8693 201.173 27.902 201.173 35.3437C201.173 42.7854 207.206 48.8181 214.647 48.8181Z" fill="#FBBEBE"/>
<path d="M204.254 36.1345C205.544 35.411 205.544 33.3263 206.865 32.6326C208.185 31.9389 209.684 33.1435 210.531 34.3593C211.764 36.1399 212.621 38.154 213.048 40.2779C213.167 40.8821 213.279 41.5422 213.734 41.9636C214.189 42.385 214.786 42.4373 215.368 42.4969C217.071 42.666 218.776 42.8201 220.484 42.9594C222.386 43.1123 224.393 43.2354 226.12 42.4186C226.801 42.1139 227.386 41.6291 227.813 41.0163C228.154 40.428 228.399 39.7882 228.536 39.1218C229.428 35.7317 230.326 32.3007 230.401 28.795C230.431 27.348 230.304 25.8487 229.607 24.5807C229.2 23.8348 228.603 23.1859 228.436 22.3654C228.268 21.545 228.808 20.5007 229.659 20.5902C228.89 20.6218 228.125 20.4764 227.421 20.1651C226.746 19.7921 226.246 18.9903 226.485 18.2593C224.59 18.5018 223.211 16.6296 221.734 15.4175C221.494 15.1794 221.169 15.0455 220.831 15.0446C220.572 15.1093 220.321 15.2057 220.085 15.3317C219.339 15.5928 218.56 15.0968 217.795 14.8805C215.744 14.3061 213.137 15.6935 211.616 14.2017C211.761 15.1527 210.594 15.7905 209.632 15.7718C208.67 15.7532 207.678 15.3989 206.768 15.7196C206.899 15.9606 206.976 16.2278 206.993 16.5021C207.009 16.7763 206.965 17.0508 206.863 17.3059C206.761 17.5611 206.604 17.7905 206.403 17.9779C206.202 18.1653 205.963 18.306 205.701 18.3899L206.152 19.3744C205.687 19.4674 205.258 19.6885 204.912 20.0127C204.566 20.3369 204.317 20.7514 204.194 21.2093C203.698 23.1673 203.821 25.9494 203.941 27.9633C204 28.8472 204.862 35.8026 204.254 36.1345Z" fill="#192534"/>
<path d="M215.752 52.7119C208.983 60.3237 207.26 71.0384 205.817 81.1265L203.691 96.0219C203.139 99.8855 202.572 103.749 202.091 107.624C201.755 110.276 201.442 112.968 201.807 115.616C202.095 117.705 202.792 119.719 203.374 121.729C204.888 127.001 205.641 132.463 205.611 137.948C206.063 136.62 207.625 136.083 208.998 135.785C220.513 133.287 232.528 134.57 243.256 139.444C245.14 134.166 244.785 128.393 245.311 122.814C246.057 114.859 248.627 107.15 249.388 99.2105C249.667 96.2531 249.701 93.2807 249.731 90.3084C249.753 88.1266 249.775 85.9226 249.32 83.7856C248.813 81.4211 247.743 79.217 246.635 77.0726C243.573 71.1115 240.171 65.3313 236.446 59.7606C234.572 56.956 232.616 54.2075 230.58 51.5148C229.548 50.1498 228.495 48.7998 227.421 47.4646C226.381 46.1705 225.929 45.048 224.277 45.8237C221.156 47.2856 218.023 50.1573 215.752 52.7119Z" fill="#2B6CB0"/>
<path d="M219.63 116.068C217.978 116.127 216.325 116.075 214.681 115.911C213.461 115.792 212.216 115.613 211.026 115.911C210.509 116.041 210.025 116.279 209.605 116.608C209.45 116.747 209.338 116.927 209.284 117.128C209.229 117.329 209.235 117.542 209.299 117.74C209.364 117.937 209.484 118.112 209.647 118.242C209.809 118.373 210.006 118.453 210.213 118.473L211.488 118.585C212.298 118.656 213.141 118.738 213.771 119.331C214.03 119.564 214.194 119.884 214.233 120.23C214.312 121.099 213.558 121.572 212.883 121.934C211.924 122.385 211.036 122.975 210.25 123.687C209.635 124.281 209.248 125.073 209.158 125.924C209.155 126 209.172 126.076 209.207 126.143C209.243 126.21 209.295 126.266 209.359 126.307C209.424 126.347 209.497 126.37 209.573 126.373C209.649 126.376 209.724 126.359 209.792 126.324C211.283 125.578 212.257 123.366 213.894 123.735C212.405 124.207 211.129 125.188 210.291 126.506C210.085 126.821 209.99 127.196 210.024 127.571C210.057 127.947 210.216 128.299 210.475 128.573C210.734 128.846 211.078 129.024 211.451 129.077C211.824 129.131 212.204 129.057 212.529 128.867C212.771 128.725 213.005 128.569 213.23 128.401C214.339 127.503 215.333 126.471 216.188 125.328C214.994 127.845 213.786 130.791 215.158 133.294C215.227 133.431 215.333 133.546 215.466 133.624C215.598 133.703 215.75 133.741 215.904 133.734C216.337 133.689 216.463 133.283 216.534 132.925C216.758 131.772 216.814 130.556 217.381 129.531C218.694 127.151 221.931 126.92 224.396 125.76C227.353 124.388 229.379 121.434 230.195 118.279C230.481 117.359 230.531 116.382 230.341 115.437C229.792 113.315 227.174 112.827 225.492 113.852C223.43 115.161 222.233 115.986 219.63 116.068Z" fill="#FBBEBE"/>
<path opacity="0.1" d="M217.012 74.324C219.622 78.3555 224.154 80.6267 228.04 83.4574C228.988 84.0748 229.814 84.8611 230.479 85.7771C231.459 87.2912 231.597 89.2156 231.396 90.9983C231.143 93.3515 230.385 95.6153 229.636 97.8604L228.006 102.727C226.973 105.815 225.906 108.967 223.941 111.562C223.437 112.222 222.852 112.927 222.874 113.755C222.918 114.234 223.082 114.693 223.352 115.09C223.981 116.117 224.81 117.006 225.789 117.706C226.769 118.405 227.879 118.901 229.054 119.163C229.758 119.342 230.495 119.342 231.198 119.163C232.205 118.865 232.962 118.044 233.664 117.268C237.02 113.565 240.377 109.81 242.801 105.465C245.169 101.224 246.586 96.5141 247.891 91.8486C248.429 90.131 248.804 88.3667 249.01 86.5789C249.286 83.2224 248.406 79.8659 246.966 76.8339C245.527 73.8019 243.547 71.057 241.507 68.3905C239.581 65.7713 237.442 63.3163 235.111 61.0509C231.053 57.2581 226.089 55.0279 220.659 57.1798C216.825 58.7014 215.389 61.8751 215.046 65.9402C214.756 68.8753 215.447 71.8238 217.012 74.324Z" fill="black"/>
<path d="M218.369 73.302C220.98 77.3335 225.515 79.6047 229.397 82.4354C230.342 83.0589 231.165 83.8501 231.825 84.77C232.806 86.2841 232.944 88.2048 232.742 89.9912C232.485 92.3445 231.732 94.6082 230.978 96.8533L229.349 101.702C228.316 104.79 227.249 107.937 225.283 110.537C224.784 111.197 224.198 111.898 224.221 112.73C224.262 113.207 224.426 113.666 224.698 114.061C225.326 115.088 226.154 115.978 227.133 116.678C228.112 117.378 229.222 117.875 230.397 118.137C231.101 118.316 231.84 118.316 232.545 118.137C233.552 117.843 234.305 117.018 235.01 116.246C238.366 112.539 241.723 108.788 244.147 104.443C246.515 100.202 247.932 95.4921 249.238 90.8228C249.777 89.107 250.151 87.3437 250.356 85.5569C250.632 82.2004 249.752 78.8439 248.316 75.8081C246.881 72.7724 244.897 70.0313 242.857 67.3647C240.925 64.7592 238.78 62.318 236.446 60.0662C232.392 56.2771 227.428 54.0432 221.998 56.1988C218.16 57.7204 216.728 60.8904 216.381 64.9592C216.108 67.8831 216.806 70.8156 218.369 73.302Z" fill="#2B6CB0"/>
<path d="M300.835 207.073C300.838 208.045 300.738 209.016 300.536 209.967C300.499 210.146 300.458 210.34 300.417 210.493C299.358 214.741 296.371 217.847 292.805 218.045C292.686 218.045 292.567 218.045 292.432 218.045C288.662 218.045 285.473 214.793 284.421 210.314C284.392 210.194 284.366 210.075 284.339 209.941C284.138 208.989 284.038 208.019 284.041 207.047C284.041 200.979 287.797 196.064 292.432 196.064C297.068 196.064 300.835 201.016 300.835 207.073Z" fill="#3F3D56"/>
<path opacity="0.1" d="M300.834 207.073C300.837 208.046 300.737 209.016 300.536 209.967C300.499 210.146 300.458 210.34 300.417 210.493C300.29 210.493 300.167 210.493 300.044 210.493C299.12 210.443 298.202 210.318 297.299 210.12C296.499 210.367 295.681 210.554 294.852 210.679C294.217 210.775 293.577 210.835 292.936 210.858H292.287C291.518 210.858 290.751 210.807 289.989 210.705C288.758 210.541 287.548 210.241 286.383 209.81C285.745 210.023 285.095 210.197 284.436 210.333C284.406 210.213 284.38 210.094 284.354 209.96C284.153 209.008 284.053 208.038 284.056 207.066C284.056 200.998 287.811 196.082 292.447 196.082C297.083 196.082 300.834 201.016 300.834 207.073Z" fill="black"/>
<path d="M318.736 186.613C318.74 183.943 318.114 181.31 316.909 178.927L307.041 181.996L315.704 176.902C314.251 174.803 312.345 173.058 310.127 171.794C307.91 170.53 305.436 169.78 302.89 169.6C302.485 168.985 302.04 168.397 301.559 167.839L287.387 172.251L299.011 165.415C296.788 163.709 294.178 162.576 291.412 162.119C288.647 161.661 285.811 161.892 283.156 162.792C280.501 163.691 278.109 165.231 276.191 167.275C274.273 169.319 272.888 171.805 272.16 174.511L284.299 188.486L271.13 178.961C267.794 181.327 265.42 184.812 264.439 188.782C263.457 192.753 263.935 196.943 265.785 200.591C267.635 204.238 270.734 207.099 274.517 208.653C278.3 210.208 282.515 210.351 286.395 209.057C289.904 210.347 293.739 210.453 297.315 209.359C299.807 209.908 302.391 209.891 304.876 209.309C307.361 208.727 309.684 207.596 311.674 205.998C313.664 204.4 315.27 202.376 316.375 200.075C317.48 197.775 318.055 195.256 318.058 192.704C318.058 192.331 318.058 191.958 318.02 191.585C318.504 189.972 318.745 188.297 318.736 186.613Z" fill="#2B6CB0"/>
<path opacity="0.1" d="M318.441 189.776C313.23 188.788 307.886 188.72 302.651 189.575C296.725 190.556 290.668 192.711 284.873 191.137C281.471 190.212 278.532 188.072 275.21 186.882C272.004 185.763 268.55 185.557 265.233 186.285C263.97 189.309 263.603 192.632 264.177 195.858C264.752 199.084 266.243 202.077 268.472 204.479C270.702 206.88 273.576 208.589 276.751 209.401C279.925 210.213 283.267 210.093 286.375 209.057C289.885 210.347 293.72 210.453 297.295 209.359C299.788 209.908 302.372 209.891 304.857 209.309C307.342 208.727 309.665 207.596 311.655 205.998C313.645 204.4 315.251 202.376 316.356 200.076C317.461 197.775 318.036 195.256 318.038 192.704C318.038 192.331 318.038 191.958 318.001 191.585C318.181 190.99 318.328 190.387 318.441 189.776Z" fill="black"/>
</svg>
