<svg width="283" height="316" viewBox="0 0 283 316" fill="none" xmlns="http://www.w3.org/2000/svg">
<path d="M80.7287 70.565C78.5624 71.3912 76.3504 72.0916 74.1035 72.6626C71.1356 73.3868 69.46 73.7224 66.5954 72.6094C66.4948 72.5703 66.3988 72.5317 66.3082 72.4937C60.8786 70.1824 56.2372 66.3407 52.949 61.4363C49.6608 56.5318 47.8676 50.7761 47.7877 44.8698C47.7734 44.6672 47.7734 44.4542 47.7734 44.2464C47.7706 43.2453 47.8184 42.2448 47.9166 41.2486C48.0421 39.8917 48.2589 38.5448 48.5656 37.217L48.5369 37.2118C46.2177 34.8375 45.3253 31.5852 45.6212 28.3173C45.8239 26.1018 46.5262 23.9613 47.6752 22.057C48.8242 20.1528 50.3899 18.5344 52.2544 17.3239C55.1764 15.4847 58.471 14.3204 61.8988 13.9157C62.8192 13.8095 63.7449 13.7557 64.6714 13.7547H73.3756C75.1734 13.3333 76.9997 13.045 78.8397 12.8922H78.854C96.3723 11.4375 110.188 23.0648 108.899 37.2118C108.889 37.2274 108.875 37.243 108.866 37.2586C108.493 37.8664 108.164 38.4431 107.873 38.9938C107.592 39.5082 107.353 40.0017 107.148 40.4693C105.549 44.0853 113.146 100.187 110.421 101.039C108.87 101.522 102.619 59.7754 103.74 67.7139C105.153 77.6734 88.7993 67.5782 80.7287 70.565Z" fill="#2F2E41"/>
<path d="M107.119 171.981L131.403 223.776L37.9883 214.304L57.4881 164.582L107.119 171.981Z" fill="#FFB6B6"/>
<path d="M155.866 275.827C139.622 281.24 122.503 283.536 105.409 282.593L97.9752 270.524C97.9752 270.524 97.664 275.019 97.1997 281.891C89.0622 280.946 81.0308 279.242 73.2107 276.799C58.3805 272.156 44.4789 264.962 30.3873 258.328C27.5331 241.294 26.4621 215.027 42.2419 199.736L127.177 215.317C127.177 215.317 140.804 225.522 137.158 229.177C133.513 232.827 132.948 232.262 135.344 234.66C137.739 237.058 142.914 240.264 142.967 242.361C142.988 243.18 148.797 258.027 155.866 275.827Z" fill="#2F2E41"/>
<path d="M92.2876 71.8958L71.7676 73.329L58.5048 86.16L53.8599 86.99C49.6846 87.7353 45.9278 89.9886 43.3016 93.3226C40.6754 96.6566 39.3626 100.84 39.612 105.078C40.5675 121.284 42.7067 145.499 47.1779 153.356C54.1109 165.537 59.8374 161.715 54.1109 165.537C48.3844 169.36 44.5398 166.356 47.1779 172.397C49.816 178.437 43.6123 186.185 43.6123 186.185L41.1427 188.657L43.762 189.732L127.223 200.605C127.223 200.605 120.006 168.12 124.519 160.14C129.033 152.16 139.975 128.038 130.209 118.6L120.66 84.9571L104.235 80.1071L92.2876 71.8958Z" fill="#2B6CB0"/>
<path d="M216.505 205.223C215.131 205.179 213.784 204.838 212.556 204.221C211.327 203.605 210.247 202.729 209.39 201.654C208.533 200.579 207.92 199.33 207.592 197.994C207.265 196.658 207.231 195.267 207.493 193.917L168.344 167.372L173.015 154.726L219.283 186.594C221.521 187.205 223.456 188.616 224.724 190.561C225.991 192.505 226.502 194.848 226.159 197.144C225.816 199.44 224.644 201.531 222.865 203.02C221.086 204.509 218.823 205.293 216.505 205.223V205.223Z" fill="#FFB6B6"/>
<path d="M105.925 83.3684L100.236 85.6236L130.583 144.962L193.407 187.835L202.463 172.511L154.641 131.157L135.495 94.3957C132.801 89.2223 128.287 85.232 122.826 83.1954C117.365 81.1588 111.344 81.2204 105.925 83.3684Z" fill="#2B6CB0"/>
<path d="M80.9594 66.6772C92.3392 66.6772 101.564 57.4414 101.564 46.0483C101.564 34.6553 92.3392 25.4194 80.9594 25.4194C69.5796 25.4194 60.3545 34.6553 60.3545 46.0483C60.3545 57.4414 69.5796 66.6772 80.9594 66.6772Z" fill="#FFB6B6"/>
<path d="M98.8775 37.3248C98.5339 37.5063 98.1951 37.6735 97.8515 37.8407C97.4936 38.0127 97.1357 38.1847 96.773 38.3471C89.8774 41.4765 84.2606 41.8253 80.8533 37.3248C80.7601 34.957 80.2277 32.6273 79.2833 30.4545C79.4502 32.8826 78.811 35.2979 77.4652 37.3248H70.6029C63.5354 42.0211 59.9086 46.3354 64.8143 61.7528C65.1341 62.7657 67.3245 98.7508 67.9496 101.517C57.2506 97.4082 48.0214 53.7837 47.7875 42.2887C47.7732 42.1024 47.7732 41.9065 47.7732 41.7154C47.7704 40.7945 47.8182 39.8743 47.9164 38.9587C48.0423 37.7087 48.2592 36.4696 48.5654 35.2512L48.5368 35.2465C47.4482 34.2045 46.6177 32.9225 46.1115 31.5025C45.6053 30.0824 45.4373 28.5637 45.621 27.0672C47.4158 24.7144 49.6369 22.7209 52.1683 21.1907C54.4701 20.0747 56.8694 19.1728 59.336 18.4961C59.398 18.4818 59.4505 18.4674 59.5125 18.4531C60.2665 18.2476 61.0396 18.0613 61.8127 17.8989C63.4058 17.5644 65.0166 17.3204 66.6373 17.1679C66.7566 17.1631 66.8711 17.1536 66.9761 17.1536C67.6243 17.154 68.2606 17.3289 68.8181 17.66C68.8229 17.66 68.8229 17.6648 68.8324 17.6648C69.3682 17.9853 69.8124 18.4384 70.1225 18.9806C70.4326 19.5229 70.598 20.1359 70.6029 20.7607H78.2478C78.5293 20.7607 78.8109 20.7702 79.0924 20.7846C89.7389 21.2098 98.2953 25.7677 98.8441 36.245C98.868 36.6081 98.8775 36.9617 98.8775 37.3248Z" fill="#2F2E41"/>
<path d="M53.6792 38.1543C61.1762 38.1543 67.2538 32.0696 67.2538 24.5638C67.2538 17.058 61.1762 10.9734 53.6792 10.9734C46.1821 10.9734 40.1045 17.058 40.1045 24.5638C40.1045 32.0696 46.1821 38.1543 53.6792 38.1543Z" fill="#2F2E41"/>
<path d="M72.3161 18.2777C70.7739 25.623 63.1652 30.0161 55.8862 28.219C52.3906 27.3561 49.3807 25.1382 47.5185 22.0534C45.6563 18.9687 45.0944 15.2696 45.9564 11.77C47.7513 4.48253 56.5854 6.58344 62.3863 1.82869C70.5925 -4.89759 74.3959 8.37202 72.3161 18.2777Z" fill="#2F2E41"/>
<path d="M42.1547 222.742C53.7241 175.507 76.6479 134.908 114.613 103.099C116.082 100.679 118.45 98.9415 121.197 98.2674C123.945 97.5933 126.847 98.0377 129.267 99.5032L219.519 154.289C221.936 155.76 223.672 158.13 224.345 160.881C225.018 163.631 224.574 166.537 223.111 168.96C208.62 217.428 186.916 259.486 150.653 288.603C149.184 291.023 146.815 292.76 144.068 293.435C141.321 294.109 138.419 293.664 135.998 292.199L45.7464 237.413C43.3293 235.942 41.5937 233.571 40.9203 230.821C40.247 228.07 40.6909 225.165 42.1547 222.742Z" fill="#D9EDFE"/>
<path opacity="0.2" d="M58.197 238.66C55.78 237.189 54.0444 234.819 53.3711 232.068C52.6978 229.318 53.1417 226.412 54.6055 223.989C66.1749 176.754 89.0987 136.155 127.063 104.346C128.036 102.762 129.409 101.463 131.044 100.581L129.268 99.5032C126.848 98.0377 123.946 97.5933 121.198 98.2673C118.451 98.9414 116.083 100.679 114.614 103.099C76.6488 134.908 53.7251 175.507 42.1558 222.742C40.6919 225.165 40.248 228.07 40.9213 230.821C41.5946 233.571 43.3302 235.942 45.7473 237.413L135.999 292.199C137.605 293.166 139.439 293.692 141.313 293.721C143.188 293.751 145.037 293.284 146.673 292.368L58.197 238.66Z" fill="black"/>
<path d="M164.039 212.27L103.458 175.726C102.496 175.143 101.803 174.202 101.533 173.109C101.263 172.016 101.438 170.861 102.018 169.897C102.598 168.932 103.537 168.238 104.629 167.966C105.72 167.694 106.874 167.867 107.838 168.447L168.42 204.992C169.38 205.576 170.07 206.516 170.338 207.608C170.607 208.7 170.432 209.854 169.853 210.817C169.273 211.78 168.336 212.474 167.246 212.746C166.156 213.019 165.003 212.848 164.039 212.27L164.039 212.27Z" fill="white"/>
<path d="M128.796 163.808L115.468 155.768C114.503 155.19 113.806 154.251 113.531 153.158C113.257 152.065 113.427 150.908 114.005 149.941C114.583 148.974 115.521 148.276 116.612 148.002C117.704 147.727 118.86 147.898 119.826 148.476L119.849 148.49L133.176 156.53C134.137 157.113 134.827 158.054 135.096 159.146C135.365 160.238 135.19 161.392 134.61 162.355C134.031 163.318 133.093 164.012 132.003 164.285C130.913 164.557 129.76 164.386 128.796 163.808Z" fill="white"/>
<path d="M154.41 228.269L93.8288 191.724C92.8653 191.143 92.1715 190.203 91.9 189.11C91.6284 188.017 91.8013 186.861 92.3806 185.896C92.96 184.931 93.8984 184.235 94.9897 183.962C96.0809 183.689 97.2358 183.861 98.2005 184.44L98.2091 184.446L158.79 220.99C159.75 221.574 160.44 222.514 160.709 223.606C160.978 224.698 160.803 225.852 160.223 226.815C159.644 227.778 158.706 228.472 157.617 228.744C156.527 229.017 155.374 228.846 154.41 228.269L154.41 228.269Z" fill="white"/>
<path d="M171.733 143.364C181.505 143.364 189.427 135.432 189.427 125.649C189.427 115.865 181.505 107.934 171.733 107.934C161.96 107.934 154.038 115.865 154.038 125.649C154.038 135.432 161.96 143.364 171.733 143.364Z" fill="#3F3D56"/>
<path d="M141.232 315.472C162.119 315.472 179.051 298.52 179.051 277.609C179.051 256.697 162.119 239.745 141.232 239.745C120.344 239.745 103.412 256.697 103.412 277.609C103.412 298.52 120.344 315.472 141.232 315.472Z" fill="white"/>
<path d="M141.232 316C133.647 316 126.233 313.748 119.927 309.53C113.621 305.311 108.706 299.315 105.804 292.3C102.901 285.285 102.142 277.566 103.622 270.119C105.101 262.671 108.753 255.831 114.116 250.462C119.479 245.092 126.312 241.436 133.75 239.955C141.189 238.473 148.899 239.233 155.906 242.139C162.913 245.045 168.902 249.966 173.116 256.279C177.33 262.592 179.579 270.015 179.579 277.608C179.567 287.787 175.524 297.545 168.335 304.742C161.146 311.94 151.399 315.988 141.232 316ZM141.232 240.273C133.856 240.273 126.646 242.463 120.514 246.565C114.381 250.668 109.601 256.499 106.779 263.321C103.956 270.143 103.218 277.65 104.657 284.892C106.095 292.135 109.647 298.787 114.863 304.008C120.078 309.23 126.723 312.786 133.957 314.226C141.191 315.667 148.689 314.927 155.503 312.102C162.317 309.276 168.141 304.49 172.239 298.351C176.337 292.211 178.524 284.992 178.524 277.608C178.512 267.71 174.58 258.22 167.589 251.221C160.598 244.221 151.119 240.284 141.232 240.273Z" fill="#3F3D56"/>
<path d="M136.072 297.315C135.419 297.315 134.775 297.162 134.191 296.87C133.607 296.577 133.099 296.153 132.707 295.629L122.389 281.856C122.057 281.414 121.816 280.91 121.678 280.374C121.541 279.838 121.51 279.28 121.588 278.733C121.666 278.185 121.851 277.658 122.132 277.181C122.414 276.705 122.787 276.289 123.229 275.957C123.671 275.625 124.174 275.384 124.71 275.246C125.245 275.109 125.802 275.079 126.35 275.157C126.897 275.236 127.423 275.422 127.898 275.704C128.374 275.986 128.789 276.36 129.12 276.803L135.871 285.813L153.208 259.777C153.514 259.317 153.908 258.922 154.367 258.614C154.826 258.306 155.341 258.092 155.883 257.983C156.425 257.875 156.982 257.874 157.524 257.982C158.066 258.089 158.582 258.302 159.042 258.609C159.501 258.916 159.896 259.31 160.204 259.77C160.511 260.229 160.725 260.745 160.833 261.287C160.942 261.83 160.942 262.388 160.835 262.931C160.728 263.473 160.515 263.99 160.208 264.45L139.573 295.439C139.2 295.999 138.698 296.462 138.109 296.788C137.52 297.114 136.862 297.294 136.189 297.313C136.15 297.314 136.111 297.315 136.072 297.315Z" fill="#2B6CB0"/>
<path d="M263.37 85.735C264.873 85.6064 266.019 84.6534 265.929 83.6066C265.84 82.5598 264.549 81.8154 263.046 81.9441C261.543 82.0727 260.398 83.0256 260.487 84.0725C260.576 85.1193 261.867 85.8637 263.37 85.735Z" fill="white"/>
<path d="M280.279 79.9921C281.782 79.8635 282.928 78.9105 282.839 77.8637C282.749 76.8168 281.458 76.0725 279.955 76.2011C278.453 76.3298 277.307 77.2827 277.396 78.3296C277.486 79.3764 278.776 80.1208 280.279 79.9921Z" fill="#3F3D56"/>
<path d="M255.354 72.819C256.857 72.6904 258.003 71.7374 257.914 70.6906C257.824 69.6437 256.534 68.8994 255.031 69.028C253.528 69.1567 252.382 70.1096 252.471 71.1565C252.561 72.2033 253.852 72.9477 255.354 72.819Z" fill="#FF6584"/>
<path d="M248.262 68.6575C248.909 68.5111 249.263 67.6378 249.053 66.7067C248.843 65.7757 248.148 65.1395 247.501 65.2858C246.854 65.4322 246.5 66.3056 246.711 67.2366C246.921 68.1676 247.615 68.8038 248.262 68.6575Z" fill="white"/>
<path d="M243.212 58.5539C243.859 58.4076 244.213 57.5342 244.003 56.6032C243.793 55.6721 243.098 55.036 242.451 55.1823C241.805 55.3287 241.451 56.202 241.661 57.1331C241.871 58.0641 242.566 58.7003 243.212 58.5539Z" fill="#3F3D56"/>
<path d="M267.441 72.7427C268.088 72.5963 268.442 71.723 268.232 70.7919C268.022 69.8609 267.327 69.2247 266.68 69.371C266.033 69.5174 265.679 70.3907 265.889 71.3218C266.099 72.2528 266.794 72.889 267.441 72.7427Z" fill="white"/>
<path d="M260.055 78.8808C260.702 78.7345 261.056 77.8611 260.846 76.9301C260.636 75.999 259.941 75.3629 259.294 75.5092C258.647 75.6555 258.293 76.5289 258.504 77.46C258.714 78.391 259.408 79.0272 260.055 78.8808Z" fill="#FF6584"/>
<path d="M273.5 83.8806C274.147 83.7343 274.501 82.8609 274.291 81.9298C274.081 80.9988 273.386 80.3627 272.74 80.509C272.093 80.6553 271.739 81.5287 271.949 82.4597C272.159 83.3908 272.854 84.0269 273.5 83.8806Z" fill="#3F3D56"/>
<path d="M193.557 7.47025C193.815 6.45179 192.839 5.32543 191.377 4.95447C189.915 4.5835 188.52 5.1084 188.263 6.12686C188.005 7.14532 188.981 8.27167 190.443 8.64264C191.905 9.0136 193.3 8.48871 193.557 7.47025Z" fill="white"/>
<path d="M175.703 7.35498C175.961 6.33652 174.985 5.21017 173.522 4.8392C172.06 4.46824 170.666 4.99314 170.408 6.0116C170.15 7.03006 171.127 8.15644 172.589 8.5274C174.051 8.89837 175.445 8.37344 175.703 7.35498Z" fill="#3F3D56"/>
<path d="M196.908 22.3011C197.166 21.2826 196.19 20.1562 194.727 19.7853C193.265 19.4143 191.871 19.9392 191.613 20.9577C191.355 21.9761 192.332 23.1025 193.794 23.4735C195.256 23.8444 196.65 23.3195 196.908 22.3011Z" fill="#FF6584"/>
<path d="M201.07 27.8931C201.176 26.9445 200.728 26.1157 200.069 26.042C199.41 25.9683 198.79 26.6775 198.684 27.6261C198.578 28.5747 199.026 29.4035 199.685 29.4772C200.345 29.551 200.965 28.8417 201.07 27.8931Z" fill="white"/>
<path d="M202.539 39.095C202.645 38.1464 202.197 37.3176 201.538 37.2439C200.879 37.1702 200.259 37.8794 200.153 38.828C200.047 39.7766 200.495 40.6054 201.154 40.6791C201.813 40.7529 202.433 40.0436 202.539 39.095Z" fill="#3F3D56"/>
<path d="M184.284 17.7476C184.39 16.799 183.942 15.9702 183.283 15.8965C182.624 15.8228 182.004 16.532 181.898 17.4806C181.792 18.4292 182.24 19.258 182.899 19.3317C183.558 19.4055 184.178 18.6962 184.284 17.7476Z" fill="white"/>
<path d="M193.27 14.368C193.376 13.4193 192.927 12.5906 192.268 12.5168C191.609 12.4431 190.989 13.1524 190.883 14.101C190.777 15.0496 191.226 15.8784 191.885 15.9521C192.544 16.0258 193.164 15.3166 193.27 14.368Z" fill="#FF6584"/>
<path d="M182.2 5.23735C182.306 4.28873 181.858 3.45996 181.199 3.38623C180.54 3.31251 179.92 4.02175 179.814 4.97037C179.708 5.91898 180.156 6.74775 180.815 6.82148C181.474 6.8952 182.094 6.18597 182.2 5.23735Z" fill="#3F3D56"/>
<path d="M47.7825 223.242C46.434 222.688 45.2216 221.849 44.2292 220.78C43.2367 219.712 42.488 218.44 42.0347 217.054C41.5813 215.667 41.4343 214.198 41.6037 212.749C41.7731 211.3 42.2549 209.905 43.0157 208.661L13.9434 167.746L23.27 156.913L57.4447 205.76C59.4417 207.198 60.8424 209.32 61.3814 211.723C61.9204 214.126 61.5602 216.643 60.3693 218.798C59.1783 220.952 57.2391 222.595 54.9193 223.414C52.5995 224.233 50.0602 224.172 47.7825 223.242H47.7825Z" fill="#FFB6B6"/>
<path d="M48.4507 93.5861C46.9799 92.7197 45.2488 92.4065 43.5682 92.7027C41.8875 92.999 40.3674 93.8853 39.2805 95.2025L0 150.202L36.4028 201.965L50.6474 186.647L28.4892 151.787L57.9377 123.716C60.3576 118.408 60.7273 112.391 58.9752 106.827C57.2231 101.262 53.4735 96.5448 48.4507 93.5861Z" fill="#2B6CB0"/>
</svg>
