<svg width="303" height="100" viewBox="0 0 303 100" fill="none" xmlns="http://www.w3.org/2000/svg">
<path d="M293.262 60.6372L301.672 66.2435C298.942 70.2638 292.414 77.1611 281.128 77.1611C267.112 77.1611 256.674 66.3173 256.674 52.5228C256.674 37.8431 267.223 27.8845 279.947 27.8845C292.746 27.8845 299.016 38.0644 301.045 43.5601L302.151 46.3632L269.177 60.0102C271.685 64.9526 275.595 67.4607 281.128 67.4607C286.66 67.4607 290.496 64.7313 293.262 60.6372ZM267.407 51.7482L289.427 42.6011C288.209 39.5398 284.595 37.3636 280.279 37.3636C274.784 37.3636 267.149 42.2323 267.407 51.7482Z" fill="#FF302F"/>
<path d="M240.777 2.76636H251.4V74.9108H240.777V2.76636Z" fill="#20B15A"/>
<path d="M224.029 29.8015H234.282V73.6193C234.282 91.8029 223.549 99.2903 210.861 99.2903C198.911 99.2903 191.719 91.2497 189.026 84.7213L198.431 80.8116C200.128 84.8319 204.222 89.5899 210.861 89.5899C219.013 89.5899 224.029 84.5369 224.029 75.0946V71.5538H223.66C221.226 74.5045 216.578 77.1601 210.677 77.1601C198.358 77.1601 187.071 66.427 187.071 52.5956C187.071 38.6905 198.358 27.8467 210.677 27.8467C216.541 27.8467 221.226 30.4654 223.66 33.3423H224.029V29.8015ZM224.766 52.5956C224.766 43.8911 218.976 37.5471 211.599 37.5471C204.148 37.5471 197.878 43.8911 197.878 52.5956C197.878 61.1895 204.148 67.4228 211.599 67.4228C218.976 67.4597 224.766 61.1895 224.766 52.5956Z" fill="#3686F7"/>
<path d="M128.759 52.4115C128.759 66.6117 117.694 77.0498 104.121 77.0498C90.5475 77.0498 79.4824 66.5748 79.4824 52.4115C79.4824 38.1375 90.5475 27.7363 104.121 27.7363C117.694 27.7363 128.759 38.1375 128.759 52.4115ZM117.989 52.4115C117.989 43.5594 111.571 37.4736 104.121 37.4736C96.6702 37.4736 90.2524 43.5594 90.2524 52.4115C90.2524 61.1898 96.6702 67.3494 104.121 67.3494C111.571 67.3494 117.989 61.1898 117.989 52.4115Z" fill="#FF302F"/>
<path d="M182.572 52.5228C182.572 66.723 171.507 77.1611 157.934 77.1611C144.361 77.1611 133.296 66.723 133.296 52.5228C133.296 38.2488 144.361 27.8845 157.934 27.8845C171.507 27.8845 182.572 38.2119 182.572 52.5228ZM171.766 52.5228C171.766 43.6707 165.348 37.5849 157.897 37.5849C150.447 37.5849 144.029 43.6707 144.029 52.5228C144.029 61.3011 150.447 67.4607 157.897 67.4607C165.385 67.4607 171.766 61.2642 171.766 52.5228Z" fill="#FFBA40"/>
<path d="M38.986 66.3537C23.5318 66.3537 11.4339 53.887 11.4339 38.4328C11.4339 22.9785 23.5318 10.5118 38.986 10.5118C47.3217 10.5118 53.4075 13.7945 57.9073 17.9992L65.3209 10.5856C59.0507 4.57357 50.6781 0 38.986 0C17.8148 0 0 17.2615 0 38.4328C0 59.604 17.8148 76.8655 38.986 76.8655C50.4199 76.8655 59.0507 73.1034 65.8004 66.0955C72.7346 59.1614 74.8738 49.4241 74.8738 41.531C74.8738 39.0598 74.5787 36.5148 74.2468 34.6337H38.986V44.8874H64.1038C63.3661 51.3052 61.3375 55.6943 58.3499 58.6819C54.7353 62.3334 49.0184 66.3537 38.986 66.3537Z" fill="#3686F7"/>
</svg>
