<svg width="210" height="168" viewBox="0 0 210 168" fill="none" xmlns="http://www.w3.org/2000/svg">
<path d="M17.8159 24.0379C32.5428 8.08604 54.8273 0 84.0396 0H94.5363V29.5649L86.0969 31.2534C71.7165 34.1271 61.7131 39.78 56.3598 48.0758C53.5666 52.5449 51.9824 57.662 51.7622 62.9264H84.0396C86.8235 62.9264 89.4934 64.0314 91.4619 65.9982C93.4304 67.965 94.5363 70.6326 94.5363 73.4141V146.828C94.5363 158.396 85.1208 167.804 73.5429 167.804H10.5627C7.7788 167.804 5.10893 166.699 3.14041 164.732C1.1719 162.765 0.0660015 160.098 0.0660015 157.316V104.877L0.0974918 74.2636C0.0030215 73.0995 -1.99135 45.5168 17.8159 24.0379ZM189.007 167.804H126.026C123.242 167.804 120.573 166.699 118.604 164.732C116.636 162.765 115.53 160.098 115.53 157.316V104.877L115.561 74.2636C115.467 73.0995 113.472 45.5168 133.28 24.0379C148.006 8.08604 170.291 0 199.503 0H210V29.5649L201.561 31.2534C187.18 34.1271 177.177 39.78 171.824 48.0758C169.03 52.5449 167.446 57.662 167.226 62.9264H199.503C202.287 62.9264 204.957 64.0314 206.926 65.9982C208.894 67.965 210 70.6326 210 73.4141V146.828C210 158.396 200.584 167.804 189.007 167.804Z" fill="#E6F6FF"/>
</svg>
