<svg width="342" height="73" viewBox="0 0 342 73" fill="none" xmlns="http://www.w3.org/2000/svg">
<path d="M120.7 42.0169L118.662 47.7849H118.493C118.153 46.4842 117.53 44.505 116.511 42.13L105.585 14.7037H94.8848V58.4161H101.961V31.4422C101.961 29.7457 101.961 27.8231 101.905 25.448C101.848 24.2605 101.735 23.3557 101.678 22.6771H101.848C102.188 24.3736 102.584 25.6177 102.867 26.4093L116.002 58.303H120.984L134.005 26.1266C134.288 25.3915 134.571 23.9212 134.854 22.6771H135.024C134.854 25.9004 134.741 28.7844 134.684 30.5374V58.2464H142.214V14.5906H131.91L120.7 42.0169ZM149.347 26.9183H156.707V58.2464H149.347V26.9183ZM153.083 13.6858C151.838 13.6858 150.819 14.1382 149.97 14.9299C149.12 15.7216 148.667 16.7395 148.667 17.9835C148.667 19.1711 149.12 20.189 149.97 20.9806C150.819 21.7723 151.838 22.1682 153.083 22.1682C154.329 22.1682 155.404 21.7158 156.197 20.9806C157.046 20.189 157.499 19.1711 157.499 17.9835C157.499 16.796 157.046 15.7781 156.197 14.9299C155.461 14.1382 154.385 13.6858 153.083 13.6858ZM182.805 26.6355C181.447 26.3528 180.031 26.1832 178.673 26.1832C175.332 26.1832 172.275 26.9183 169.728 28.3886C167.18 29.8588 165.142 31.8946 163.84 34.4393C162.481 37.0406 161.802 40.0377 161.802 43.4872C161.802 46.4842 162.481 49.142 163.783 51.5737C165.085 53.9487 166.897 55.8714 169.331 57.172C171.653 58.4726 174.37 59.1512 177.427 59.1512C180.937 59.1512 183.938 58.4161 186.315 57.0589L186.372 57.0024V50.2165L186.089 50.4427C185.013 51.2344 183.768 51.913 182.522 52.3088C181.22 52.7612 180.031 52.9874 179.012 52.9874C176.068 52.9874 173.747 52.1391 172.105 50.273C170.407 48.4635 169.558 45.9753 169.558 42.8651C169.558 39.6418 170.407 37.0971 172.162 35.231C173.917 33.3649 176.238 32.4035 179.069 32.4035C181.447 32.4035 183.881 33.1952 186.089 34.7786L186.372 35.0048V27.8231L186.315 27.7665C185.353 27.3707 184.277 26.9183 182.805 26.6355ZM207.092 26.4093C205.281 26.4093 203.582 26.9748 202.111 28.1624C200.865 29.1802 200.016 30.6505 199.28 32.4035H199.223V26.9183H191.863V58.2464H199.223V42.2431C199.223 39.5287 199.789 37.2668 201.035 35.6268C202.28 33.9304 203.866 33.0821 205.79 33.0821C206.47 33.0821 207.149 33.2518 207.998 33.3649C208.791 33.5911 209.357 33.8173 209.753 34.1L210.036 34.3262V26.9748L209.867 26.9183C209.357 26.579 208.338 26.4093 207.092 26.4093ZM227.134 26.2397C221.982 26.2397 217.849 27.7665 214.962 30.7636C212.018 33.7607 210.603 37.8888 210.603 43.0913C210.603 47.9545 212.074 51.913 214.905 54.797C217.736 57.6244 221.586 59.0947 226.398 59.0947C231.436 59.0947 235.456 57.5679 238.343 54.5142C241.287 51.4606 242.702 47.389 242.702 42.3562C242.702 37.3799 241.344 33.4214 238.57 30.5374C235.909 27.6534 232.002 26.2397 227.134 26.2397ZM233.021 50.3296C231.663 52.0826 229.511 52.9308 226.851 52.9308C224.19 52.9308 222.038 52.0826 220.51 50.2165C218.981 48.4635 218.245 45.9188 218.245 42.6955C218.245 39.3591 219.038 36.8144 220.51 35.0048C222.038 33.1952 224.133 32.2904 226.794 32.2904C229.398 32.2904 231.436 33.1387 232.908 34.8917C234.38 36.6447 235.173 39.1894 235.173 42.5258C235.06 45.9188 234.437 48.5766 233.021 50.3296ZM259.12 39.9246C256.799 38.9632 255.327 38.2281 254.648 37.6061C254.082 37.0406 253.799 36.2489 253.799 35.231C253.799 34.3828 254.138 33.5345 254.987 32.969C255.837 32.4035 256.799 32.1208 258.214 32.1208C259.46 32.1208 260.762 32.347 262.007 32.6863C263.253 33.0256 264.385 33.5345 265.291 34.2131L265.574 34.4393V27.5403L265.404 27.4838C264.555 27.1445 263.423 26.8052 262.064 26.5224C260.705 26.2962 259.46 26.1832 258.441 26.1832C254.931 26.1832 252.044 27.0314 249.779 28.8975C247.514 30.6505 246.439 33.0256 246.439 35.7965C246.439 37.2668 246.665 38.5674 247.175 39.6418C247.684 40.7162 248.42 41.7341 249.439 42.5824C250.458 43.3741 251.93 44.2788 253.968 45.1271C255.667 45.8622 256.969 46.4277 257.761 46.8801C258.554 47.3325 259.064 47.8414 259.46 48.2373C259.743 48.6897 259.913 49.2551 259.913 49.9903C259.913 52.0826 258.328 53.1005 255.101 53.1005C253.855 53.1005 252.553 52.8743 251.024 52.3653C249.496 51.8564 248.081 51.1213 246.892 50.273L246.609 50.0468V57.2286L246.778 57.2851C247.854 57.7941 249.156 58.1333 250.741 58.5292C252.327 58.8119 253.742 59.0381 254.987 59.0381C258.781 59.0381 261.894 58.1899 264.102 56.3238C266.367 54.5142 267.556 52.1957 267.556 49.1986C267.556 47.1063 266.989 45.2402 265.744 43.8264C264.102 42.4693 262.064 41.0555 259.12 39.9246ZM286.974 26.2397C281.822 26.2397 277.689 27.7665 274.802 30.7636C271.915 33.7607 270.443 37.8888 270.443 43.0913C270.443 47.9545 271.915 51.913 274.745 54.797C277.576 57.6244 281.426 59.0947 286.238 59.0947C291.277 59.0947 295.296 57.5679 298.183 54.5142C301.127 51.4606 302.543 47.389 302.543 42.3562C302.543 37.3799 301.184 33.4214 298.41 30.5374C295.749 27.6534 291.843 26.2397 286.974 26.2397ZM292.805 50.3296C291.446 52.0826 289.295 52.9308 286.634 52.9308C283.917 52.9308 281.822 52.0826 280.294 50.2165C278.765 48.4635 278.029 45.9188 278.029 42.6955C278.029 39.3591 278.822 36.8144 280.294 35.0048C281.822 33.1952 283.917 32.2904 286.578 32.2904C289.125 32.2904 291.22 33.1387 292.692 34.8917C294.164 36.6447 294.956 39.1894 294.956 42.5258C294.956 45.9188 294.221 48.5766 292.805 50.3296ZM341.889 32.969V26.9183H334.473V17.6443L334.246 17.7008L327.226 19.7931L327.056 19.8497V26.9183H315.96V22.9599C315.96 21.1503 316.413 19.7366 317.206 18.8318C317.998 17.927 319.187 17.4746 320.659 17.4746C321.678 17.4746 322.754 17.7008 323.943 18.2097L324.226 18.3794V11.9893L324.056 11.9328C323.037 11.5935 321.678 11.3673 319.923 11.3673C317.715 11.3673 315.79 11.8763 314.035 12.7245C312.28 13.6858 310.978 14.9864 310.016 16.7395C309.053 18.4359 308.544 20.3586 308.544 22.564V26.9183H303.392V32.9125H308.544V58.2464H315.96V32.969H327.056V49.0855C327.056 55.7017 330.17 59.0381 336.397 59.0381C337.417 59.0381 338.492 58.8685 339.511 58.6988C340.587 58.4726 341.379 58.1899 341.832 57.9637L341.889 57.9072V51.8564L341.606 52.0826C341.153 52.3653 340.757 52.5915 340.077 52.7612C339.511 52.9308 339.002 52.9874 338.605 52.9874C337.133 52.9874 336.114 52.6481 335.378 51.7999C334.699 51.0082 334.359 49.7075 334.359 47.7849V32.969H341.889Z" fill="#737373"/>
<path d="M0 0H34.704V34.6645H0V0Z" fill="#F25022"/>
<path d="M38.3281 0H73.0321V34.6645H38.3281V0Z" fill="#7FBA00"/>
<path d="M0 38.2837H34.704V72.9482H0V38.2837Z" fill="#00A4EF"/>
<path d="M38.3281 38.2837H73.0321V72.9482H38.3281V38.2837Z" fill="#FFB900"/>
</svg>
