<svg width="76" height="76" viewBox="0 0 76 76" fill="none" xmlns="http://www.w3.org/2000/svg">
<path d="M5.87602 40.7397L0 46.6158L20.5661 55.4298L29.3842 76L35.2603 70.124L32.3222 55.4298L46.0897 41.6623L61.0915 73.677L66.6558 68.1127L61.7106 26.0455L73.4627 14.2893C74.2565 13.5227 74.8897 12.6056 75.3252 11.5916C75.7608 10.5776 75.9901 9.48697 75.9997 8.38342C76.0093 7.27986 75.799 6.18545 75.3811 5.16403C74.9632 4.14262 74.3461 3.21466 73.5657 2.4343C72.7853 1.65393 71.8574 1.0368 70.836 0.618907C69.8145 0.201013 68.7201 -0.0092758 67.6166 0.000313802C66.513 0.0099034 65.4224 0.23918 64.4084 0.674761C63.3944 1.11034 62.4773 1.74351 61.7106 2.53731L49.6469 14.601L7.57981 9.6517L2.32298 14.9127L34.0884 30.1637L20.5702 43.6819L5.87602 40.7397V40.7397Z" fill="#0DB3FB"/>
</svg>
