<svg width="210" height="168" viewBox="0 0 210 168" fill="none" xmlns="http://www.w3.org/2000/svg">
<path d="M192.184 143.934C177.457 159.905 155.173 168 125.96 168H115.464V138.401L123.903 136.71C138.284 133.833 148.287 128.174 153.64 119.868C156.433 115.394 158.018 110.271 158.238 105H125.96C123.177 105 120.507 103.894 118.538 101.925C116.57 99.9555 115.464 97.2848 115.464 94.5V21C115.464 9.4185 124.879 0 136.457 0H199.437C202.221 0 204.891 1.10623 206.86 3.07538C208.828 5.04451 209.934 7.71523 209.934 10.5L209.934 63L209.903 93.6495C209.997 94.815 211.991 122.43 192.184 143.934ZM20.9934 0H83.9736C86.7575 0 89.4274 1.10623 91.3959 3.07538C93.3644 5.04451 94.4703 7.71523 94.4703 10.5V63L94.4388 93.6495C94.5333 94.815 96.5277 122.43 76.7204 143.934C61.9935 159.905 39.709 168 10.4967 168H0V138.401L8.43936 136.71C22.8198 133.833 32.8232 128.174 38.1765 119.868C40.9697 115.394 42.554 110.271 42.7741 105H10.4967C7.7128 105 5.04292 103.894 3.0744 101.925C1.1059 99.9555 0 97.2848 0 94.5L0 21C0 9.4185 9.41554 0 20.9934 0Z" fill="#E6F6FF"/>
</svg>
