<svg width="154" height="64" viewBox="0 0 154 64" fill="none" xmlns="http://www.w3.org/2000/svg">
<path fill-rule="evenodd" clip-rule="evenodd" d="M153.405 33.0683C153.405 22.131 148.121 13.5009 138.022 13.5009C127.88 13.5009 121.744 22.131 121.744 32.9828C121.744 45.8426 128.988 52.3366 139.386 52.3366C144.457 52.3366 148.292 51.1831 151.189 49.5596V41.0149C148.292 42.4675 144.968 43.3647 140.749 43.3647C136.616 43.3647 132.951 41.9121 132.482 36.8707H153.32C153.32 36.3153 153.405 34.0936 153.405 33.0683ZM132.355 29.0095C132.355 24.1818 135.295 22.1738 137.98 22.1738C140.579 22.1738 143.349 24.1818 143.349 29.0095H132.355Z" fill="#32325D"/>
<path fill-rule="evenodd" clip-rule="evenodd" d="M105.295 13.5009C101.119 13.5009 98.4348 15.4661 96.9434 16.8333L96.3894 14.1844H87.0146V64.0002L97.6678 61.7358L97.7104 49.645C99.2444 50.7559 101.503 52.3366 105.253 52.3366C112.88 52.3366 119.826 46.1844 119.826 32.641C119.784 20.2512 112.753 13.5009 105.295 13.5009ZM102.739 42.9374C100.225 42.9374 98.7331 42.0402 97.7104 40.9294L97.6678 25.079C98.7757 23.84 100.31 22.9855 102.739 22.9855C106.616 22.9855 109.301 27.3433 109.301 32.9401C109.301 38.6651 106.659 42.9374 102.739 42.9374Z" fill="#32325D"/>
<path fill-rule="evenodd" clip-rule="evenodd" d="M72.3555 10.98L83.0512 8.6729V0L72.3555 2.26435V10.98Z" fill="#32325D"/>
<path d="M83.0512 14.2269H72.3555V51.6101H83.0512V14.2269Z" fill="#32325D"/>
<path fill-rule="evenodd" clip-rule="evenodd" d="M60.8939 17.3883L60.2121 14.2268H51.0078V51.61H61.661V26.2748C64.1751 22.9851 68.4363 23.5832 69.7573 24.0532V14.2268C68.3937 13.7141 63.4081 12.7742 60.8939 17.3883Z" fill="#32325D"/>
<path fill-rule="evenodd" clip-rule="evenodd" d="M39.5875 4.95618L29.1901 7.17781L29.1475 41.3994C29.1475 47.7225 33.8775 52.3794 40.1841 52.3794C43.6783 52.3794 46.2351 51.7386 47.6413 50.9695V42.2966C46.2777 42.852 39.5449 44.8173 39.5449 38.4942V23.3273H47.6413V14.2272H39.5449L39.5875 4.95618Z" fill="#32325D"/>
<path fill-rule="evenodd" clip-rule="evenodd" d="M10.781 25.079C10.781 23.4127 12.1446 22.7719 14.403 22.7719C17.6416 22.7719 21.7324 23.7545 24.971 25.5062V15.4661C21.4341 14.0563 17.9399 13.5009 14.403 13.5009C5.7527 13.5009 0 18.0296 0 25.5916C0 37.3834 16.1928 35.5035 16.1928 40.5876C16.1928 42.5529 14.4883 43.1938 12.102 43.1938C8.56512 43.1938 4.04819 41.7412 0.468737 39.7759V49.9441C4.4317 51.6531 8.43729 52.3794 12.102 52.3794C20.9654 52.3794 27.059 47.9788 27.059 40.3313C27.0164 27.5997 10.781 29.864 10.781 25.079Z" fill="#32325D"/>
</svg>
