<svg width="215" height="75" viewBox="0 0 215 75" fill="none" xmlns="http://www.w3.org/2000/svg">
<path d="M12.3282 53.2911C13.2337 55.6956 14.4873 57.7515 16.0894 59.4588C17.6914 61.1664 19.5894 62.473 21.7833 63.3791C23.9773 64.2851 26.3629 64.7381 28.94 64.7381C31.4476 64.7381 33.7982 64.2676 35.9923 63.3266C38.1864 62.3856 40.1016 61.0616 41.7384 59.3542C43.3751 57.6467 44.6463 55.6084 45.5519 53.2388C46.4574 50.8692 46.91 48.2212 46.91 45.2939V0.133301H57.88V73.3101H47.0145V66.515C44.5768 69.0934 41.7035 71.0797 38.3951 72.4739C35.0865 73.8675 31.5172 74.5645 27.6863 74.5645C23.7857 74.5645 20.1465 73.8849 16.7684 72.5259C13.3904 71.1669 10.4649 69.2332 7.99245 66.7241C5.52002 64.2151 3.56959 61.2013 2.14185 57.6816C0.713872 54.1622 0 50.2421 0 45.921V0.133301H10.97V45.2939C10.97 48.2212 11.4226 50.8866 12.3282 53.2911Z" fill="#010202"/>
<path d="M76.7893 0.133301V26.7905C79.2271 24.3513 82.0481 22.4175 85.252 20.9887C88.4559 19.5599 91.9385 18.8456 95.6995 18.8456C99.6002 18.8456 103.256 19.5772 106.67 21.0407C110.082 22.5043 113.042 24.4905 115.55 26.9996C118.058 29.5086 120.043 32.4704 121.505 35.8853C122.968 39.3004 123.699 42.9243 123.699 46.7574C123.699 50.5903 122.968 54.1969 121.505 57.5768C120.043 60.957 118.058 63.9016 115.55 66.4102C113.042 68.9193 110.082 70.9056 106.67 72.3691C103.256 73.8326 99.5999 74.5642 95.6995 74.5642C91.9383 74.5642 88.4385 73.8499 85.1998 72.4211C81.961 70.9925 79.1226 69.0585 76.6848 66.6193V73.3098H66.2373V0.133301H76.7893ZM77.9908 53.9704C78.931 56.2008 80.2371 58.1521 81.9087 59.8247C83.5804 61.4974 85.5306 62.8216 87.7593 63.7973C89.9883 64.773 92.3912 65.2608 94.9683 65.2608C97.4759 65.2608 99.8438 64.773 102.073 63.7973C104.301 62.8216 106.234 61.4976 107.871 59.8247C109.508 58.1523 110.814 56.2008 111.789 53.9704C112.764 51.7404 113.252 49.3361 113.252 46.7574C113.252 44.1787 112.764 41.7569 111.789 39.4919C110.814 37.2269 109.508 35.2582 107.871 33.5855C106.234 31.9131 104.302 30.6062 102.073 29.6655C99.8436 28.7247 97.4757 28.254 94.9683 28.254C92.461 28.254 90.0928 28.7245 87.8641 29.6655C85.6353 30.6065 83.6851 31.9131 82.0132 33.5855C80.3418 35.2582 79.0183 37.2269 78.0432 39.4919C77.0681 41.7569 76.5806 44.1787 76.5806 46.7574C76.5804 49.3361 77.0506 51.7404 77.9908 53.9704Z" fill="#010202"/>
<path d="M129.653 35.99C131.045 32.6447 132.961 29.7004 135.399 27.1566C137.836 24.6129 140.727 22.6092 144.07 21.1457C147.414 19.6822 151.035 18.9506 154.936 18.9506C158.767 18.9506 162.319 19.6475 165.593 21.0412C168.866 22.4351 171.687 24.3691 174.055 26.8432C176.423 29.3171 178.269 32.2443 179.592 35.6243C180.916 39.0045 181.577 42.6807 181.577 46.6533V50.1031H138.22C138.568 52.2635 139.265 54.2672 140.309 56.1137C141.354 57.9605 142.66 59.5635 144.227 60.9225C145.794 62.2817 147.57 63.3446 149.555 64.1109C151.541 64.8775 153.647 65.261 155.876 65.261C162.215 65.261 167.334 62.6474 171.234 57.4204L178.861 63.0654C176.214 66.6197 172.941 69.4075 169.041 71.4285C165.14 73.4495 160.752 74.4601 155.877 74.4601C151.906 74.4601 148.198 73.7629 144.75 72.3692C141.302 70.9756 138.307 69.024 135.765 66.5149C133.223 64.0059 131.22 61.0615 129.758 57.6816C128.295 54.3016 127.563 50.6251 127.563 46.6528C127.563 42.8896 128.26 39.3352 129.653 35.99ZM144.332 31.8606C141.371 34.3347 139.404 37.6277 138.429 41.7395H170.921C170.015 37.6277 168.083 34.3347 165.122 31.8606C162.162 29.3867 158.697 28.1496 154.727 28.1496C150.757 28.1496 147.292 29.3867 144.332 31.8606Z" fill="#010202"/>
<path d="M201.324 33.0631C199.095 35.5022 197.981 38.8126 197.981 42.9942V73.3106H187.429V19.996H197.876V26.5819C199.2 24.4214 200.924 22.7139 203.048 21.4595C205.172 20.2048 207.697 19.5775 210.623 19.5775H214.279V29.4041H209.891C206.409 29.4044 203.553 30.6239 201.324 33.0631Z" fill="#010202"/>
</svg>
